<?xml version="1.0" encoding="UTF-8"?>
<svg id="Layer_1" data-name="Layer 1" xmlns="http://www.w3.org/2000/svg" version="1.1" viewBox="0 0 164.03 96.04">
  <defs>
    <style>
      .cls-1 {
        fill: #6dd6a2;
      }

      .cls-1, .cls-2 {
        stroke-width: 0px;
      }

      .cls-2 {
        fill: #16153b;
      }
    </style>
  </defs>
  <rect class="cls-2" x="1.41" y="1.41" width="161.21" height="93.23" rx="16.92" ry="16.92"/>
  <path class="cls-1" d="M145.7,96.04H18.33c-10.11,0-18.33-8.22-18.33-18.33V18.33C0,8.22,8.22,0,18.33,0h127.37c10.11,0,18.33,8.22,18.33,18.33v59.39c0,10.11-8.22,18.33-18.33,18.33ZM18.33,2.82c-8.55,0-15.51,6.96-15.51,15.51v59.39c0,8.55,6.96,15.51,15.51,15.51h127.37c8.55,0,15.51-6.96,15.51-15.51V18.33c0-8.55-6.96-15.51-15.51-15.51H18.33Z"/>
</svg>