<?xml version="1.0" encoding="UTF-8"?>
<svg id="Layer_1" data-name="Layer 1" xmlns="http://www.w3.org/2000/svg" version="1.1" viewBox="0 0 39.82 39.82">
  <defs>
    <style>
      .cls-1 {
        fill: #6dd6a2;
      }

      .cls-1, .cls-2, .cls-3 {
        stroke-width: 0px;
      }

      .cls-2 {
        fill: #16153b;
      }

      .cls-3 {
        fill: #fff;
      }
    </style>
  </defs>
  <g>
    <circle class="cls-2" cx="19.91" cy="19.91" r="18.91"/>
    <path class="cls-1" d="M19.91,39.82C8.93,39.82,0,30.88,0,19.91S8.93,0,19.91,0s19.91,8.93,19.91,19.91-8.93,19.91-19.91,19.91ZM19.91,2C10.03,2,2,10.03,2,19.91s8.03,17.91,17.91,17.91,17.91-8.03,17.91-17.91S29.78,2,19.91,2Z"/>
  </g>
  <path class="cls-3" d="M19.91,28.6c-1.16,0-2.24-.21-3.23-.63-.99-.42-1.87-1.01-2.61-1.75s-1.33-1.63-1.75-2.64c-.42-1.01-.63-2.1-.63-3.28s.21-2.24.63-3.24c.42-.99,1.01-1.87,1.75-2.61s1.62-1.33,2.61-1.75,2.07-.63,3.23-.63,2.24.21,3.22.63c.99.42,1.85,1.01,2.6,1.75s1.33,1.62,1.74,2.61c.41,1,.62,2.07.62,3.24s-.21,2.27-.62,3.28-.99,1.89-1.74,2.64-1.62,1.33-2.6,1.75c-.99.42-2.06.63-3.22.63ZM19.91,26.28c.78,0,1.52-.16,2.21-.46.69-.31,1.3-.74,1.83-1.28.52-.54.93-1.17,1.22-1.9.29-.72.43-1.51.43-2.35s-.14-1.6-.43-2.32c-.29-.72-.69-1.34-1.22-1.89-.53-.54-1.13-.96-1.81-1.26-.68-.3-1.42-.45-2.22-.45s-1.54.15-2.24.45c-.7.3-1.31.72-1.83,1.26-.52.54-.92,1.17-1.22,1.89-.29.72-.44,1.49-.44,2.32s.15,1.63.44,2.35c.29.72.7,1.36,1.22,1.9.52.54,1.12.97,1.83,1.28.7.31,1.45.46,2.24.46Z"/>
</svg>