<?xml version="1.0" encoding="UTF-8"?>
<svg id="Layer_1" data-name="Layer 1" xmlns="http://www.w3.org/2000/svg" version="1.1" viewBox="0 0 39.82 39.82">
  <defs>
    <style>
      .cls-1 {
        fill: #6dd6a2;
      }

      .cls-1, .cls-2, .cls-3 {
        stroke-width: 0px;
      }

      .cls-2 {
        fill: #16153b;
      }

      .cls-3 {
        fill: #fff;
      }
    </style>
  </defs>
  <g>
    <circle class="cls-2" cx="19.91" cy="19.91" r="18.91"/>
    <path class="cls-1" d="M19.91,39.82C8.93,39.82,0,30.88,0,19.91S8.93,0,19.91,0s19.91,8.93,19.91,19.91-8.93,19.91-19.91,19.91ZM19.91,2C10.03,2,2,10.03,2,19.91s8.03,17.91,17.91,17.91,17.91-8.03,17.91-17.91S29.78,2,19.91,2Z"/>
  </g>
  <path class="cls-3" d="M27.09,28.64h-14.36c-.69,0-1.31-.35-1.67-.94-.36-.59-.38-1.31-.07-1.92l7-13.55c.33-.65.99-1.05,1.72-1.06,0,0,.01,0,.02,0,.72,0,1.38.39,1.72,1.02l7.37,13.55c.33.61.32,1.34-.04,1.94-.36.6-.99.96-1.68.96ZM27.09,26.64v1-1h0ZM19.69,13.15l-6.92,13.55,14.28-.06-7.36-13.49Z"/>
</svg>