<?xml version="1.0" encoding="UTF-8"?>
<svg id="Layer_1" data-name="Layer 1" xmlns="http://www.w3.org/2000/svg" version="1.1" viewBox="0 0 39.81 39.82">
  <defs>
    <style>
      .cls-1 {
        fill: #6dd6a2;
      }

      .cls-1, .cls-2, .cls-3 {
        stroke-width: 0px;
      }

      .cls-2 {
        fill: #16153b;
      }

      .cls-3 {
        fill: #fff;
      }
    </style>
  </defs>
  <g>
    <circle class="cls-2" cx="19.91" cy="19.91" r="18.91"/>
    <path class="cls-1" d="M19.91,39.82C8.93,39.82,0,30.88,0,19.91S8.93,0,19.91,0s19.91,8.93,19.91,19.91-8.93,19.91-19.91,19.91ZM19.91,2C10.03,2,2,10.03,2,19.91s8.03,17.91,17.91,17.91,17.91-8.03,17.91-17.91S29.78,2,19.91,2Z"/>
  </g>
  <path class="cls-3" d="M19.62,28.31h-5.49v-15.99h5.61c1.96,0,3.5.37,4.62,1.11,1.12.74,1.68,1.79,1.68,3.14,0,.88-.2,1.62-.61,2.22-.41.6-.97,1.06-1.68,1.36-.72.3-1.56.45-2.53.45v-.5c1,0,1.89.12,2.65.37.76.25,1.36.65,1.78,1.21.42.56.63,1.3.63,2.22,0,.83-.17,1.52-.51,2.09-.34.56-.82,1.02-1.42,1.36-.6.34-1.31.59-2.11.74-.8.15-1.68.23-2.61.23ZM16.57,14.35v4.99h3.25c1.34,0,2.3-.21,2.9-.63.6-.42.9-1.08.9-1.97,0-.79-.33-1.39-.98-1.79-.65-.4-1.58-.6-2.77-.6h-3.29ZM16.57,21.37v4.92h3.18c.56,0,1.08-.04,1.57-.11.49-.07.93-.19,1.3-.37.37-.17.67-.43.9-.76.22-.33.33-.77.33-1.31,0-.86-.33-1.47-.99-1.83-.66-.36-1.68-.54-3.04-.54h-3.25Z"/>
</svg>