<?xml version="1.0" encoding="UTF-8"?>
<svg id="Layer_1" data-name="Layer 1" xmlns="http://www.w3.org/2000/svg" version="1.1" viewBox="0 0 39.81 39.82">
  <defs>
    <style>
      .cls-1 {
        fill: #6dd6a2;
      }

      .cls-1, .cls-2, .cls-3 {
        stroke-width: 0px;
      }

      .cls-2 {
        fill: #16153b;
      }

      .cls-3 {
        fill: #fff;
      }
    </style>
  </defs>
  <g>
    <circle class="cls-2" cx="19.91" cy="19.91" r="18.91"/>
    <path class="cls-1" d="M19.91,39.82C8.93,39.82,0,30.88,0,19.91S8.93,0,19.91,0s19.91,8.93,19.91,19.91-8.93,19.91-19.91,19.91ZM19.91,2C10.03,2,2,10.03,2,19.91s8.03,17.91,17.91,17.91,17.91-8.03,17.91-17.91S29.78,2,19.91,2Z"/>
  </g>
  <path class="cls-3" d="M25.35,28.78h-10.89c-1.89,0-3.43-1.54-3.43-3.43v-10.89c0-1.89,1.54-3.43,3.43-3.43h10.89c1.89,0,3.43,1.54,3.43,3.43v10.89c0,1.89-1.54,3.43-3.43,3.43ZM14.46,12.85c-.89,0-1.61.72-1.61,1.61v10.89c0,.89.72,1.61,1.61,1.61h10.89c.89,0,1.61-.72,1.61-1.61v-10.89c0-.89-.72-1.61-1.61-1.61h-10.89Z"/>
</svg>