<?xml version="1.0" encoding="UTF-8"?>
<svg id="Layer_1" data-name="Layer 1" xmlns="http://www.w3.org/2000/svg" version="1.1" viewBox="0 0 331.11 95.13">
  <defs>
    <style>
      .cls-1 {
        fill: #6dd6a2;
      }

      .cls-1, .cls-2 {
        stroke-width: 0px;
      }

      .cls-2 {
        fill: #fff;
      }
    </style>
  </defs>
  <rect class="cls-1" x="1.7" y="1.7" width="327.72" height="91.74" rx="16.58" ry="16.58"/>
  <path class="cls-2" d="M312.83,95.13H18.28c-10.08,0-18.28-8.2-18.28-18.27V18.28C0,8.2,8.2,0,18.28,0h294.56c10.08,0,18.28,8.2,18.28,18.28v58.58c0,10.08-8.2,18.27-18.28,18.27ZM18.28,3.39c-8.21,0-14.88,6.68-14.88,14.88v58.58c0,8.21,6.68,14.88,14.88,14.88h294.56c8.21,0,14.88-6.68,14.88-14.88V18.28c0-8.21-6.68-14.88-14.88-14.88H18.28Z"/>
</svg>