<?xml version="1.0" encoding="UTF-8"?>
<svg id="Layer_1" data-name="Layer 1" xmlns="http://www.w3.org/2000/svg" version="1.1" viewBox="0 0 39.82 39.82">
  <defs>
    <style>
      .cls-1 {
        fill: #6dd6a2;
      }

      .cls-1, .cls-2, .cls-3 {
        stroke-width: 0px;
      }

      .cls-2 {
        fill: #16153b;
      }

      .cls-3 {
        fill: #fff;
      }
    </style>
  </defs>
  <g>
    <circle class="cls-2" cx="19.91" cy="19.91" r="18.91"/>
    <path class="cls-1" d="M19.91,39.82C8.93,39.82,0,30.88,0,19.91S8.93,0,19.91,0s19.91,8.93,19.91,19.91-8.93,19.91-19.91,19.91ZM19.91,2C10.03,2,2,10.03,2,19.91s8.03,17.91,17.91,17.91,17.91-8.03,17.91-17.91S29.78,2,19.91,2Z"/>
  </g>
  <path class="cls-3" d="M15.88,21.15l-3.84-8.83h2.6l3.44,8.16c.13.27.25.48.37.62.12.14.27.21.47.21s.35-.08.48-.23c.13-.15.25-.35.36-.61l3.44-8.16h2.63l-3.89,8.83c-.33.76-.76,1.34-1.28,1.73-.52.39-1.1.58-1.75.58s-1.21-.2-1.72-.58c-.51-.39-.94-.97-1.29-1.73ZM20.13,28.31h-2.43v-6.4h2.43v6.4Z"/>
</svg>