<?xml version="1.0" encoding="UTF-8"?>
<svg id="Layer_1" data-name="Layer 1" xmlns="http://www.w3.org/2000/svg" version="1.1" viewBox="0 0 39.82 39.82">
  <defs>
    <style>
      .cls-1 {
        fill: #6dd6a2;
      }

      .cls-1, .cls-2, .cls-3 {
        stroke-width: 0px;
      }

      .cls-2 {
        fill: #16153b;
      }

      .cls-3 {
        fill: #fff;
      }
    </style>
  </defs>
  <g>
    <circle class="cls-2" cx="19.91" cy="19.91" r="18.91"/>
    <path class="cls-1" d="M19.91,39.82C8.93,39.82,0,30.88,0,19.91S8.93,0,19.91,0s19.91,8.93,19.91,19.91-8.93,19.91-19.91,19.91ZM19.91,2C10.03,2,2,10.03,2,19.91s8.03,17.91,17.91,17.91,17.91-8.03,17.91-17.91S29.78,2,19.91,2Z"/>
  </g>
  <path class="cls-3" d="M15.21,28.31h-2.94l4.06-6.06c.27-.41.47-.78.61-1.11.14-.33.2-.63.2-.92,0-.32-.07-.64-.2-.95-.13-.32-.34-.68-.61-1.07l-3.89-5.87h2.84l3.32,5.01c.62,1.02.93,2.01.93,2.98,0,.46-.08.94-.24,1.43-.16.49-.4.99-.72,1.5l-3.37,5.06ZM21.77,19.17v2.22h-3.22v-2.22h3.22ZM27.84,28.31h-2.91l-3.39-5.06c-.32-.51-.56-1.01-.72-1.5s-.24-.97-.24-1.43c0-1,.31-2,.93-2.98l3.29-5.01h2.86l-3.91,5.87c-.26.4-.45.76-.57,1.07-.13.32-.19.64-.19.95,0,.29.06.59.18.92.12.33.31.7.59,1.11l4.08,6.06Z"/>
</svg>