<?xml version="1.0" encoding="UTF-8"?>
<svg id="Layer_1" data-name="Layer 1" xmlns="http://www.w3.org/2000/svg" version="1.1" viewBox="0 0 1440 1440">
  <defs>
    <style>
      .cls-1 {
        fill: #d1ad34;
      }

      .cls-1, .cls-2, .cls-3, .cls-4, .cls-5, .cls-6, .cls-7, .cls-8, .cls-9, .cls-10, .cls-11, .cls-12, .cls-13, .cls-14, .cls-15, .cls-16, .cls-17, .cls-18, .cls-19, .cls-20, .cls-21, .cls-22, .cls-23, .cls-24, .cls-25, .cls-26, .cls-27, .cls-28, .cls-29, .cls-30, .cls-31, .cls-32, .cls-33 {
        stroke-width: 0px;
      }

      .cls-2 {
        fill: #616161;
      }

      .cls-3 {
        fill: #f9e399;
      }

      .cls-4 {
        fill: #f5d056;
      }

      .cls-5 {
        fill: #ba9a2f;
      }

      .cls-6 {
        fill: #99cdb3;
      }

      .cls-7 {
        fill: #a2d1b9;
      }

      .cls-8 {
        fill: #f7d978;
      }

      .cls-9 {
        fill: #505050;
      }

      .cls-10 {
        fill: #a8e7c7;
      }

      .cls-11 {
        fill: #8adeb4;
      }

      .cls-12 {
        fill: #b6ebd0;
      }

      .cls-13 {
        fill: #d6c282;
      }

      .cls-14 {
        fill: #c1a443;
      }

      .cls-15 {
        fill: #fbecbb;
      }

      .cls-16 {
        fill: #f8de89;
      }

      .cls-17 {
        fill: #6dd6a2;
      }

      .cls-18 {
        fill: #e2f7ec;
      }

      .cls-19 {
        fill: #aad5c0;
      }

      .cls-20 {
        fill: #80c0a0;
      }

      .cls-21 {
        fill: #c8ae58;
      }

      .cls-22 {
        fill: #88c4a6;
      }

      .cls-23 {
        fill: #303030;
      }

      .cls-24 {
        fill: #77bc9a;
      }

      .cls-25 {
        fill: #7cdaab;
      }

      .cls-26 {
        fill: #c4e2d3;
      }

      .cls-27 {
        fill: #c5efda;
      }

      .cls-28 {
        fill: #16153b;
      }

      .cls-29 {
        fill: #55ab80;
      }

      .cls-30 {
        fill: #fff;
      }

      .cls-31 {
        fill: #fdf6dd;
      }

      .cls-32 {
        fill: #e3d6ac;
      }

      .cls-33 {
        fill: #a68929;
      }
    </style>
  </defs>
  <g>
    <rect class="cls-28" x="41.19" y="117.92" width="327.72" height="91.74" rx="16.58" ry="16.58"/>
    <path class="cls-17" d="M352.32,211.35H57.77c-10.08,0-18.28-8.2-18.28-18.28v-58.58c0-10.08,8.2-18.28,18.28-18.28h294.56c10.08,0,18.28,8.2,18.28,18.28v58.58c0,10.08-8.2,18.28-18.28,18.28ZM57.77,119.62c-8.21,0-14.88,6.68-14.88,14.88v58.58c0,8.21,6.68,14.88,14.88,14.88h294.56c8.21,0,14.88-6.68,14.88-14.88v-58.58c0-8.21-6.68-14.88-14.88-14.88H57.77Z"/>
  </g>
  <g>
    <rect class="cls-17" x="41.19" y="242.77" width="327.72" height="91.74" rx="16.58" ry="16.58"/>
    <path class="cls-30" d="M352.32,336.2H57.77c-10.08,0-18.28-8.2-18.28-18.27v-58.58c0-10.08,8.2-18.28,18.28-18.28h294.56c10.08,0,18.28,8.2,18.28,18.28v58.58c0,10.08-8.2,18.27-18.28,18.27ZM57.77,244.46c-8.21,0-14.88,6.68-14.88,14.88v58.58c0,8.21,6.68,14.88,14.88,14.88h294.56c8.21,0,14.88-6.68,14.88-14.88v-58.58c0-8.21-6.68-14.88-14.88-14.88H57.77Z"/>
  </g>
  <g>
    <rect class="cls-28" x="41.19" y="476.46" width="161.21" height="93.23" rx="16.92" ry="16.92"/>
    <path class="cls-17" d="M185.48,571.1H58.11c-10.11,0-18.33-8.22-18.33-18.33v-59.39c0-10.1,8.22-18.33,18.33-18.33h127.37c10.11,0,18.33,8.22,18.33,18.33v59.39c0,10.11-8.22,18.33-18.33,18.33ZM58.11,477.87c-8.55,0-15.51,6.96-15.51,15.51v59.39c0,8.55,6.96,15.51,15.51,15.51h127.37c8.55,0,15.51-6.96,15.51-15.51v-59.39c0-8.55-6.96-15.51-15.51-15.51H58.11Z"/>
  </g>
  <g>
    <path class="cls-28" d="M282.55,554.77l-16.99-10.99-17.84,9.92c-2.28,1.27-4.95-.85-4.25-3.36l5.49-19.45-14.75-13.65c-1.9-1.76-.76-4.93,1.83-5.08l20.39-1.13,8.78-18.44c1.11-2.34,4.49-2.19,5.39.23l7.04,18.83,20.08,2.29c2.59.3,3.53,3.57,1.5,5.2l-15.94,12.75,3.73,19.88c.47,2.53-2.31,4.4-4.47,3Z"/>
    <path class="cls-30" d="M284.14,556.3c-.75,0-1.5-.22-2.17-.65h0l-16.45-10.65-17.29,9.61c-1.44.8-3.13.66-4.41-.36-1.29-1.02-1.81-2.63-1.37-4.21l5.32-18.83-14.28-13.21c-1.2-1.11-1.6-2.75-1.04-4.28.55-1.53,1.9-2.54,3.53-2.63l19.77-1.1,8.51-17.88c.7-1.47,2.16-2.32,3.77-2.27,1.63.07,2.99,1.06,3.57,2.59l6.81,18.22,19.44,2.22c1.63.19,2.93,1.28,3.38,2.86.45,1.58-.06,3.19-1.34,4.22l-15.45,12.35,3.61,19.26c.3,1.59-.35,3.14-1.7,4.05-.68.46-1.45.69-2.22.69ZM283.12,553.88c.65.42,1.42.41,2.06-.02.64-.43.94-1.14.8-1.9l-3.73-19.88c-.07-.38.07-.78.38-1.02l15.94-12.75c.61-.49.85-1.23.63-1.98s-.81-1.25-1.59-1.34l-20.08-2.29c-.39-.05-.73-.31-.87-.68l-7.04-18.83c-.27-.73-.9-1.18-1.68-1.22-.75-.03-1.44.36-1.77,1.07l-8.78,18.44c-.17.35-.51.58-.9.6l-20.39,1.13c-.78.04-1.4.51-1.66,1.24s-.08,1.48.49,2.01l14.75,13.65c.29.27.41.68.3,1.06l-5.49,19.45c-.21.75.03,1.49.64,1.98.62.49,1.39.55,2.07.17l17.84-9.92c.34-.19.76-.17,1.09.04l16.99,10.99Z"/>
  </g>
  <g>
    <rect class="cls-28" x="41.19" y="363.92" width="161.21" height="93.23" rx="16.92" ry="16.92"/>
    <path class="cls-17" d="M185.48,458.56H58.11c-10.11,0-18.33-8.22-18.33-18.33v-59.39c0-10.1,8.22-18.33,18.33-18.33h127.37c10.11,0,18.33,8.22,18.33,18.33v59.39c0,10.11-8.22,18.33-18.33,18.33ZM58.11,365.33c-8.55,0-15.51,6.96-15.51,15.51v59.39c0,8.55,6.96,15.51,15.51,15.51h127.37c8.55,0,15.51-6.96,15.51-15.51v-59.39c0-8.55-6.96-15.51-15.51-15.51H58.11Z"/>
  </g>
  <g>
    <g>
      <circle class="cls-28" cx="273.44" cy="410.54" r="26.89"/>
      <path class="cls-30" d="M273.44,438.49c-15.41,0-27.95-12.54-27.95-27.95s12.54-27.95,27.95-27.95,27.95,12.54,27.95,27.95-12.54,27.95-27.95,27.95ZM273.44,384.7c-14.25,0-25.84,11.59-25.84,25.84s11.59,25.84,25.84,25.84,25.84-11.59,25.84-25.84-11.59-25.84-25.84-25.84Z"/>
    </g>
    <g>
      <polyline class="cls-28" points="281.25 417.27 273.44 410.54 273.44 389.83"/>
      <path class="cls-30" d="M281.25,418.32c-.25,0-.49-.08-.69-.26l-7.81-6.73c-.23-.2-.37-.49-.37-.8v-20.71c0-.58.47-1.06,1.06-1.06s1.06.47,1.06,1.06v20.23l7.44,6.41c.44.38.49,1.05.11,1.49-.21.24-.5.37-.8.37Z"/>
    </g>
  </g>
  <g>
    <path class="cls-12" d="M560.18,716.44c2.02,1.72,3.71,3.72,5.06,6.02.5.86,1.14,1.64,1.71,2.45.28.58.62,1.13.84,1.73.83,2.25,2.07,4.47,2.3,6.79.25,2.53-.44,5.16-.73,7.75-1.79-.96-3.62-.87-5.51-.28-.88.27-1.81.41-2.73.5-6.57.69-13.14,1.48-19.73,1.99-6.19.47-12.4.63-18.59.93.21-.24.45-.47.61-.73,1.03-1.68,2.03-3.38,3.05-5.07,1.4-3.1,2.12-6.31,1.41-9.72-.07-.31-.15-.63-.21-.94-.52-2.45-2.53-3.94-4.84-3.36-1.42.35-2.47,1.36-3.44,2.5-2.4,2.85-3.56,6.16-4.03,9.78-.05.56-.12,1.11-.13,1.67-.04,1.72.07,3.42,1.06,4.92.17.4.35.79.52,1.19-5.07,0-10.13.07-15.2,0-3.34-.05-6.67-.22-10-.48-1.68-.13-3.09.3-4.42,1.23-.78-.63-1.86-1.11-2.27-1.93-1.7-3.35-2.96-6.85-1.55-10.66.91-2.46,1.9-4.88,2.85-7.32.79-1.29,1.53-2.61,2.38-3.86.49-.71,1.15-1.3,1.74-1.94,3.97-1.99,8.25-3.08,12.58-3.8,6.01-1,12.04-1.85,18.09-2.54,8.25-.93,16.53-.57,24.77.18,4.9.45,9.8,1.1,14.41,3.01ZM500.05,733.67c.81-2.05,1.7-4.07,2.39-6.17.31-.95.21-2.03.3-3.05-.24-3.55-3.16-5.36-6.21-3.08-3.37,2.51-4.93,6.12-5.76,10.11-.35,2.23-.67,4.46.52,6.57.97,2.41,3.08,3.16,4.88,1.32,1.58-1.62,2.61-3.78,3.89-5.7Z"/>
    <path class="cls-12" d="M486.21,725.39c-.95,2.44-1.95,4.86-2.85,7.32-1.41,3.82-.15,7.31,1.55,10.66.42.82,1.5,1.29,2.27,1.93,1.81,1.34,3.44,3.11,5.46,3.95,6.34,2.63,12.82,4.91,19.78,5.41,3.3.24,6.57.83,9.87,1.01,2.65.14,5.32-.09,7.99-.19,2.3-.08,4.65.09,6.88-.35,7.43-1.46,15.07-2.17,21.89-5.89,1.59-.87,3.34-1.47,4.8-2.5,1.53-1.09,2.82-2.53,4.17-3.86.51-.5.9-1.12,1.35-1.69.28-2.59.98-5.21.73-7.75-.23-2.32-1.47-4.54-2.3-6.79-.22-.6-.56-1.15-.84-1.73,2.65,1.66,5.45,3.12,7.89,5.04,1.38,1.09,2.19,2.91,3.26,4.4.3.82.83,1.64.84,2.47.03,1.77-.15,3.55-.39,5.3-.1.7-.47,1.45-.92,2.01-1.25,1.52-2.53,3.05-3.97,4.4-1.22,1.14-2.6,2.13-4.03,3-1.34.81-2.84,1.36-4.25,2.06-3.98,1.98-8.02,3.72-12.49,4.42-3.66.57-7.27,1.51-10.91,2.27-.95.2-1.9.44-2.86.48-5.4.21-10.81.31-16.2.54-5.79.25-11.4-1.06-17.07-1.79-4.04-.52-8.08-1.05-11.86-2.76-2.09-.95-4.26-1.74-6.44-2.47-2.57-.86-4.76-2.23-6.84-3.97-3.19-2.67-6.32-5.19-6.62-9.84-.09-1.41-.33-2.68.48-3.92.33-.5.59-1.06.82-1.62.06-.14-.07-.37-.12-.56.56-.82.95-1.86,1.7-2.43,3.02-2.27,6.15-4.39,9.23-6.56Z"/>
    <path class="cls-17" d="M578.8,757.94c-.17,1.88-.31,3.77-.52,5.65-.04.37-.29.75-.52,1.07-1.35,1.86-2.87,3.62-4.05,5.58-1.63,2.69-4.31,3.91-6.83,5.39-2.47,1.45-4.94,2.9-7.43,4.31-.62.35-1.31.63-2.01.81-5.42,1.43-10.84,2.88-16.29,4.19-1.67.4-3.43.5-5.15.58-3.46.15-6.93.18-10.4.28-1.29.04-2.57.14-3.86.24-3.56.26-6.97-.7-10.42-1.27-3.82-.63-7.64-1.29-11.41-2.14-1.7-.38-3.32-1.21-4.93-1.94-3.42-1.55-6.81-3.15-10.2-4.76-.46-.22-.87-.59-1.23-.96-2.11-2.17-4.17-4.39-6.31-6.53-1.46-1.46-1.77-3.28-1.93-5.18.26-1.08.78-1.2,1.61-.5.77.65,1.62,1.21,2.38,1.88,2.85,2.49,5.88,4.63,9.67,5.5,1.29.29,2.49.95,3.76,1.35,2.88.91,5.74,1.89,8.67,2.58,2.23.53,4.55.66,6.83.96,3.52.46,7.03,1.16,10.57,1.32,3.9.17,7.82-.15,11.73-.28,2.7-.09,5.44.01,8.09-.4,4.38-.68,8.71-1.68,13.05-2.61,3.15-.67,6.35-1.12,9.3-2.6,3.28-1.65,6.64-3.14,9.95-4.73.57-.27,1.12-.67,1.56-1.12,2.13-2.2,4.23-4.44,6.33-6.67Z"/>
    <path class="cls-12" d="M578.8,757.94c-2.11,2.23-4.2,4.47-6.33,6.67-.44.45-.99.85-1.56,1.12-3.31,1.6-6.67,3.09-9.95,4.73-2.94,1.48-6.15,1.93-9.3,2.6-4.34.93-8.67,1.92-13.05,2.61-2.65.41-5.39.31-8.09.4-3.91.13-7.83.45-11.73.28-3.54-.16-7.05-.86-10.57-1.32-2.28-.3-4.6-.43-6.83-.96-2.93-.69-5.79-1.68-8.67-2.58-1.27-.4-2.47-1.05-3.76-1.35-3.79-.87-6.82-3.01-9.67-5.5-.76-.66-1.61-1.23-2.38-1.88-.83-.7-1.36-.58-1.61.5-.55-3.32-1.18-6.63-1.59-9.97-.12-1.02.39-2.11.61-3.17,1.76,1.63,3.52,3.27,5.29,4.9,1.92,1.76,3.8,3.58,6.39,4.35,1.04.88,2.08,1.75,3.12,2.63,2.47,1,4.92,2.03,7.4,2.99,2.18.84,4.35,1.75,6.6,2.32,2.34.59,4.76.81,7.16,1.17,3.11.47,6.21,1.21,9.33,1.31,4.83.15,9.68-.02,14.5-.28,2.84-.15,5.66-.71,8.47-1.15,1.19-.18,2.36-.53,3.55-.76,5.48-1.07,10.84-2.46,15.69-5.39,1.38-.83,2.95-1.34,4.3-2.22.97-.63,1.71-1.62,2.55-2.45,2.14-1.09,4.38-1.99,5.93-4.02,1.28-1.69,2.8-3.21,4.21-4.81.85,2.1.1,4.25.21,6.38.05.95-.13,1.9-.2,2.86Z"/>
    <path class="cls-27" d="M560.18,716.44c-4.61-1.91-9.51-2.56-14.41-3.01-8.24-.75-16.52-1.11-24.77-.18-6.05.68-12.09,1.54-18.09,2.54-4.34.72-8.61,1.81-12.58,3.8,2.07-2.72,5-4.4,7.69-6.37,1.43-1.04,2.99-1.89,4.5-2.82,5.07-2.15,10.22-4,15.71-4.74,1.04-.14,2.08-.31,3.12-.33,1.2-.02,1.49-.62,1.48-1.69-.03-4.24.02-8.48-.02-12.72-.06-7.47-.14-14.93-.24-22.39-.03-1.97-.17-3.95-.27-5.92,0-.09,0-.17,0-.26.01-.06.02-.13.01-.19,0,0,.12.01.12.01.05.07.1.14.15.21.08,4.88.17,9.76.24,14.65.03,2.1.02,4.2.05,6.3.1,7.74.23,15.49.3,23.23,0,.93.31,1.53,1.19,1.66,1.03.15,2.09.23,3.13.19,2.27-.09,2.62-.49,2.62-2.78,0-14.42,0-28.83,0-43.25.07,0,.15,0,.22-.02.02.1.03.19.05.29,0,4.43,0,8.86.01,13.3,0,9.28-.01,18.56-.03,27.84,0,.98.31,1.47,1.38,1.52,4.34.21,8.5,1.24,12.65,2.48,5.66,1.7,10.6,4.66,15.26,8.17.19.14.36.32.53.49Z"/>
    <path class="cls-17" d="M578.79,748.7c-1.41,1.6-2.92,3.12-4.21,4.81-1.55,2.04-3.79,2.93-5.93,4.02-3.17,1.59-6.34,3.19-9.53,4.75-.61.3-1.27.54-1.93.69-2.67.62-5.37,1.11-8.02,1.8-6.43,1.69-12.94,2.56-19.6,2.37-2.94-.08-5.88.14-8.82.23-.88.03-1.77.18-2.63.06-4.46-.64-8.92-1.36-13.38-2.03-3.39-.51-6.76-1.01-9.91-2.53-1.85-.89-3.82-1.52-5.73-2.27-1.04-.41-2.08-.83-3.12-1.24-2.59-.77-4.48-2.59-6.39-4.35-1.77-1.63-3.53-3.26-5.29-4.9-.24-1.2-.49-2.41-.73-3.61.77.87,1.47,1.82,2.32,2.6,1.66,1.54,3.37,3.01,5.11,4.45.83.68,1.72,1.34,2.69,1.79,1.65.76,3.37,1.36,5.06,2.01,4.74,1.81,9.4,3.78,14.55,4.37,7.68.89,15.27,2.64,23.09,2.01,3.05-.25,6.13-.12,9.19-.31,2.57-.16,5.14-.44,7.68-.86,2.78-.47,5.55-1.1,8.29-1.78,3.44-.86,6.94-1.58,10.23-2.85,3.68-1.42,7.15-3.37,10.69-5.14.59-.3,1.1-.8,1.56-1.3,2.01-2.21,3.98-4.44,5.97-6.67-.22,1.35-.18,2.78-1.22,3.86Z"/>
    <path class="cls-17" d="M580.01,744.84c-1.99,2.23-3.96,4.46-5.97,6.67-.45.5-.97,1.01-1.56,1.3-3.54,1.77-7.01,3.72-10.69,5.14-3.29,1.27-6.79,1.99-10.23,2.85-2.74.69-5.5,1.31-8.29,1.78-2.54.43-5.11.7-7.68.86-3.06.19-6.14.06-9.19.31-7.82.63-15.41-1.12-23.09-2.01-5.16-.6-9.81-2.56-14.55-4.37-1.7-.65-3.42-1.25-5.06-2.01-.97-.45-1.86-1.11-2.69-1.79-1.74-1.44-3.45-2.92-5.11-4.45-.85-.79-1.55-1.73-2.32-2.6-.39-1.99-.83-3.98-1.15-5.99-.08-.48.28-1.03.43-1.55.27.97.66,1.93.77,2.92.34,3.04,1.82,5.24,4.23,7.13,3.11,2.44,5.94,5.19,9.91,6.29,1.9.53,3.69,1.43,5.56,2.07,2.29.78,4.57,1.61,6.92,2.16,2.35.55,4.78.79,7.18,1.12,3.6.5,7.19,1.15,10.8,1.38,3.49.23,7.01.02,10.51-.03,5.85-.08,11.69-.18,17.41-1.71,6.05-1.62,12.49-1.83,18.1-5.09,1.67-.97,3.44-1.81,5.24-2.52,1.95-.76,3.48-2.01,4.83-3.54.64-.73,1.23-1.51,1.95-2.15,2.41-2.14,3.63-4.73,3.32-8.01-.06-.64.3-1.31.46-1.97.07,1.04.21,2.07.19,3.11-.02,1.56-.16,3.13-.24,4.69Z"/>
    <path class="cls-17" d="M580.06,737.04c-.16.66-.52,1.33-.46,1.97.3,3.28-.91,5.87-3.32,8.01-.72.64-1.31,1.42-1.95,2.15-1.35,1.53-2.88,2.77-4.83,3.54-1.8.7-3.57,1.55-5.24,2.52-5.61,3.26-12.04,3.47-18.1,5.09-5.72,1.53-11.56,1.63-17.41,1.71-3.51.05-7.02.25-10.51.03-3.62-.23-7.21-.88-10.8-1.38-2.4-.33-4.82-.58-7.18-1.12-2.35-.54-4.63-1.37-6.92-2.16-1.87-.64-3.66-1.55-5.56-2.07-3.97-1.1-6.8-3.86-9.91-6.29-2.4-1.88-3.88-4.09-4.23-7.13-.11-.99-.51-1.95-.77-2.92.8-1.53,1.61-3.06,2.41-4.59.04.19.18.42.12.56-.24.56-.49,1.11-.82,1.62-.81,1.25-.57,2.52-.48,3.92.3,4.65,3.44,7.17,6.62,9.84,2.08,1.74,4.27,3.11,6.84,3.97,2.18.73,4.35,1.52,6.44,2.47,3.78,1.71,7.81,2.24,11.86,2.76,5.68.73,11.28,2.04,17.07,1.79,5.4-.23,10.8-.33,16.2-.54.96-.04,1.92-.28,2.86-.48,3.64-.76,7.24-1.7,10.91-2.27,4.47-.7,8.51-2.44,12.49-4.42,1.41-.7,2.91-1.24,4.25-2.06,1.43-.87,2.81-1.86,4.03-3,1.44-1.35,2.72-2.87,3.97-4.4.46-.56.83-1.31.92-2.01.24-1.75.41-3.54.39-5.3-.01-.83-.54-1.65-.84-2.47.65.89,1.3,1.79,1.95,2.68Z"/>
    <path class="cls-17" d="M522.59,662.37c-.05-.07-.1-.14-.15-.21-1.05-1.14-2.26-2.17-3.1-3.45-.63-.96-.77-2.23-1.12-3.36.47-.83.85-1.73,1.42-2.48,1.37-1.78,3.42-2.36,5.5-2.74,4-.73,7.35.73,9.32,3.99.12,2.98-1.05,5.35-3.36,7.2-.32.26-.52.68-.77,1.03-.07,0-.15.01-.22.02-.51.08-1.03.23-1.54.21-1.99-.04-3.99-.14-5.98-.21Z"/>
    <path class="cls-10" d="M534.45,654.13c-1.96-3.26-5.31-4.72-9.32-3.99-2.08.38-4.13.96-5.5,2.74-.58.75-.95,1.65-1.42,2.48-.86-3.43,1.27-7.56,4.73-9.14,3.43-1.57,7.64-.47,9.81,2.61,1.12,1.58,1.82,3.32,1.69,5.31Z"/>
    <path class="cls-17" d="M569.38,741.18c-.45.57-.84,1.19-1.35,1.69-1.35,1.33-2.64,2.78-4.17,3.86-1.46,1.04-3.22,1.64-4.8,2.5-6.82,3.72-14.47,4.43-21.89,5.89-2.23.44-4.59.27-6.88.35-2.66.09-5.33.33-7.99.19-3.3-.17-6.57-.77-9.87-1.01-6.96-.5-13.44-2.78-19.78-5.41-2.02-.84-3.65-2.61-5.46-3.95,1.33-.94,2.74-1.36,4.42-1.23,3.33.26,6.66.43,10,.48,5.06.07,10.13.01,15.2,0,1.32,1.05,2.76,1.33,4.33.64.58-.26,1.12-.58,1.69-.88,6.2-.3,12.41-.46,18.59-.93,6.59-.5,13.15-1.3,19.73-1.99.92-.1,1.85-.23,2.73-.5,1.89-.58,3.72-.68,5.51.28Z"/>
    <path class="cls-24" d="M527.88,728.8c.71,3.41,0,6.61-1.41,9.72-.72.17-1.5.22-2.15.53-1.26.6-2.46,1.35-3.69,2.01-1.44.78-2.9,1.54-4.35,2.31-.99-1.5-1.1-3.2-1.06-4.92.01-.56.09-1.11.13-1.67,1.67-2.57,4.19-4.24,6.61-5.94,1.71-1.2,3.58-2.4,5.91-2.04Z"/>
    <path class="cls-24" d="M491.29,738.05c-1.18-2.11-.87-4.34-.52-6.57,2.6-2.94,5.5-5.46,9.27-6.79-.28,1.37-.43,2.78-.87,4.09-.74,2.15-1.67,4.23-2.52,6.33-1.78.98-3.57,1.96-5.35,2.94Z"/>
    <path class="cls-22" d="M527.88,728.8c-2.32-.36-4.2.84-5.91,2.04-2.42,1.7-4.94,3.37-6.61,5.94.47-3.62,1.63-6.93,4.03-9.78.97-1.14,2.02-2.15,3.44-2.5,2.31-.57,4.32.91,4.84,3.36.07.31.14.63.21.94Z"/>
    <path class="cls-22" d="M500.04,724.69c-3.77,1.33-6.67,3.85-9.27,6.79.83-3.99,2.39-7.6,5.76-10.11,3.05-2.28,5.97-.47,6.21,3.08-.9.08-1.8.16-2.7.24Z"/>
    <path class="cls-29" d="M516.28,743.37c1.45-.77,2.91-1.53,4.35-2.31,1.23-.67,2.42-1.42,3.69-2.01.65-.31,1.43-.36,2.15-.53-1.01,1.69-2.02,3.39-3.05,5.07-.16.27-.41.49-.61.73-.56.29-1.11.62-1.69.88-1.57.7-3.01.41-4.33-.64-.17-.4-.35-.79-.52-1.19Z"/>
    <path class="cls-24" d="M500.04,724.69c.9-.08,1.8-.16,2.7-.24-.09,1.02,0,2.1-.3,3.05-.69,2.09-1.58,4.11-2.39,6.17-1.14.48-2.27.96-3.41,1.44.85-2.11,1.79-4.19,2.52-6.33.45-1.31.59-2.72.87-4.09Z"/>
    <path class="cls-29" d="M496.64,735.11c1.14-.48,2.27-.96,3.41-1.44-1.27,1.92-2.3,4.08-3.88,5.7-1.79,1.84-3.91,1.1-4.88-1.32,1.78-.98,3.57-1.96,5.35-2.94Z"/>
    <path class="cls-24" d="M489.12,760.61c1.91.75,3.88,1.38,5.73,2.27,3.15,1.51,6.52,2.01,9.91,2.53,4.46.67,8.91,1.39,13.38,2.03.86.12,1.75-.04,2.63-.06,2.94-.09,5.88-.31,8.82-.23,6.66.19,13.17-.69,19.6-2.37,2.65-.69,5.35-1.18,8.02-1.8.66-.15,1.32-.39,1.93-.69,3.19-1.57,6.35-3.17,9.53-4.75-.84.83-1.58,1.82-2.54,2.45-1.34.88-2.92,1.39-4.3,2.22-4.85,2.93-10.21,4.32-15.69,5.39-1.19.23-2.35.58-3.55.76-2.82.43-5.64.99-8.47,1.15-4.83.26-9.68.44-14.5.28-3.12-.1-6.22-.84-9.33-1.31-2.39-.36-4.82-.58-7.16-1.17-2.25-.57-4.42-1.48-6.6-2.32-2.48-.95-4.94-1.99-7.4-2.99,0-.46,0-.93,0-1.39Z"/>
    <path class="cls-29" d="M489.12,760.61c0,.46,0,.93,0,1.39-1.04-.88-2.08-1.75-3.12-2.63,1.04.41,2.08.83,3.12,1.24Z"/>
    <path class="cls-10" d="M522.59,662.37c1.99.08,3.99.17,5.98.21.51.01,1.03-.14,1.54-.21,0,14.42,0,28.83,0,43.25,0,2.29-.34,2.69-2.62,2.78-1.04.04-2.1-.04-3.13-.19-.88-.13-1.18-.73-1.19-1.66-.07-7.74-.2-15.49-.3-23.23-.03-2.1-.02-4.2-.05-6.3-.07-4.88-.16-9.76-.24-14.65Z"/>
  </g>
  <g>
    <polyline class="cls-29" points="796.71 700.74 772.78 755.39 755.89 765.43 745.95 758.25 752.1 741.95 779.44 701.54 796.71 700.74"/>
    <g>
      <path class="cls-25" d="M815.52,634.34c-.08.09-.16.19-.25.28-.19.45-.38.9-.57,1.35-.15.27-.31.54-.46.81-.11.18-.22.36-.33.54-.09.18-.17.36-.26.54-.09.18-.18.36-.27.53.04.01-.05.05,0,.06l-.72,1.4c-.37.32-.67.76-.93,1.31-.98,2.06-2.09,4.05-3.14,6.07-.64-.27-1.27-.54-1.91-.81,1.24-2.25,2.49-4.49,3.84-6.94.04-.04.47-1.04.47-1.08.09-.18.18-.36.28-.54.09-.18.19-.36.28-.54.09-.18.18-.35.27-.53.18-.27.36-.54.55-.81.15-.27.31-.55.46-.82.01-.09.03-.18.04-.27.35-.63.71-1.25,1.06-1.88.53.44,1.07.88,1.6,1.32Z"/>
      <path class="cls-29" d="M804.57,681.83c-.56-6.13-1.34-12.21-3.97-17.84-1.64-3.53-3.65-6.86-7.45-8.59-.64-.29-1.2-.76-1.79-1.15-1.88.08-3.76.16-5.64.24l-.05.02c.8.2,1.59.48,2.4.58,4.01.5,7.17,2.29,9.2,5.88,1.42,1.71,2.28,3.68,3.08,5.75,2.38,6.08,3.02,12.4,3.09,18.83,0,.54-.04,1.07-.08,1.61-.08,1.26-.73,1.81-2.02,1.77-3.35-.12-6.71-.22-10.06-.27-2.47-.04-2.59.12-2.62,2.55,0,.39-.03.78-.27,1.18,0-.84-.05-1.67,0-2.5.09-1.28-.4-2.22-1.59-2.67-1.87-.7-2.31-2.07-2.51-3.97-.75-6.92-.93-13.99-3.6-20.55-1.4-3.45-2.83-7.02-6.52-8.85-.31-.15-.56-.44-.83-.67-1.79,0-3.58,0-5.37-.01-.56.45-1.12.91-1.67,1.36.96,0,1.98.18,2.88-.05,2.65-.69,4.53.56,6.32,2.2.45.48.98.91,1.35,1.44,2.35,3.3,3.86,7.01,4.51,10.96.75,4.62,1.17,9.3,1.62,13.96.15,1.57-.25,1.85-1.89,1.85-8.42.01-16.84.07-25.26-.02-9.35-.1-18.7-.33-28.05-.52-1.92-.04-3.85-.16-5.76-.27-.88-.05-1.34.3-1.41,1.2-.08,1.02-.19,2.04-.41,3.07-.02-.46.06-.96-.09-1.36-.29-.74-.57-1.65-1.15-2.09-1.1-.82-1.49-1.76-1.52-3.08-.12-4.56-.18-9.13-.56-13.67-.21-2.42-1.03-4.79-1.57-7.18-.71-.37-1.43-.74-2.14-1.1-.17.19-.33.38-.5.57,1.89.2,2.7,1.53,3,3.15.5,2.68,1.04,5.37,1.18,8.08.2,3.89.1,7.79.03,11.68-.04,2.25-.23,2.38-2.4,2.33-7.07-.16-14.13-.36-21.2-.54-.27.52-.7,1.01-.79,1.56-.03.22-.06.43-.09.64-.11.81-.21,1.62-.31,2.44-.03.21-.06.41-.09.62-.03.22-.06.44-.1.67-.03.19-.06.38-.1.58.01-.08.02-.16.03-.23,0-.08.01-.15.02-.23.08-1.59-.64-2.93-1.28-4.36-.41-.91-.2-2.11-.25-3.17-.02-.48,0-.95-.14-1.43-.29,3.01-.61,6.02-.86,9.04-.09,1.12-.5,1.55-1.69,1.47-1.74-.12-3.49-.08-5.23,0-.93.04-1.42-.19-1.53-1.19-.22-2.04-.51-4.08-.77-6.12-.34-1.71-1.36-2.9-2.7-4-2.43-2-3.66-4.43-3.33-7.85.51-5.33.49-10.72.63-16.09.02-.81-.33-1.63-.51-2.44-.37,1.05-.95,2.07-1.09,3.14-.78,6.11-1.45,12.24-2.16,18.36-.11,1.25-.23,2.49-.32,3.74-.34,4.45-.7,8.91-.99,13.36-.21,3.3-.45,6.6-.47,9.9-.02,2.08.23,4.18.57,6.24.11.67.74,1.53,1.36,1.81,2.52,1.12,5.11,1.55,7.74.14,1.69-.91,3.45-1.7,5.2-2.49.38-.17.92-.32,1.27-.19,1.11.41,1.98.04,2.88-.56.39-.26.89-.46,1.35-.47,6.25-.21,12.51-.4,18.76-.53.62-.01,1.32.26,1.84.61,1.28.88,2.56.78,3.96.41.92-.24,1.93-.47,2.85-.35,4.56.6,9.11,1.33,13.66,2.01,6.9,1.38,13.79,2.75,20.69,4.13.26.05.52.11.78.16.82.18,1.65.36,2.48.53,2.5.61,5,1.22,7.49,1.84,1.3-1.97,2.62-3.92,3.9-5.91,3-4.65,5.99-9.31,8.98-13.97.36-.27.71-.54,1.07-.81,3.17-.62,6.33-1.25,9.5-1.86,1.13-.22,2.27-.4,3.41-.59,1.27-1.06,2.53-2.11,3.8-3.17,4.08-1.74,7.76-.58,11.29,1.6.45.19.91.38,1.36.57.15-.56.3-1.12.45-1.67.1-.09.2-.19.3-.28h0c-1.34-2.83-1.27-5.93-1.55-8.93ZM669.92,704.94c.41-7.93-.53-15.98,1.89-23.7.25.02.49.05.74.07-.45,7.92-1.24,15.8-2.63,23.63Z"/>
      <path class="cls-12" d="M796.45,699.66c-4.25.83-8.52,1.58-12.75,2.51-2.31.51-4.04.1-5.48-1.92-.88-1.24-2.17-2.2-3.28-3.28-2.99,4.66-5.98,9.32-8.98,13.97-1.28,1.98-2.6,3.94-3.9,5.91-.98,1.62-1.95,3.24-2.92,4.87-.19.27-.37.53-.56.8-.36.61-.71,1.23-1.09,1.83-.86,1.34-2.1,1.4-2.96.06-1.56-2.44-3.02-4.94-2.38-8.04,0-.37-.01-.73-.02-1.09l-.05-.79c-.26-.05-.52-.11-.78-.16-6.9-1.38-13.79-2.75-20.69-4.13-.61,1.39-1.24,2.78-1.82,4.18-1.2,2.93-2.76,5.72-2.96,9-.09,1.45.2,2.54,1.55,3.24.42.22.92.53,1.1.94,1.32,3,3.82,4.93,6.21,6.93,2.5,2.08,5.06,4.09,7.71,5.97,1.05.74,2.41,1.03,3.7,1.56-.16.34-.32.65-.45.98-.91,2.32-1.88,4.61-2.68,6.97-.21.64-.07,1.53.2,2.18.84,2.07,1.82,4.08,2.75,6.12.64-.77,1.42-1.48,1.92-2.34,1.5-2.58,2.77-5.31,4.36-7.83,6.48-10.26,13.04-20.47,19.56-30.7,2.65-4.15,5.26-8.33,7.96-12.45.39-.6,1.13-1.2,1.81-1.33,5.04-1.02,10.1-1.92,15.16-2.86-.09-.36-.18-.71-.27-1.07ZM752.83,731.66c-.67.99-1.36,1.97-2.04,2.95-.27.45-.53.91-.79,1.36-.47.78-.95,1.57-1.43,2.38-1.9-1.75-2.26-3.66-1.28-6.18.26-.18.53-.36.79-.55,1.16-1.1,2.6-1.28,4.08-1.2.74.04,1.23.41.67,1.23Z"/>
      <path class="cls-29" d="M794.38,759.67c-.43-3.58-2.25-6.31-5.37-8.2-1.96-1.18-4.11-1.59-6.29-1.59-4.08,0-7.8,1.45-11.23,3.55-.23.14-.46.29-.69.44-.23.15-.46.3-.68.45-.23.15-.45.31-.68.47-.67.47-1.34.95-2,1.44-.44.32-.89.64-1.34.96-1.59,2.29-3.2,4.57-4.75,6.89-1.13,1.69-1.72,1.77-3.18.38-.71-.68-1.52-1.27-2.29-1.9-.28,1.52-.56,3.04-.84,4.57-.02,1.2-.14,2.41-.05,3.6.32,4.1,2.45,7.41,4.78,10.61.81,1.12,1.55,2.42,2.63,3.19,5.04,3.57,10.53,3.54,15.96,1.19,4.79-2.07,8.72-5.38,11.74-9.72,2.22-3.19,4.03-6.54,4.5-10.47-.06-1.95.02-3.92-.21-5.85ZM772.18,763.12c.42-.51.96-.92,1.45-1.38,2.24-1.44,3.71-1.29,5.13.54.14.33.41.66.39.97-.04.95-.19,1.9-.3,2.85-.84-.11-1.69-.16-2.51-.35-1.21-.28-2.38-.7-3.58-1.01-1.16-.3-1.35-.71-.58-1.62ZM786.22,772.66c-1.49,2.17-2.68,4.55-4.96,6.08-2.99,2-6.13,3.26-9.83,2.63-2.82-.48-5.45-3.03-5.9-5.86-.25-1.56-.66-3.13.18-4.73.16,3.39,2.8,5.46,6.48,4.8,1.94-.35,3.96-.99,5.59-2.05,2.52-1.63,4.98-3.48,6.4-6.32.57-1.13,1.07-1.13,1.88-.15,1.82,2.2,1.8,3.23.16,5.61Z"/>
      <path class="cls-29" d="M838.79,738.49c-1.31-2.53-4.68-4.66-7.52-4.53-2.67.12-5.09.98-7.36,2.28-3.53,2.02-6.3,4.81-8.18,8.45-.27.51-.56,1.02-.94,1.46-.65.76-1.42,1.04-2.35.38-.62-.44-1.33-.74-1.95-1.19-.84-.6-1.55-.61-2.17.27-.09.27-.18.55-.27.82-.08.75-.16,1.51-.25,2.26-.37,2.95.07,5.75,1.27,8.48,1.46,3.31,4.23,5.36,6.95,7.46,3.4,2.63,7.32,2.68,10.89.92,7.87-3.86,12.21-10.44,13.36-19.12-.03-2.73-.16-5.41-1.48-7.95ZM825.59,744.11c1.54.63,2.19,2.63,1.37,4.43-1.84-.55-3.69-1.11-5.62-1.68.64-2.27,2.95-3.28,4.25-2.75ZM834.19,752.71c-.84,3.83-5.53,8.34-9.43,8.84-3.68.46-5.9-1.74-6.73-5.1-.21-.84-.16-1.74-.23-2.61.06-.01.12-.02.19-.03.06.15.15.29.19.45.45,2.32,1.19,2.95,3.55,2.55,1.24-.21,2.61-.6,3.57-1.36,1.76-1.38,3.28-3.08,4.86-4.69.57-.58.59-1.88,1.88-1.43,1.3.46,2.41,2.27,2.17,3.38Z"/>
      <path class="cls-17" d="M836.5,731.12c-.36.72-.72,1.43-1.07,2.15-.81-.46-1.66-.86-2.44-1.37-4.75-3.19-9.49-3.06-14.23,0-.62.36-1.25.71-1.87,1.07-.06-.71-.09-1.43-.19-2.13-.88-6.15-1.79-12.3-2.66-18.45-.69-4.87-1.33-9.74-1.99-14.61,3.24-.68,6.49-1.34,9.72-2.03,2.1-.45,2.19-.43,2.98,1.58,3.44,8.75,6.81,17.52,10.32,26.24.99,2.46,1.65,4.9,1.42,7.56Z"/>
      <path class="cls-24" d="M827.37,670.11c2.78,5.45,4.45,11.18,4.29,17.36-.04,1.38-.16,2.76-.24,4.14-.63,2.42-1.27,4.84-1.9,7.26-.14-1.29-.24-2.58-.45-3.86-.25-1.61-1.41-2.73-3.02-2.62-1.02.07-1.37-.42-1.48-1.1-.31-1.79-.59-3.61-.66-5.42-.26-6.16-1.06-12.2-3.78-17.82-.69-1.42-1.62-2.73-2.49-4.06-.56-.85-1.21-1.65-1.81-2.47,2.64,2.29,5.14,4.76,8.48,6.09.55.22.96.77,1.44,1.17.54.45,1.09.89,1.64,1.34Z"/>
      <path class="cls-10" d="M808.32,745.62c-.09.27-.18.55-.27.82-3.76,1.5-7.53,3.01-11.3,4.5-.54.21-1.1.39-1.64.58.12-.52.27-1.03.37-1.56.4-2.09.92-4.16,1.14-6.27.1-1.01.4-1.48,1.3-1.86,1-.42,1.9-1.06,2.85-1.61,1.35-.96,2.69-1.93,4.04-2.89.99-.9,1.98-1.8,2.97-2.7.08-.01.16-.03.24-.04,1.15,1.35,2.3,2.69,3.45,4.04-1.05,2.33-2.1,4.66-3.15,6.99Z"/>
      <path class="cls-20" d="M808.32,745.62c1.05-2.33,2.1-4.66,3.15-6.99.91-1.25,1.83-2.49,2.74-3.74.89-.64,1.78-1.28,2.68-1.93.62-.36,1.25-.71,1.87-1.07,1.16.58,2.33,1.13,3.47,1.76,1.17.64,2.35.76,3.62.38,3.37-.99,6.74-1.34,10.11.03.83.87,1.82,1.64,2.46,2.64,1.9,2.97,2.49,6.25,1.86,9.73-.03-2.73-.16-5.41-1.48-7.95-1.31-2.53-4.68-4.66-7.52-4.53-2.67.12-5.09.98-7.36,2.28-3.53,2.02-6.3,4.81-8.19,8.45-.27.51-.56,1.02-.94,1.46-.65.77-1.42,1.04-2.35.38-.62-.43-1.33-.74-1.95-1.19-.84-.6-1.55-.61-2.17.27Z"/>
      <path class="cls-12" d="M800.77,740.23c-.94.55-1.85,1.19-2.85,1.61-.9.38-1.2.85-1.3,1.86-.22,2.11-.73,4.18-1.14,6.27-.1.52-.25,1.04-.37,1.56-.9.29-1.81.58-2.71.88-.08-.02-.15-.04-.23-.06-.44-.56-.8-1.21-1.32-1.67-2.04-1.8-4.13-3.54-6.2-5.3,2.13-.61,4.28-1.17,6.39-1.85,3.25-1.05,6.48-2.18,9.72-3.28Z"/>
      <path class="cls-29" d="M815.81,661.51c.61.82,1.26,1.62,1.81,2.47.87,1.33,1.8,2.64,2.49,4.06,2.73,5.62,3.52,11.66,3.78,17.82.08,1.82.36,3.63.66,5.42.11.68.46,1.17,1.48,1.1,1.61-.12,2.77,1.01,3.02,2.62.2,1.28.3,2.57.45,3.86-.54,1.34-1.08,2.67-1.62,4.01-.23-.48-.49-.95-.7-1.44-1.01-2.47-2.01-4.95-3.01-7.43-.1-.08-.19-.17-.29-.25-1-.89-2.01-1.79-3.01-2.68,1.38.13,1.8-.52,1.95-1.87.35-3.19.02-6.32-.29-9.49-.44-4.45-2.02-8.52-3.78-12.53-.4-.91-1.22-1.62-1.85-2.43-1.17-1.35-2.34-2.69-3.52-4.04.1-.33.2-.66.3-.99.7.6,1.41,1.19,2.11,1.79Z"/>
      <path class="cls-19" d="M835.96,734.07c-3.36-1.37-6.74-1.02-10.11-.03-1.27.37-2.45.26-3.62-.38-1.13-.63-2.31-1.18-3.47-1.76,4.74-3.06,9.48-3.19,14.23,0,.77.52,1.62.92,2.44,1.37.18.27.36.54.53.8Z"/>
      <path class="cls-10" d="M824.19,694c1,2.48,2,4.96,3.01,7.43.2.49.46.96.7,1.44.56,1.24,1.17,2.47,1.67,3.74.27.68.26,1.47.52,2.15,2.16,5.64,4.39,11.24,6.51,16.89.67,1.78.78,3.66-.1,5.47.23-2.65-.43-5.1-1.42-7.56-3.51-8.72-6.89-17.49-10.32-26.24-.79-2-.87-2.02-2.98-1.58-3.24.69-6.48,1.36-9.72,2.03,0-.44-.01-.88-.02-1.33,4.05-.82,8.11-1.64,12.16-2.45Z"/>
      <path class="cls-29" d="M743.77,741.81c-7.12,1.08-12.22-4.03-13.78-10.26,4.77,3.47,8.25,8.25,13.78,10.26Z"/>
      <path class="cls-10" d="M792.18,752.34c.08.02.15.04.23.06,1.36,2.32,2.58,4.7,2.56,7.46-.02,1.89-.24,3.77-.37,5.66-.06-1.95.02-3.92-.21-5.85-.43-3.58-2.25-6.31-5.37-8.2-1.96-1.18-4.11-1.59-6.29-1.59-4.08,0-7.8,1.45-11.23,3.55-1.86,1.14-3.6,2.49-5.39,3.75.25-.36.43-.83.77-1.07,2.2-1.58,4.44-3.12,6.66-4.67.58-.4,1.13-.83,1.7-1.25.51-.15,1.02-.32,1.54-.44,5.14-1.22,10.17-1.67,14.57,2.15.23.2.55.29.83.43Z"/>
      <path class="cls-18" d="M813.42,631.64c.37-1.59,1.35-2.58,2.59-2.62,1.18-.04,2.33.72,2.49,1.97.1.73-.35,1.54-.55,2.31-.69-2.02-2.37-2.63-4.54-1.66Z"/>
      <path class="cls-29" d="M813.42,631.64c2.17-.98,3.85-.37,4.54,1.66-.81.35-1.63.69-2.44,1.04-.53-.44-1.07-.88-1.6-1.32-.17-.46-.33-.92-.5-1.38Z"/>
      <path class="cls-6" d="M680.1,685.44c-.34-1.71-1.36-2.9-2.7-4-2.43-2-3.66-4.43-3.33-7.85.51-5.33.49-10.72.63-16.08.02-.81-.33-1.63-.51-2.44,2.2-1.88,6.17-2.23,8.83-.77,1.21.67,2.43,1.34,3.61,2.07,1.09.67,2.16,1.21,3.52.99.4-.07,1.02.06,1.25.34.98,1.19,2.33,1.2,3.65,1.31,5.87.5,11.75.97,17.62,1.45,1.89.2,2.7,1.53,3,3.15.5,2.68,1.04,5.37,1.18,8.08.2,3.89.1,7.79.03,11.68-.04,2.25-.23,2.38-2.4,2.33-7.07-.16-14.13-.36-21.2-.54.04-.31.11-.62.11-.93.05-3.52.1-7.05.13-10.57.02-2.4.01-4.81.01-7.21,0-.89-.14-1.69-1.49-1.86-.17,1.92-.29,3.77-.52,5.6-.1.79-.43,1.56-.65,2.34,0-2.76,0-5.52,0-8.29-.09,0-.19,0-.28,0v1.84c-1.99-.9-3.99-1.79-5.96-2.72-2.25-1.06-2.38-1.02-2.58,1.51-.49,6.22-.93,12.45-1.43,18.67-.05.64-.34,1.27-.52,1.9Z"/>
      <path class="cls-26" d="M766.31,654.53c.96,0,1.97.18,2.88-.05,2.65-.69,4.53.56,6.32,2.2-3.45.5-6.9,1.04-10.35,1.49-8.73,1.15-17.46,2.34-26.2,3.38-5.99.71-12.01,1.19-18.01,1.81-.56.06-1.09.38-1.63.58-.05.14-.11.28-.16.41-1.28-1.13-2.56-2.25-3.85-3.38-.71-.37-1.43-.74-2.14-1.11,1.7-.47,3.34-.84,5.02.26.59.39,1.56.3,2.35.26,13.43-.78,26.78-2.36,40.04-4.64,1.92-.33,3.82-.81,5.73-1.22Z"/>
      <path class="cls-17" d="M814.19,658h0c-.08.37-.17.74-.25,1.11-.08.2-.16.4-.24.61-.1.33-.2.66-.3.99-1.53.73-3.15.78-4.72.33-2.96-.85-5.89-1.81-8.81-2.78-.52-.17-.89-.74-1.39-1-2.27-1.2-4.56-2.37-6.84-3.55.18-.63.36-1.25.55-1.88,3.37.63,6.78,1.08,10.09,1.92,2.3.59,4.62,1.16,6.87,1.94.25.09.5.18.74.27.37.14.74.28,1.11.44,1.1.46,2.17.99,3.21,1.62Z"/>
      <path class="cls-26" d="M785.67,654.51c.8.2,1.59.48,2.4.58,4.01.5,7.17,2.3,9.2,5.88-3.99-.34-7.99-.64-11.98-1.06-.69-.07-1.34-.64-1.96-1.06-.72-.48-1.34-1.13-2.09-1.55-1.2-.66-2.49-1.15-3.71-1.79-1.41-.74-2.78-1.56-4.17-2.34-1.79,0-3.58,0-5.37-.01,2.69-.25,5.37-.58,8.06-.69.71-.03,1.5.51,2.17.93,2.34,1.46,4.87,1.43,7.45,1.11Z"/>
      <path class="cls-25" d="M808.76,653.49c-.03.09-.06.19-.09.28.87.3,1.78.53,2.6.94.44.22.71.76,1.06,1.15-2.69-.82-5.36-1.74-8.08-2.44-3.19-.81-6.44-1.43-9.67-2.14.62-.22,1.25-.63,1.86-.61,1.01.04,2,.36,3.06.28-1.95-.41-3.9-.83-6.04-1.29.87-.53,1.54-.93,2.21-1.34,6.67-.53,12.76.67,17.47,5.92.31.2.62.4.93.59-.05.11-.1.22-.15.33-1.72-.56-3.44-1.13-5.16-1.69Z"/>
      <path class="cls-26" d="M791.63,653.7c2.28,1.18,4.57,2.34,6.84,3.55.5.27.87.83,1.39,1,2.92.98,5.85,1.93,8.81,2.78,1.57.45,3.19.4,4.72-.33,1.17,1.35,2.34,2.69,3.52,4.04-.53-.07-1.07-.11-1.59-.21-4.24-.81-8.49-1.63-12.72-2.47-.41-.08-.84-.3-1.16-.57-.86-.7-1.74-1.41-2.5-2.21-2.14-2.27-4.58-4.07-7.58-5.03-1.88.08-3.76.16-5.64.24,1.97-.26,3.94-.53,5.91-.79Z"/>
      <path class="cls-12" d="M808.57,647.24c-.64-.27-1.27-.54-1.91-.81-2.31-.41-4.6-.84-6.92-1.19-.43-.06-.97.16-1.35.41-.47.31-.83.78-1.23,1.18-.5.5-.99,1-1.49,1.5,6.67-.53,12.76.67,17.47,5.92.04-3.36-1.88-5.44-4.57-7.01ZM800.81,647.25c-.05-.21-.1-.41-.15-.62.85-.17,1.7-.34,2.56-.51.04.16.08.32.12.48l-2.52.65Z"/>
      <path class="cls-12" d="M814.19,658h0c-1.03-.63-2.11-1.16-3.21-1.62-.37-.15-.74-.3-1.11-.44-.25-.09-.5-.18-.74-.27-2.25-.78-4.57-1.35-6.87-1.94-3.31-.84-6.72-1.29-10.09-1.92.64-.89,1.51-.77,2.4-.53,3.22.7,6.47,1.32,9.67,2.14,2.72.7,5.39,1.62,8.08,2.44.18.15.39.28.6.41.05.03.1.06.16.09.05.03.1.06.16.1.08.05.15.1.22.15.02.02.05.04.07.05.05.03.09.07.13.11.32.28.54.64.52,1.22Z"/>
      <path class="cls-26" d="M827.37,670.11c-.55-.45-1.09-.89-1.64-1.34-.48-.4-.89-.95-1.44-1.17-3.34-1.33-5.84-3.8-8.48-6.09-.7-.6-1.41-1.2-2.11-1.79.08-.2.16-.41.24-.61,1.61.89,3.21,1.78,4.82,2.68,3.28,1.48,5.72,3.93,7.77,6.81.33.47.57,1,.85,1.51Z"/>
      <path class="cls-6" d="M715.31,660.97c1.28,1.13,2.56,2.25,3.85,3.38.05-.14.11-.28.16-.41.54-.2,1.07-.52,1.63-.58,6-.62,12.02-1.1,18.01-1.81,8.74-1.04,17.47-2.23,26.2-3.38,3.46-.46,6.9-.99,10.35-1.49.45.48.98.91,1.35,1.44,2.35,3.3,3.86,7.01,4.51,10.96.75,4.62,1.18,9.3,1.62,13.96.15,1.57-.25,1.85-1.9,1.85-8.42.01-16.84.07-25.26-.02-9.35-.1-18.7-.33-28.05-.52-1.92-.04-3.84-.16-5.76-.27-.88-.05-1.34.3-1.41,1.2-.08,1.02-.19,2.04-.41,3.07-.02-.46.07-.96-.09-1.36-.29-.74-.57-1.65-1.15-2.08-1.1-.82-1.49-1.76-1.52-3.08-.12-4.56-.18-9.13-.57-13.67-.2-2.42-1.03-4.79-1.57-7.18Z"/>
      <path class="cls-24" d="M773.35,653.18c1.39.78,2.76,1.6,4.17,2.34,1.22.64,2.51,1.13,3.71,1.79.75.42,1.37,1.07,2.09,1.55.62.41,1.28.98,1.96,1.06,3.98.42,7.98.72,11.98,1.06,1.42,1.71,2.27,3.68,3.08,5.75,2.38,6.08,3.02,12.4,3.09,18.83,0,.54-.04,1.07-.08,1.61-.08,1.26-.73,1.81-2.01,1.77-3.35-.12-6.71-.22-10.06-.27-2.47-.04-2.59.11-2.62,2.55,0,.39-.03.78-.27,1.18,0-.84-.04-1.67.01-2.5.08-1.28-.4-2.22-1.59-2.66-1.87-.7-2.31-2.07-2.51-3.97-.75-6.92-.93-13.99-3.59-20.55-1.4-3.45-2.83-7.02-6.53-8.85-.31-.15-.56-.44-.83-.67Z"/>
      <path class="cls-24" d="M791.36,654.25c3,.96,5.43,2.77,7.58,5.03.76.81,1.64,1.51,2.5,2.21.33.27.75.49,1.16.57,4.24.84,8.48,1.66,12.72,2.47.52.1,1.06.14,1.59.21.63.8,1.45,1.52,1.85,2.43,1.76,4.02,3.34,8.08,3.78,12.53.32,3.17.64,6.3.29,9.49-.15,1.35-.57,2-1.95,1.87-1.52-1.03-2.8-2.59-4.97-2.14-1.83.38-3.67.7-5.51,1.05-1.43.26-2.86.52-4.29.79-1.34-2.83-1.27-5.93-1.55-8.93-.56-6.13-1.34-12.21-3.97-17.84-1.64-3.53-3.65-6.86-7.46-8.59-.64-.29-1.2-.76-1.79-1.15Z"/>
      <path class="cls-24" d="M690.87,672.53c.23-.78.55-1.54.65-2.34.23-1.84.35-3.69.52-5.6,1.35.17,1.49.97,1.49,1.86,0,2.4.01,4.81-.01,7.21-.03,3.52-.08,7.05-.13,10.57,0,.31-.07.62-.11.93-.27.52-.7,1.01-.79,1.56-.27,1.71-.4,3.44-.73,5.19.37-1.89-.47-3.43-1.19-5.06-.41-.92-.2-2.11-.25-3.17-.02-.48,0-.95-.14-1.43-.29,3.01-.61,6.03-.86,9.04-.09,1.11-.5,1.55-1.69,1.47-1.74-.12-3.49-.08-5.23,0-.93.04-1.42-.19-1.53-1.18-.22-2.04-.51-4.08-.78-6.12.18-.63.47-1.26.52-1.9.5-6.22.94-12.44,1.43-18.67.2-2.52.32-2.56,2.58-1.51,1.98.93,3.98,1.81,5.96,2.72,0,2.94,0,5.88,0,8.82.09,0,.19,0,.28,0,0-.79,0-1.58,0-2.37Z"/>
      <path class="cls-17" d="M812.03,696.46c0,.44.01.88.02,1.33.66,4.87,1.3,9.74,1.99,14.61.87,6.15,1.78,12.3,2.66,18.45.1.71.13,1.42.19,2.13-.89.64-1.78,1.28-2.68,1.93-.77-1.24-1.59-2.45-2.3-3.72-.48-.87-.81-1.82-1.21-2.74.3-4.03-.59-7.93-1.35-11.84-.51-2.32-.55-4.55,1.23-6.44.11-.11.09-.34.14-.51,2.17-4,1.81-7.94-.29-11.84-.89-.9-1.79-1.8-2.68-2.7-.79-.79-1.58-1.59-2.37-2.38.15-.56.3-1.12.45-1.67,2.07,1.8,4.14,3.61,6.21,5.41Z"/>
      <path class="cls-22" d="M805.38,692.72c.79.79,1.58,1.59,2.37,2.38-2.83-1.53-5.73-2.41-8.85-.73.82.33,1.68.55,2.52.51,2.31-.11,4.55.09,6.59,1.27.84.49,1.61,1.09,2.42,1.64,2.1,3.9,2.46,7.84.29,11.84.08-2.17.43-4.37.16-6.49-.36-2.89-2.81-4.93-5.6-4.73-1.68.12-3.34.83-4.97,1.38-1.22.41-2.37,1-3.56,1.5-.02-.18-.03-.37-.05-.55-.09-.36-.18-.72-.27-1.07-.34-.27-.68-.54-1.01-.81-1.21-1.23-2.34-2.56-3.66-3.67-.8-.67-1.89-.99-2.85-1.47,1.27-1.06,2.53-2.11,3.8-3.17,1.95.92,3.72,2.35,6.1,2.05,1.72-.22,3.46-.31,5.19-.45.45.19.91.38,1.36.57Z"/>
      <path class="cls-11" d="M812.03,696.46c-2.07-1.8-4.14-3.61-6.21-5.41.1-.09.2-.18.3-.28,1.43-.26,2.86-.52,4.29-.79,1.14.19,2.27.42,3.42.57,3.42.45,6.99.39,9.71,3.05.09.09.24.1.37.16.1.08.19.17.29.25-4.05.82-8.11,1.64-12.16,2.45Z"/>
      <path class="cls-11" d="M795.43,698.86c.34.27.68.54,1.01.81-4.25.83-8.52,1.58-12.75,2.51-2.31.51-4.04.1-5.48-1.92-.88-1.24-2.17-2.19-3.28-3.28.36-.27.71-.54,1.07-.81.93.1,1.86.19,2.78.32,5.55.78,11.09,1.58,16.64,2.37Z"/>
      <path class="cls-10" d="M795.43,698.86c-5.55-.79-11.09-1.58-16.64-2.37-.92-.13-1.85-.21-2.78-.32,3.17-.62,6.33-1.25,9.5-1.87,1.13-.22,2.27-.39,3.41-.59.96.48,2.05.8,2.85,1.47,1.32,1.1,2.45,2.43,3.66,3.67Z"/>
      <path class="cls-24" d="M669.92,704.94c.42-7.92-.53-15.98,1.89-23.7.25.02.49.05.74.07-.45,7.92-1.24,15.8-2.63,23.62Z"/>
      <path class="cls-27" d="M804.02,692.14c-1.73.15-3.47.23-5.19.45-2.39.3-4.15-1.13-6.1-2.05,4.08-1.74,7.76-.58,11.29,1.6Z"/>
      <path class="cls-19" d="M754.57,715.02l3.46,4.54c-1.56-1.98-3.38-3.61-5.89-4.29-.02-.26-.03-.53-.05-.79.83.18,1.65.36,2.48.53Z"/>
      <path class="cls-29" d="M796.77,701.29c1.18-.51,2.34-1.09,3.56-1.5,1.63-.55,3.29-1.26,4.97-1.38,2.79-.2,5.24,1.84,5.6,4.73.26,2.13-.09,4.33-.16,6.49-.04.17-.03.4-.14.51-1.78,1.89-1.74,4.12-1.23,6.44-1.87.41-3.72.73-5.58-.1-.38-.17-.94.09-1.42.15-1.58.23-3.16.45-4.74.68-.87.13-1.89.02-2.57.45-1.89,1.18-3.99,1.41-6.08,1.76.88-2.15,1.72-4.31,2.63-6.44,1.7-3.94,3.45-7.87,5.17-11.8Z"/>
      <path class="cls-20" d="M775.23,750.2c-.57.42-1.13.84-1.7,1.25-2.22,1.56-4.46,3.09-6.66,4.67-.34.24-.52.71-.77,1.07-1.59,2.29-3.2,4.57-4.75,6.89-1.13,1.69-1.71,1.77-3.18.38-.72-.68-1.52-1.27-2.28-1.9,1.64-5.29,4.5-9.73,8.99-13.05.93-.69,1.89-1.34,2.83-2.01.91.53,1.95.91,2.69,1.61,1.44,1.39,2.98,1.81,4.84,1.09Z"/>
      <path class="cls-19" d="M775.23,750.2c-1.86.72-3.39.3-4.84-1.09-.73-.71-1.78-1.09-2.69-1.61,2.13-.9,4.22-1.96,6.41-2.67,3.54-1.15,7.07-.56,10.53.54,2.07,1.76,4.16,3.5,6.2,5.3.52.46.89,1.11,1.32,1.67-.28-.14-.6-.24-.83-.43-4.4-3.82-9.43-3.37-14.57-2.15-.52.12-1.03.29-1.54.44Z"/>
      <path class="cls-12" d="M788.96,719.53c2.09-.36,4.19-.58,6.08-1.76.68-.43,1.71-.32,2.57-.45,1.58-.23,3.16-.46,4.74-.68-.98,2.14-1.95,4.28-2.93,6.42-1.06-.73-2.16-1.41-3.17-2.2-1.69-1.32-3.38-1.41-5.16-.23-.27.18-.54.35-.81.53-.95,2.73-.54,4.25,1.64,6.07.61.51,1.23,1.01,1.84,1.51-1.98.66-3.96,1.36-5.96,1.98-1.26.39-2.55.68-3.83,1.02-.13-.12-.27-.23-.4-.35,1.79-3.95,3.59-7.89,5.38-11.84Z"/>
      <path class="cls-29" d="M793.77,728.73c-.61-.5-1.23-1-1.84-1.51-2.18-1.81-2.59-3.34-1.64-6.07,1.68,1.33,3.33,2.68,5.03,3.98,4.14,3.18,8.31,6.33,12.46,9.49-.99.9-1.98,1.8-2.97,2.7-3.68-2.87-7.36-5.74-11.04-8.6Z"/>
      <path class="cls-20" d="M758.59,722.52c-.36.61-.71,1.23-1.09,1.83-.86,1.34-2.1,1.4-2.96.06-1.56-2.44-3.02-4.94-2.38-8.04,3.09,1.06,5.05,3.3,6.43,6.15Z"/>
      <path class="cls-10" d="M748.08,731.63c1.15-1.1,2.6-1.28,4.08-1.2.73.04,1.23.41.67,1.23-.67.99-1.36,1.97-2.04,2.95-.91-1-1.81-1.99-2.72-2.99Z"/>
      <path class="cls-29" d="M750,735.97c-.47.79-.95,1.57-1.43,2.38-1.9-1.74-2.26-3.66-1.28-6.18.9,1.27,1.81,2.54,2.71,3.8Z"/>
      <path class="cls-10" d="M758.59,722.52c-1.37-2.86-3.33-5.09-6.43-6.15,0-.36-.01-.73-.02-1.09,2.51.67,4.33,2.3,5.89,4.29.37.72.74,1.44,1.11,2.16-.18.27-.37.53-.55.8Z"/>
      <path class="cls-20" d="M750,735.97c-.9-1.27-1.81-2.54-2.71-3.8.26-.18.53-.36.79-.54.91.99,1.81,1.99,2.72,2.99-.26.45-.53.91-.79,1.36Z"/>
      <path class="cls-20" d="M786.06,767.05c-.81-.99-1.31-.99-1.88.15-1.42,2.84-3.88,4.69-6.4,6.32-1.63,1.06-3.66,1.71-5.59,2.05-3.68.66-6.32-1.41-6.48-4.8-.84,1.6-.43,3.17-.18,4.73.45,2.83,3.09,5.38,5.9,5.86,3.7.64,6.84-.62,9.83-2.63,2.29-1.53,3.47-3.91,4.96-6.08,1.64-2.38,1.66-3.41-.16-5.61ZM777.93,779.44c-3.79,1.81-9.17,1.45-11.38-3.28-.17-.38-.24-.81-.43-1.48,1.38.52,2.39.98,3.44,1.28,2.27.65,4.41-.09,6.54-.8,2-.67,2.32-.57,3.19,1.31.44.94-.1,2.38-1.36,2.98Z"/>
      <path class="cls-20" d="M778.75,762.29c.14.32.41.66.39.97-.04.95-.19,1.9-.3,2.85-.84-.11-1.69-.16-2.51-.35-1.21-.28-2.38-.7-3.59-1.01-1.16-.3-1.35-.71-.58-1.62.43-.51.96-.92,1.45-1.37,1.71.18,3.42.36,5.13.54Z"/>
      <path class="cls-9" d="M778.75,762.29c-1.71-.18-3.42-.36-5.13-.54,2.24-1.44,3.71-1.29,5.13.54Z"/>
      <path class="cls-20" d="M832.02,749.33c-1.29-.46-1.31.85-1.88,1.43-1.58,1.6-3.1,3.3-4.86,4.69-.96.76-2.32,1.15-3.57,1.36-2.36.4-3.11-.24-3.55-2.55-.03-.16-.12-.3-.19-.45-.06.01-.12.02-.19.03.07.87.02,1.77.23,2.61.83,3.36,3.06,5.57,6.73,5.1,3.9-.49,8.59-5,9.43-8.84.24-1.11-.87-2.92-2.17-3.38ZM826.74,759.99c-1.81,1.41-5.93.49-7.11-1.48-.17-.28-.21-.63-.27-.82,2.1-.47,4.07-1.09,6.07-1.24.69-.05,1.66.94,2.12,1.69.21.34-.32,1.47-.81,1.86Z"/>
      <path class="cls-20" d="M821.34,746.85c.65-2.27,2.95-3.28,4.25-2.75,1.54.63,2.19,2.63,1.37,4.43-1.84-.55-3.69-1.11-5.62-1.69Z"/>
      <path class="cls-29" d="M810.7,728.43c.4.92.72,1.87,1.21,2.74.71,1.27,1.53,2.49,2.3,3.72-.91,1.25-1.83,2.49-2.74,3.74-1.15-1.35-2.3-2.69-3.45-4.04.09-.35.19-.71.28-1.06.53-.99,1.07-1.97,1.6-2.96.27-.71.54-1.43.81-2.14Z"/>
      <path class="cls-20" d="M808.3,733.53c-.09.35-.19.71-.28,1.06-.08.01-.16.03-.24.04-4.16-3.16-8.32-6.32-12.46-9.49-1.7-1.3-3.36-2.65-5.03-3.98.27-.18.54-.35.81-.53.25.25.47.55.75.75,5.48,4.06,10.97,8.1,16.46,12.15Z"/>
      <path class="cls-10" d="M823.91,693.75c-.12-.05-.28-.07-.37-.16-2.72-2.66-6.29-2.61-9.71-3.05-1.14-.15-2.28-.38-3.42-.57,1.84-.35,3.68-.67,5.51-1.05,2.17-.45,3.45,1.11,4.97,2.14,1,.89,2.01,1.79,3.01,2.68Z"/>
      <path class="cls-23" d="M690.87,672.53v2.37c-.09,0-.19,0-.28,0,0-2.94,0-5.88,0-8.82,0-.61,0-1.23,0-1.84.09,0,.19,0,.28,0v8.29Z"/>
      <path class="cls-18" d="M800.67,646.64c.85-.17,1.7-.34,2.55-.51.04.16.08.32.12.48-.84.22-1.68.43-2.52.65-.05-.21-.1-.41-.15-.62Z"/>
      <path class="cls-27" d="M810.43,697.8c-.8-.55-1.58-1.16-2.42-1.64-2.04-1.18-4.28-1.38-6.59-1.27-.84.04-1.7-.18-2.52-.51,3.12-1.68,6.01-.8,8.85.73.89.9,1.79,1.8,2.68,2.7Z"/>
      <path class="cls-19" d="M799.42,723.05c3.49,2.51,6.98,5.01,10.48,7.52-.53.99-1.07,1.97-1.6,2.96-5.49-4.05-10.98-8.1-16.46-12.15-.28-.21-.5-.5-.75-.75,1.78-1.18,3.47-1.09,5.16.23,1.01.79,2.11,1.47,3.17,2.2Z"/>
      <path class="cls-7" d="M766.12,774.67c1.38.52,2.39.98,3.44,1.28,2.27.65,4.42-.09,6.53-.8,2.01-.67,2.32-.57,3.19,1.31.44.94-.1,2.38-1.36,2.98-3.79,1.81-9.17,1.45-11.38-3.28-.18-.38-.24-.81-.43-1.48Z"/>
      <path class="cls-19" d="M819.36,757.69c2.1-.47,4.07-1.09,6.07-1.24.69-.05,1.66.94,2.12,1.69.21.34-.32,1.47-.81,1.86-1.81,1.41-5.93.49-7.11-1.48-.17-.28-.21-.63-.27-.82Z"/>
    </g>
  </g>
  <g>
    <path class="cls-2" d="M116.21,643.37c-.58-.18-1.16-.51-1.74-.51-1.51-.02-3.17-.7-4.39.84.84,3.63,1.7,7.25.91,11.01-2.25,7.29-5.69,14.07-8.99,20.9-1.87,3.86-3.72,7.71-4.49,11.98-.11.44-.32.89-.31,1.33.03,5.3-.26,10.63.25,15.88.47,4.87,1.01,9.64-.57,14.38-.71-.17-1.54-.17-2.12-.55-3.72-2.39-6.8-5.51-9.84-8.67-1.44-2.65-2.85-5.31-4.34-7.93-.68-1.19-1.47-2.33-2.33-3.39-.21-.25-1.25-.27-1.31-.13-.56,1.22-1.2,2.47-1.38,3.77-.2,1.39.19,2.85.12,4.28-.32,7.06,1.44,13.57,4.94,19.66.99,1.73,1.98,3.46,2.97,5.19,1.83,3.3,4.89,4.1,8.06,2.13.69-.43,1.44-.76,2.16-1.14-.21.89-.41,1.78-.63,2.67-1.16,4.79-2.15,9.63-3.52,14.36-1.16,4-2.74,7.88-4.14,11.81-.3.76-.64,1.5-.91,2.27-1.46,4.26-3,8.51-5.73,12.15-1.79,2.39-3.57,5.01-7.2,4.63-.87.26-1.73.52-2.6.77l.05.46c.51.2,1.02.38,1.52.6,3.7,1.63,7.73,1.76,11.6,2.62,4.24.95,8.26.87,12.17-1.06.94-.46,1.89-.99,2.67-1.68,1.26-1.11,2.38-2.38,3.56-3.59,1.91-2.01,3.82-4.03,5.73-6.04,1.7-1.98,3.32-4.03,5.1-5.92,5.69-6.04,8.86-13.12,9.43-21.43.28-4.13.95-8.22,1.44-12.34,1.41,1.81,2.78,3.66,4.25,5.42,1.3,1.56,2.48,3.4,4.13,4.47,3.32,2.15,7.01,3.56,11.12,3.3,1.58-.1,3.17-.13,4.73-.35,2.37-.33,4.94-.33,7.04-1.3,4.48-2.06,8.81-4.51,13.03-7.07,3.26-1.98,5.66-4.92,7.63-8.19,1.44-3.17,3.94-6.03,3.07-10.36-1.01.68-1.82.99-2.29,1.58-2.07,2.61-4.67,4.53-7.58,6.06-6.18,3.39-12.97,3.87-19.78,3.82-3.4-.03-6.81-.69-10.18-1.28-5.29-.92-10.15-2.76-13.64-7.17-.92-1.84-1.84-3.69-2.75-5.53.09-7.16.18-14.32.27-21.48-.13-3.52-.02-7.07-.47-10.55-.51-3.94-1.61-7.8-2.29-11.72-.83-4.79-1.37-9.62-2.24-14.4-.8-4.41-1.5-8.77-.3-13.21.12-.43.07-.92.09-1.37Z"/>
    <path class="cls-5" d="M96.88,719.18c1.58-4.74,1.04-9.51.57-14.38-.51-5.25-.22-10.58-.25-15.88,0-.44.2-.89.31-1.33.27-.34.72-.63.8-1.01,1.11-5.06,3.97-9.36,6.03-14.01,2.27-5.12,4.39-10.3,6.49-15.49.28-.7.12-1.57.16-2.37.8-3.76-.06-7.39-.91-11.01,1.74.09,3.47.18,5.21.27-.14,3.2-.27,6.41-.45,9.61-.02.42-.31.82-.45,1.24-.23.68-.62,1.36-.61,2.04.04,1.32.26,2.64.49,3.95,1.76,10.06,3.53,20.12,5.31,30.18.06.34.12.88.33.97,1.2.52,1.21,1.66,1.5,2.66-.09,7.16-.18,14.32-.27,21.48,0,.61.04,1.23-.03,1.83-.24,2.21.87,4.55-.73,6.64-.18.23-.05.83.11,1.18.53,1.2,1,2.47,1.75,3.53,1.53,2.16,3.21,4.21,4.87,6.27.82,1.03,1.73,1.99,2.6,2.98,1.73,2.54,4.33,3.81,7.07,4.84,2.59.97,5.19,1.77,8.05,1.25,2.61-.47,5.24-.77,7.87-1.13,3.3-.45,5.95-2.29,8.63-4.04,3.57-1.53,6.59-3.84,9.29-6.58,1.25-1.27,2.44-2.6,3.66-3.9-1.97,3.26-4.38,6.21-7.64,8.19-4.22,2.56-8.55,5.01-13.03,7.07-2.1.97-4.67.97-7.04,1.3-1.56.22-3.15.26-4.73.35-4.11.25-7.8-1.16-11.12-3.3-1.65-1.07-2.83-2.9-4.13-4.47-1.47-1.76-2.84-3.61-4.25-5.42.02-2.65-.02-2.65-2.53-1.7-3.73,1.41-7.45,2.86-11.23,4.11-1.01.34-2.28.18-3.37-.03-2.08-.4-3.13-2.11-4.33-3.66-1.33-1.72-2.75-3.4-4.33-4.9-1.02-.96-1.52-.68-1.82.75-.36,1.7-.64,3.42-.95,5.12-.72.38-1.47.71-2.16,1.14-3.17,1.96-6.23,1.16-8.06-2.13,3.82,2.2,5.82,2.25,8.58-2.45,1.29-2.2,2.72-4.33,4.12-6.47.68-1.04,1.09-2.08.6-3.31ZM105.47,701.09c.67-2.41.29-4.74-.64-6.99-.18-.43-.78-.96-1.19-.95-.42,0-1.08.53-1.2.95-.33,1.15-.43,2.37-.62,3.56.26,1.27.41,2.58.85,3.78.19.51,1.05,1.13,1.54,1.08.46-.05.84-.91,1.25-1.42ZM111.3,700.48c.22.92.3,1.92.71,2.75.26.53,1.08,1.19,1.54,1.12.54-.09.96-.91,1.44-1.41,1.11-2.41.76-4.8-.26-7.09-.64-1.43-2.1-1.59-2.7-.35-.75,1.55-1.35,3.21-.72,4.99Z"/>
    <path class="cls-1" d="M93.8,732.4c.31-1.71.59-3.43.95-5.12.3-1.42.81-1.71,1.82-.75,1.58,1.49,2.99,3.18,4.33,4.9,1.2,1.55,2.25,3.26,4.33,3.66,1.1.21,2.36.37,3.37.03,3.78-1.25,7.5-2.7,11.23-4.11,2.5-.95,2.54-.94,2.53,1.7-.49,4.11-1.16,8.21-1.44,12.34-.57,8.32-3.74,15.4-9.43,21.43-1.79,1.89-3.41,3.94-5.1,5.92-.53-.66-1-1.38-1.6-1.96-1.89-1.85-3.79-3.68-5.75-5.45-.85-.77-1.79-1.73-2.83-1.95-3.53-.75-7.12-1.21-10.69-1.77,1.4-3.93,2.98-7.81,4.14-11.81,1.37-4.73,2.37-9.57,3.52-14.36.21-.89.42-1.78.63-2.67Z"/>
    <path class="cls-4" d="M161.35,739.45c-2.69,1.75-5.33,3.6-8.63,4.04-2.63.35-5.26.65-7.87,1.13-2.85.52-5.46-.28-8.05-1.25-2.75-1.03-5.35-2.3-7.07-4.84-2.21-5.54-4.32-11.11-5.82-16.9,3.48,4.41,8.35,6.25,13.64,7.17,3.37.59,6.78,1.25,10.18,1.28,6.81.05,13.6-.43,19.78-3.82-.69,1.63-1.57,3.22-2.05,4.91-.86,3.04-1.95,5.91-4.1,8.28Z"/>
    <path class="cls-4" d="M85.51,761.25c3.57.57,7.16,1.02,10.69,1.77,1.04.22,1.97,1.19,2.83,1.95,1.96,1.77,3.87,3.6,5.75,5.45.6.59,1.07,1.3,1.6,1.96-1.91,2.02-3.82,4.03-5.73,6.04-1.4,1.02-2.74,2.12-4.21,3.03-3.13,1.93-6.49,3.29-10.24,3.03-3-.21-5.98-.82-8.98-1-2.47-.14-4.31-1.06-5.53-3.19,3.63.38,5.4-2.24,7.2-4.63,2.73-3.64,4.27-7.88,5.73-12.15.26-.77.6-1.52.91-2.27Z"/>
    <path class="cls-4" d="M96.88,719.18c.49,1.23.08,2.27-.6,3.31-1.4,2.14-2.83,4.26-4.12,6.47-2.76,4.7-4.77,4.64-8.58,2.45-.99-1.73-1.98-3.46-2.97-5.19.52-2.84,1.09-5.67,1.55-8.52.3-1.86.4-3.79,1.91-5.16.81-.73,1.08-1.55.84-2.58,3.05,3.16,6.13,6.28,9.84,8.67.58.38,1.41.38,2.12.55Z"/>
    <path class="cls-1" d="M84.91,709.96c.24,1.03-.03,1.85-.84,2.58-1.52,1.37-1.61,3.3-1.91,5.16-.46,2.85-1.03,5.68-1.55,8.52-3.5-6.09-5.26-12.6-4.94-19.66.06-1.42-.32-2.89-.12-4.28.18-1.3.82-2.55,1.38-3.77.07-.14,1.11-.13,1.31.13.86,1.06,1.65,2.2,2.33,3.39,1.49,2.62,2.9,5.28,4.34,7.93Z"/>
    <path class="cls-5" d="M161.35,739.45c2.16-2.37,3.24-5.25,4.1-8.28.48-1.69,1.35-3.28,2.05-4.91,2.92-1.53,5.51-3.45,7.58-6.06.47-.59,1.28-.9,2.29-1.58.87,4.33-1.63,7.19-3.07,10.36-1.22,1.3-2.4,2.63-3.65,3.9-2.71,2.74-5.73,5.05-9.29,6.58Z"/>
    <path class="cls-1" d="M121.41,694.63c-.29-1-.3-2.13-1.5-2.66-.21-.09-.27-.63-.33-.97-1.78-10.06-3.55-20.12-5.31-30.18-.23-1.31-.45-2.63-.49-3.95-.02-.67.38-1.36.61-2.04.14-.42.43-.82.45-1.24.18-3.2.3-6.41.45-9.61.31-.2.61-.4.92-.6-.03.46.03.94-.09,1.37-1.2,4.44-.5,8.8.3,13.21.87,4.78,1.41,9.61,2.24,14.4.68,3.92,1.78,7.78,2.29,11.72.45,3.48.33,7.03.47,10.55Z"/>
    <path class="cls-1" d="M123.9,721.63c1.5,5.79,3.61,11.36,5.82,16.9-.87-.99-1.78-1.95-2.6-2.98-1.66-2.07-3.34-4.12-4.87-6.27-.75-1.06-1.22-2.33-1.75-3.53-.16-.35-.29-.94-.11-1.18,1.6-2.08.49-4.43.73-6.64.06-.6.02-1.22.03-1.83.92,1.84,1.84,3.69,2.75,5.53Z"/>
    <path class="cls-5" d="M71.67,780.3c1.23,2.14,3.06,3.05,5.53,3.19,3,.17,5.98.79,8.98,1,3.75.26,7.11-1.1,10.24-3.03,1.47-.9,2.81-2.01,4.21-3.03-1.18,1.2-2.3,2.47-3.56,3.59-.78.69-1.73,1.21-2.67,1.68-3.91,1.93-7.93,2.01-12.17,1.06-3.87-.86-7.9-.99-11.6-2.62-.5-.22-1.01-.4-1.52-.6l-.05-.46c.87-.26,1.73-.52,2.6-.77Z"/>
    <path class="cls-1" d="M110.99,654.71c-.04.79.12,1.67-.16,2.37-2.11,5.19-4.22,10.37-6.49,15.49-2.06,4.65-4.92,8.95-6.03,14.01-.08.38-.52.68-.8,1.01.77-4.27,2.62-8.12,4.49-11.98,3.3-6.83,6.74-13.61,8.99-20.9Z"/>
    <path class="cls-1" d="M114.99,702.93c-.47.5-.89,1.32-1.44,1.41-.46.08-1.28-.59-1.54-1.12-.41-.83-.49-1.82-.71-2.75.02-.2-.02-.44.08-.59.33-.57.71-1.11,1.07-1.66.54.46,1.29.81,1.56,1.39.48,1.03.67,2.2.98,3.32Z"/>
    <path class="cls-4" d="M114.99,702.93c-.31-1.11-.5-2.28-.98-3.32-.27-.58-1.03-.94-1.56-1.39-.36.55-.74,1.1-1.07,1.66-.09.16-.06.39-.08.59-.63-1.79-.03-3.44.72-4.99.6-1.23,2.06-1.08,2.7.35,1.03,2.29,1.37,4.69.26,7.09Z"/>
    <path class="cls-1" d="M105.47,701.09c-.41.5-.79,1.37-1.25,1.42-.49.05-1.35-.57-1.54-1.08-.45-1.2-.59-2.51-.85-3.78,1.14-1.68,1.9-1.69,2.71.11.47,1.04.64,2.22.94,3.33Z"/>
    <path class="cls-4" d="M105.47,701.09c-.3-1.11-.47-2.29-.94-3.33-.81-1.8-1.57-1.79-2.71-.11.19-1.19.29-2.41.62-3.56.12-.42.78-.95,1.2-.95.4,0,1.01.52,1.19.95.93,2.25,1.31,4.58.64,6.99Z"/>
  </g>
  <g>
    <path class="cls-33" d="M283.45,780.73c5.09,3.67,18.96,8.06,40.17,7.67,21.21-.39,38.77-5.63,44.1-10.22,2.52-2.16-2.71-10.47-2.71-10.47l-13.09-4.84-27.07,8.58-32.89-9.25-8.87-3.92.36,22.44Z"/>
    <path class="cls-33" d="M293.65,721.39c0,8.31,4.31,17.74,6.4,19.16s13.02,10.05,13.02,10.05l-6.89,13.25,23.72,5.95,18.99-7.58,5.89-8.59,4.23-2.86.47-1.24,1.97-1.22,2.43-32.77-5.52-36.88-32.66-2.87-32.04,45.62Z"/>
    <g>
      <path class="cls-4" d="M222.72,675.72c1-8.08,3.32-15.69,7.95-22.47.39-.57.92-1.04,1.38-1.56,1.42-1.04,2.79-2.14,4.26-3.09,3.75-2.41,8.29-1.43,10.65,2.32,3.33,5.27,5.2,10.91,4.96,17.29-.25,6.77.54,7.44,7.24,8.62,1.43.25,2.22-.19,2.34-1.6.21-2.59.34-5.18.5-7.77.04-.69.1-1.37.15-2.06.21,0,.42,0,.63,0,.15.86.45,1.73.44,2.59-.04,2.38-.13,4.77-.35,7.15-.15,1.59.25,2.51,1.97,2.82,6.78,1.21,13.54,2.5,20.31,3.79,1.58.3,2.37-.27,2.61-1.87.73-4.87.32-9.68-.92-14.4-.56-2.14-1.65-4.13-2.49-6.19-1.51-2.95-3.92-4.84-6.98-5.96-1.18-.43-2.37-.81-3.56-1.21,3.61-.35,6.63.89,9.05,3.53,3.25,3.56,4.51,8,5.29,12.62.14.82.34,1.63.55,2.44.36,1.37.96,2.71,1.08,4.1.14,1.66-.04,3.36-.22,5.03-.18,1.59.29,2.6,1.93,2.92,4.41.85,8.82,1.7,13.22,2.57,1.35.27,2.02-.34,2.11-1.63.13-1.89.35-3.78.26-5.66-.24-5.15-.89-10.22-4.13-14.53-1.62-3.07-4.45-4.56-7.52-5.74-.59-.23-1.28-.33-1.75-.7-3.14-2.5-6.74-3.98-10.59-4.95,2.09-1.28,4.19-2.55,6.28-3.83.98-.02,1.98.06,2.95-.08,4.88-.71,8.55,1.39,11.65,4.9,4.11,4.66,6.08,10.27,6.54,16.3.34,4.35,2.57,8.51,1.26,13.02-.57,1.96.67,2.58,2.36,2.86,1.93.32,1.84-1.05,1.95-2.21.2-2.04,1.17-2.77,3.25-2.43,2.07.34,4.19.41,6.29.51,1.67.08,3.34.02,5.01.02.03-.22.05-.43.08-.65-4.42-.54-8.85-1.08-13.27-1.62.04-.28.08-.55.12-.83,3.83.27,7.66.53,11.48.81,2.02.15,2.59-.36,2.42-2.36-.16-1.89-.36-3.78-.63-5.65-.35-2.44-.92-2.82-3.34-2.61-2.8.25-5.59.49-8.4.65-.91.05-1.84-.18-2.76-.29l.07-.64c.46-.11.92-.28,1.39-.32,3.22-.28,6.43-.54,9.65-.81,2.22-.19,2.56-.72,1.8-2.84-.52-1.46-1.13-2.88-1.63-4.34-.52-1.52-1.45-2.09-3.06-1.76-3.03.61-6.07,1.15-9.12,1.67-.68.12-1.4.02-2.1.02-.03-.24-.06-.47-.08-.71,2.57-.5,5.16-.95,7.71-1.53,1.4-.32,2.75-.85,4.13-1.29-.8-1.26-1.57-2.54-2.42-3.76-1.25-1.81-2.85-2.13-4.96-1.42-2.92.99-5.94,1.69-8.92,2.51.57-.42,1.08-1.02,1.72-1.24,1.92-.65,3.89-1.12,5.83-1.72.81-.25,1.58-.65,2.37-.99.02-.28.03-.56.05-.85-2.64-.78-5.27-1.57-7.91-2.32-.38-.11-.84-.02-1.25.06-2.52.49-5.04,1.03-7.56,1.51-.53.1-1.09.03-1.63.04.86-.55,1.72-1.1,2.58-1.65,3.35-.45,6.7-.91,10.05-1.36,3.63,1.92,7.75,3.03,10.52,6.38,1.39,2.01,3.12,3.86,4.1,6.06,3.77,8.4,5.72,17.23,5.18,26.5-.07,1.26.35,2.03,1.65,2.22.76.11,1.53.23,2.28.39,1.53.32,2.51-.25,2.7-1.82.19-1.62,1.12-1.89,2.52-1.66,1.87.3,3.76.52,5.63.77.83.31,1.66.61,2.49.92,1.54,1.79,3.09,3.59,4.63,5.38-3.91,1.03-7.82,2.05-11.74,3.08-6.93,2.99-12.77,7.22-16.1,14.27-2.75,3.81-4.47,8.07-5.39,12.66.41,3.16.58,6.38,1.34,9.45.43,1.76,1.83,3.28,2.8,4.91.42.55.84,1.1,1.25,1.65-1.37-.3-2.76-.53-4.1-.91-2.14-.61-4.57-.88-6.29-2.1-2.64-1.88-5.57-2.51-8.52-3.32-.71-.29-1.4-.64-2.14-.85-3.51-.97-7.03-1.91-10.54-2.85-.57-.19-1.13-.37-1.7-.56-2.47-2.17-4.92-4.36-7.41-6.49-.4-.34-1-.58-1.53-.61-4.23-.27-7.14-2.89-10.15-5.45-.99-.84-2.38-1.38-3.67-1.67-3.03-.68-6.17-.61-8.85-2.84-1.11-.93-3.46-1.1-4.97-.65-2.52.74-4.91.9-7.44.51-3.05-.47-6.12-.77-9.15-1.3-.9-.16-1.72-.82-2.58-1.26,1.94.2,3.97.85,5.79.49,3.83-.76,6.69-3.24,9.02-6.42-.24,0-.41-.05-.48,0-.42.36-.85.73-1.23,1.14-3.07,3.34-6.7,5.2-11.38,4.36-.67-.12-1.39.04-2.08.07-1.22-.3-2.43-.73-3.67-.86-4.38-.46-7.03-2.99-8.83-6.82-3.3-7.05-2.92-14.45-2.3-21.89ZM238.39,694.29c4.81-4.12,6.52-9.84,7.97-15.65.12-.47-.97-1.72-1.63-1.84-5.04-.93-10.11-1.7-15.18-2.43-1.84-.26-3.55.87-3.62,2.69-.19,5.22-1.06,10.51,1.12,15.59,1.02,2.37,2.46,4.13,5.13,4.42,2.57.28,4.66-.7,6.21-2.78h0ZM285.24,692.04c-1.43,2.56-2.68,5.25-4.32,7.67-3.84,5.68-8.52,9.97-16.18,8.4-.32-.07-.66,0-.99,0,2.08,1,4.15,1.99,6.5,1.24,8.54-2.74,12.02-9.84,14.98-17.3ZM306.74,709.26c-.19.33-.38.65-.57.98,3.52,2.49,7.47,4.24,11.43,5.98-3.03-3.35-7.25-4.63-10.86-6.96ZM312.06,700.89c-.14.34-.29.68-.43,1.02,4.1,1.57,8.21,3.14,12.31,4.7.12-.29.23-.59.35-.88-4.08-1.62-8.15-3.23-12.23-4.85ZM300.57,715.53c-.18.28-.35.56-.53.84,3.13,2.15,6.26,4.3,9.39,6.45.18-.27.37-.53.55-.8-3.14-2.16-6.28-4.32-9.41-6.49ZM278.37,711.94c1.05,2.54,5.59,4.05,7.85,3.3-2.45-1.03-5.15-2.17-7.85-3.3ZM327.84,694.23c.02-.16.05-.32.07-.48-2.87-.66-5.73-1.32-8.6-1.98-.03.15-.07.3-.1.46,2.88.67,5.76,1.34,8.63,2Z"/>
      <path class="cls-5" d="M326.93,736.02c-.42-.55-.84-1.1-1.25-1.65-.86-4.01-1.66-8.04-2.62-12.03-.21-.85-.99-1.56-1.51-2.33.92-4.59,2.64-8.85,5.39-12.66.85-.43,1.92-.66,2.52-1.32,1.54-1.69,2.61-3.9,4.35-5.29,3.3-2.65,6.94-4.88,10.45-7.29,4.63-1.11,9.27-2.23,13.9-3.34.92-2.91-1.67-5.72-5.07-5.49-.69-.03-1.37-.05-2.06-.08-.21-.66-.53-1.31-.6-1.99-.34-3.2-.32-3.21-3.59-3.9.81-1.82,2.35-2.21,4.14-2.1,3.74.28,3.82.2,3.82-3.65,0-.21,0-.42,0-.63-.03-2.99-.29-3.28-3.27-3.72.81-1.7,1.61-3.39,2.42-5.09,1.26.05,2.85.61,3.73.05,2.98-1.9,5.71-4.19,8.53-6.33,1.25-.28,2.49-.56,3.74-.84,2.27.44,4.54.88,6.58,1.28.28.65.36,1.35.75,1.69,2.75,2.4,3.56,5.45,3.08,8.92-.23,1.64-.05,2.79,1.75,3.49,1.85.71,1.23,2.59,1.4,4.06-.56.85-.95,2.17-1.72,2.46-3.8,1.41-5.3,5.11-8,7.59.64.14,1.34.51,1.93.38,3.31-.76,6.58-1.63,9.87-2.47,2.18-1.48,4.42-2.89,6.51-4.49.83-.63,1.79-1.65.24-2.68,1.32-2.47,1.6-5.51,4.13-7.34.39-.28.51-1.16.47-1.74-.22-2.78-.52-5.56-.85-8.34-.19-1.65-1.13-2.29-2.78-1.93-1.09.24-2.22.34-3.31.56-1.41.28-2.49-.09-3.14-1.43.59-.69,1.24-1.34,1.75-2.08,1.56-2.23,3.26-4.22,6.29-4.26,3.18,1.67,4.34,4.79,5.36,7.87,1.97,5.93,1,11.75-1.18,17.44-.31.83-.64,1.65-.92,2.49-.08.25.05.64-.1.79-3.26,3.32-5.35,7.72-9.53,10.18-1.97.88-3.95,1.76-5.92,2.64-.27.14-.53.28-.8.42-4.59.15-6.8,3.89-7.72,6.93-.5,1.65.04,2.63,1.84,2.67,1.54.04,3.08,0,4.62,0,1.35-.05,2.06.68,2.78,1.79,1.87,2.88,1.29,6.06,1.43,9.17,1.08.93,2.17,1.86,3.81,3.28-2.3.73-4.14,1.43-6.05,1.8-.34.07-1.09-1.19-1.41-1.94-.6-1.41-.28-3.34-2.32-3.89-2.71-.6-5.65,1.61-5.83,4.44-.17,2.71-.28,5.42-.42,8.13-.16,3.29-.16,6.6-.56,9.86-.12,1-1.16,2.34-2.1,2.71-5.68,2.23-11.41,4.35-17.22,6.19-1.38.44-3.24-.04-4.67-.62-.55-.22-1.02-2.15-.66-2.86.97-1.88,2.41-3.51,3.53-5.05-.39-3.54-.28-7.35-1.37-10.77-.8-2.51-.16-4.04,1.06-5.85.38-.56.67-1.29.71-1.95.34-5.43.6-10.87.92-16.8-1.79.57-3.34,1.06-4.89,1.55-5.4.8-9.61,3.65-13.16,7.62-.29.4-.59.8-.88,1.2-1.37,3.39-2.74,6.78-4.12,10.17,0,.44,0,.88,0,1.31.68,3.35,1.37,6.71,2.05,10.06.85.17,1.77.64,2.55.46,2.56-.58,5.07-1.39,7.61-2.12.99.66,1.21,1.37.39,2.39-.78.96-1.39,2.06-2.08,3.09-.16.15-.31.31-.47.46-4.03,4.7-7.34,5-11.91,1.05-.11-.09-.22-.17-.33-.26ZM357.06,711.34c2.29-3.5.78-10.18-1.66-10.82.52,3.37,1.05,6.88,1.66,10.82ZM360.19,674.78c.21-.01.41-.02.62-.03-.07-1.52-.13-3.04-.2-4.56-.21.01-.42.02-.62.03.07,1.52.14,3.04.2,4.56Z"/>
      <path class="cls-3" d="M359.47,749.52c3.27-1.97,3.07-1.75,5.79.83,3.26,3.1,3.9,6.86,3.85,10.98-.97,1.46-1.98,2.89-2.9,4.38-.89,1.45-2.02,2.31-3.81,1.94-.99-1.62-1.76-.69-2.23.32-.43.93-.53,2.02-.78,3.03-2.89.87-5.79,1.7-8.65,2.64-1.22.4-2.36,1.05-3.54,1.58-1.34.37-2.67.96-4.03,1.06-6.51.48-12.98,2.04-19.57,1.04-.84-.27-1.69-.77-2.53-.76-7.16.04-13.94-1.99-20.78-3.7-1.54-.39-3.03-.93-4.55-1.4-4.08-1.62-8.08-3.33-10.94-6.91-.6-.75-1.42-1.32-2.14-1.97-.69-2.24-1.39-4.49-2.08-6.73,2.89-9.08,10.5-12.49,18.55-15.2,1.27-.43,3.01.55,4.54.87-4.15,1.09-8.08,2.73-11.77,4.92-3.41,2.02-5.9,4.65-5.76,8.61,1.37-1.61,2.71-3.57,4.44-5.11,1.59-1.42,3.48-2.64,5.43-3.5,3.2-1.41,6.56-2.46,9.85-3.66,2.82,1.54,5.65,3.09,8.47,4.63-.01,1.55-.03,3.09-.04,4.64-4.46,1.67-5.11,3.17-2.95,6.76.38,2.12,2.07,2.77,3.79,3.4,4.76,1.97,9.71,2.3,14.77,1.64,1.7-.42,3.39-.84,5.09-1.26.71-.4,1.43-.81,2.14-1.21,1.99-.91,2.9-2.51,2.93-4.65,5.19-1.97,10.35-4,15.58-5.86,1.01-.36,2.25-.08,3.38-.1,1.45,1.68,2.9,3.37,4.35,5.05l.77-.64c-1.55-1.89-3.1-3.77-4.66-5.66Z"/>
      <path class="cls-13" d="M326.93,736.02c.11.09.22.17.33.26,4.57,3.95,7.88,3.66,11.91-1.05.98.54,1.93,1.12,2.93,1.6,2.43,1.17,2.64,1.81,1.2,4.1-.22.35-.49.68-.74,1.01-1.65,1.29-3.19,2.79-4.98,3.82-1.57.91-3.51,1.96-5.16,1.78-2.86-.31-5.79-1.18-8.4-2.43-7.4-3.56-14.65-7.43-21.96-11.18-.7-.7-1.4-1.41-2.1-2.11,2.69-.71,5.38-1.42,8.07-2.13,2.95.8,5.88,1.44,8.52,3.32,1.72,1.23,4.15,1.49,6.29,2.1,1.34.38,2.73.61,4.1.91Z"/>
      <path class="cls-4" d="M329.13,719.56c1.37-3.39,2.74-6.78,4.12-10.17,4.65,1.15,9.3,2.3,13.95,3.45-.14,5.73-.27,11.47-.43,17.2-.06,2.1-1.28,3.3-4.25,4.16-.94.27-1.92.38-2.88.56.69-1.04,1.3-2.13,2.08-3.09.83-1.02.61-1.74-.39-2.39-1.04-.14-2.14-.58-3.1-.37-2.39.52-4.71,1.33-7.05,2.03-.68-3.35-1.37-6.71-2.05-10.06,5.5,1.41,11.01,2.83,16.51,4.24.08-.3.17-.59.25-.89-5.51-1.81-11.1-3.35-16.76-4.67Z"/>
      <path class="cls-4" d="M334.13,708.2c3.56-3.97,7.77-6.83,13.16-7.62-.04,3.65-.08,7.3-.11,10.96-4.35-1.11-8.7-2.22-13.05-3.33Z"/>
      <path class="cls-1" d="M372.54,724.18c.14-2.71.25-5.42.42-8.13.18-2.83,3.12-5.05,5.83-4.44.39,1.77.9,3.53,1.1,5.32.1.89-.05,2.24-.63,2.7-2.12,1.67-4.46,3.06-6.72,4.56Z"/>
      <path class="cls-21" d="M302.07,733.93c7.31,3.75,14.56,7.62,21.96,11.18,2.6,1.25,5.53,2.12,8.4,2.43,1.65.18,3.58-.87,5.16-1.78,1.8-1.04,3.33-2.53,4.98-3.82-2.33,2.2-4.45,4.72-7.09,6.46-1.35.89-3.74.82-5.46.38-3.09-.78-6.14-1.94-9.01-3.35-5.92-2.9-11.71-6.05-17.53-9.13-.8-.42-1.5-1.02-2.25-1.54.28-.28.56-.56.84-.84Z"/>
      <path class="cls-4" d="M362.4,767.66c1.79.38,2.92-.49,3.81-1.94.92-1.49,1.93-2.93,2.9-4.38-.14,5.03-.29,10.05-.4,15.08-.03,1.46-.68,2.05-2.11,1.78.05-2.8-.66-3.22-4.21-2.51,1.29-2.67,1.03-5.35.02-8.02Z"/>
      <path class="cls-1" d="M381.81,691.8c.27-.14.53-.28.8-.42-.27,2.57-.6,5.14-.75,7.72-.03.46.69,1.33,1.11,1.36.48.04,1.25-.53,1.49-1.03.32-.65.23-1.5.34-2.26.24-1.73.49-3.45.74-5.18.3.02.59.04.89.06,0,1.24.17,2.5-.04,3.7-.36,2.14.27,3.38,2.52,3.6-.25,4.69-2.11,8.87-4.15,12.99-.14-3.1.44-6.28-1.43-9.17-.72-1.11-1.43-1.84-2.78-1.79.42-3.2.84-6.39,1.26-9.59Z"/>
      <path class="cls-4" d="M388.91,699.37c-2.25-.22-2.89-1.46-2.52-3.6.21-1.2.04-2.47.04-3.7-.3-.02-.59-.04-.89-.06-.25,1.73-.5,3.45-.74,5.18-.11.76-.02,1.61-.34,2.26-.24.5-1.01,1.07-1.49,1.03-.43-.04-1.14-.9-1.11-1.36.15-2.58.48-5.15.75-7.72,1.97-.88,3.95-1.76,5.92-2.64,1.27,3.5.87,7.06.39,10.62Z"/>
      <path class="cls-4" d="M305.87,742.79c-3.29,1.2-6.65,2.25-9.85,3.66-1.95.86-3.84,2.08-5.43,3.5-1.72,1.54-3.07,3.5-4.44,5.11-.15-3.97,2.35-6.59,5.76-8.61,3.69-2.19,7.62-3.82,11.77-4.92.73.42,1.46.84,2.19,1.26Z"/>
      <path class="cls-5" d="M334.98,762.58c-1.7.42-3.39.84-5.09,1.26,0-1.95.05-3.91.02-5.86-.03-1.63.53-2.3,2.28-1.89,2.83.67,3.32,1.3,2.97,4.19-.09.76-.12,1.53-.17,2.29Z"/>
      <path class="cls-4" d="M282.67,762.58c.14,6.05.28,12.1.42,18.15-.7-2.91-1.77-5.79-2-8.74-.43-5.36-.36-10.76-.5-16.14.69,2.24,1.39,4.49,2.08,6.73Z"/>
      <path class="cls-5" d="M314.29,752.06c.01-1.55.03-3.09.04-4.64.27.97.75,1.94.77,2.92.08,3.95.03,7.91.02,11.87-1.72-.62-3.41-1.28-3.79-3.4.6-1.33,1.2-2.66,1.78-3.99.4-.92.78-1.84,1.17-2.76Z"/>
      <path class="cls-1" d="M334.13,708.2c4.35,1.11,8.7,2.22,13.05,3.33,0,.44.01.87.02,1.31-4.65-1.15-9.3-2.3-13.95-3.45.29-.4.59-.8.88-1.2Z"/>
      <path class="cls-5" d="M302.07,733.93c-.28.28-.56.56-.84.84-3.25-2.53-6.46-5.09-7.58-9.35.57.19,1.13.37,1.7.56,1.54,1.95,3.08,3.89,4.61,5.84.7.7,1.4,1.41,2.1,2.11Z"/>
      <path class="cls-1" d="M237.53,705.3c.69-.03,1.41-.19,2.08-.07,4.69.84,8.31-1.01,11.38-4.36.38-.41.81-.77,1.23-1.14.07-.06.24,0,.48,0-2.33,3.18-5.19,5.66-9.02,6.42-1.83.36-3.85-.29-5.79-.49-.12-.12-.24-.24-.36-.35Z"/>
      <path class="cls-5" d="M340.05,756.71c-.03,2.15-.94,3.74-2.93,4.65q-.06-3.79,2.93-4.65Z"/>
      <path class="cls-4" d="M359.47,749.52c1.55,1.89,3.1,3.77,4.66,5.66l-.77.64c-1.45-1.68-2.9-3.37-4.35-5.05.15-.41.31-.83.47-1.24Z"/>
      <path class="cls-16" d="M362.38,775.68c3.55-.71,4.26-.29,4.21,2.51-.7-.41-1.4-.82-2.1-1.23-1.12-.27-2.24-.55-3.36-.82.42-.15.83-.31,1.25-.46Z"/>
      <path class="cls-16" d="M302.95,663.49c3.24,4.31,3.89,9.38,4.13,14.53.09,1.88-.13,3.78-.26,5.66-.09,1.29-.76,1.89-2.11,1.63-4.41-.87-8.81-1.71-13.22-2.57-1.64-.32-2.11-1.33-1.93-2.92.19-1.67.36-3.37.22-5.03-.12-1.39-.72-2.73-1.08-4.1-.21-.8-.41-1.62-.55-2.44-.78-4.62-2.04-9.05-5.29-12.62-2.41-2.64-5.43-3.88-9.05-3.53-.55-.14-1.1-.27-1.65-.41,2.37-.14,4.75-.28,7.12-.42,1.43.99,3.36,1.68,4.2,3.03,1.94,3.12,4.87,3.97,8.07,4.68,1.41.32,3.25.55,4.04,1.52,2.01,2.45,4.68,2.58,7.36,2.98Z"/>
      <path class="cls-31" d="M272.17,651.7c.55.14,1.1.27,1.65.41,1.19.4,2.38.78,3.56,1.21,3.06,1.12,5.47,3.01,6.98,5.96-3.61-.84-7.23-1.64-10.83-2.53-.78-.19-1.49-.7-2.22-1.09-1.14-.61-2.22-1.42-3.43-1.82-1.85-.61-3.82-.88-5.69-1.43-.9-.27-1.83-.72-2.51-1.35-1.82-1.68-3.52-3.49-5.27-5.25,2.4.55,4.79,1.1,7.19,1.66,2.38,1.13,4.76,2.26,7.14,3.4,1.14.28,2.29.56,3.43.85Z"/>
      <path class="cls-16" d="M323.58,651.26c-2.76-3.35-6.88-4.46-10.52-6.38,3.26.3,6.52.72,9.79.86,3.62.15,7.25.04,10.88.04,1.14.28,2.29.51,3.42.85,2.78.83,5.55,1.71,8.32,2.58-.07.29-.14.57-.21.86-5.46-.3-10.91-.61-16.88-.94.69.53.9.69,1.12.86-.13,1.54-1.06,1.82-2.4,1.62-1.16-.17-2.34-.24-3.51-.35Z"/>
      <path class="cls-31" d="M302.95,663.49c-2.68-.4-5.35-.53-7.36-2.98-.79-.97-2.62-1.2-4.04-1.52-3.2-.72-6.13-1.56-8.07-4.68-.84-1.36-2.77-2.04-4.2-3.03.84.14,1.67.28,2.51.42.44.13.87.27,1.31.4,3.85.97,7.45,2.45,10.59,4.95.47.37,1.16.48,1.75.7,3.07,1.18,5.9,2.66,7.52,5.74Z"/>
      <path class="cls-1" d="M329.49,649.99c-.22-.17-.43-.33-1.12-.86,5.97.33,11.42.63,16.88.94.07-.29.14-.57.21-.86-2.77-.86-5.54-1.74-8.32-2.58-1.12-.34-2.28-.57-3.42-.85.56-.02,1.13-.05,1.69-.07,2.1.43,4.23.75,6.29,1.32,2.01.56,3.95,1.4,5.91,2.11,1.6,1.67,3.32,3.24,4.77,5.04,1.51,1.88,2.76,3.98,4.13,5.98-.15.13-.3.27-.45.4-.89-.56-1.73-1.52-2.67-1.62-4.17-.46-8.36-.64-12.54-.98-2.01-.16-4.01-.45-6.02-.68.01-.19.02-.38.03-.57.37-.07.75-.22,1.11-.2,4.04.31,8.08.69,12.12.95,2.07.13,4.16.07,6.24.09-1.6-1.67-3.09-3.46-4.83-4.96-.99-.85-2.36-1.6-3.63-1.73-4.17-.45-8.37-.59-12.56-.85-1.28,0-2.55-.02-3.83-.02Z"/>
      <path class="cls-4" d="M373.77,685.82c2.7-2.48,4.2-6.19,8-7.59.77-.29,1.16-1.61,1.72-2.46,1,1.69,2,3.37,3,5.05-.74.82-1.49,1.64-2.23,2.46-3.5.84-7,1.69-10.5,2.53Z"/>
      <path class="cls-16" d="M347.62,649.15c-1.97-.72-3.9-1.55-5.91-2.11-2.06-.58-4.19-.89-6.29-1.32,1.72.06,3.55-.24,5.14.25,3.94,1.23,7.82,2.71,11.61,4.33,1.42.61,2.55,1.89,3.84,2.84,1.84,1.36,3.7,2.69,5.54,4.03-.41.29-.83.59-1.24.88-1.11-.68-2.21-1.37-3.32-2.05-1.59-.97-3.26-1.81-4.75-2.91-1.62-1.19-3.08-2.61-4.62-3.93Z"/>
      <path class="cls-21" d="M360.31,658.04c.41-.29.83-.59,1.24-.88.55-.14,1.11-.28,1.66-.42.99.15,1.98.29,2.98.44-2.82,2.14-5.55,4.43-8.53,6.33-.88.56-2.47,0-3.73-.05.71-.96,1.42-1.93,2.13-2.89.15-.13.3-.27.45-.4,1.26-.71,2.53-1.42,3.79-2.13Z"/>
      <path class="cls-32" d="M384.27,683.29c.74-.82,1.49-1.64,2.23-2.46,2.8-.25,4.4-2.13,5.83-4.26,1.55,1.04.58,2.05-.24,2.68-2.09,1.6-4.33,3-6.51,4.49-.43-.15-.87-.3-1.3-.44Z"/>
      <path class="cls-32" d="M394.89,649.99c-3.03.04-4.73,2.03-6.29,4.26-.52.74-1.17,1.39-1.75,2.08-.28-.34-.86-.77-.8-1,1.07-3.57,4.95-5.88,8.84-5.34Z"/>
      <path class="cls-32" d="M366.19,657.18c-.99-.15-1.98-.29-2.98-.44,2.24-.13,4.48-.27,6.71-.4-1.25.28-2.49.56-3.74.84Z"/>
      <path class="cls-16" d="M254.4,645.8c1.75,1.76,3.45,3.57,5.27,5.25.68.63,1.61,1.08,2.51,1.35,1.87.56,3.84.82,5.69,1.43,1.21.4,2.28,1.21,3.43,1.82.73.39,1.44.9,2.22,1.09,3.6.89,7.22,1.7,10.83,2.53.85,2.06,1.93,4.06,2.49,6.19,1.24,4.71,1.65,9.53.92,14.4-.24,1.6-1.03,2.17-2.61,1.87-6.77-1.29-13.53-2.57-20.31-3.79-1.72-.31-2.12-1.22-1.97-2.82.22-2.37.31-4.76.35-7.15.01-.86-.28-1.72-.44-2.59-.21,0-.42,0-.63,0-.05.69-.11,1.37-.15,2.06-.16,2.59-.29,5.18-.5,7.77-.11,1.41-.91,1.86-2.34,1.6-6.7-1.18-7.48-1.85-7.24-8.62.23-6.38-1.64-12.02-4.96-17.29-2.36-3.74-6.91-4.73-10.65-2.32-1.47.95-2.84,2.06-4.26,3.09,2.5-4.1,6.06-6.37,10.96-6.3,5.01,3.3,9.72,7.22,16,7.98.9,2.69,1.8,5.39,2.7,8.08-.31-2.38-.61-4.81-1.56-6.94-2.14-4.8-4.55-8.32-10.38-8.3-.55-.14-1.1-.27-1.66-.41,2.09,0,4.19,0,6.28,0Z"/>
      <path class="cls-31" d="M259.02,653.35c-6.28-.75-10.98-4.68-16-7.98,1.7.14,3.4.28,5.11.42.55.14,1.11.27,1.66.41,3.94,1.27,7.43,3.13,9.24,7.15Z"/>
      <path class="cls-16" d="M356.07,660.57c-.71.96-1.42,1.93-2.13,2.89-.81,1.7-1.61,3.39-2.42,5.09,0,0-.18,0-.18,0-4.1-.4-8.19-.8-12.29-1.2-.04.35-.08.71-.11,1.06,4.08.88,8.26,1.15,12.44,1.37-.13,2.25-.27,4.5-.4,6.76-1.79-.11-3.33.28-4.14,2.1-.03.86-.06,1.73-.09,2.59-1.95-.25-3.9-.51-5.85-.76l-.1.8c2,.4,4,.8,6,1.2.29.41.58.82.87,1.23-1.88-.25-3.76-.47-5.63-.77-1.4-.22-2.32.04-2.52,1.66-.19,1.57-1.17,2.14-2.7,1.82-.76-.16-1.52-.28-2.28-.39-1.3-.19-1.72-.96-1.65-2.22.54-9.27-1.41-18.09-5.18-26.5-.98-2.19-2.71-4.05-4.1-6.06,1.17.11,2.35.18,3.51.35,1.34.2,2.27-.08,2.4-1.62,1.28,0,2.55.02,3.83.02,6.42,4.15,13.08,7.62,21.02,7.55-2.08-.02-4.17.05-6.24-.09-4.04-.26-8.08-.65-12.12-.95-.36-.03-.74.13-1.11.2-.01.19-.02.38-.03.57,2.01.23,4.01.52,6.02.68,4.18.34,8.37.53,12.54.98.94.1,1.78,1.06,2.67,1.62Z"/>
      <path class="cls-16" d="M289.38,648.28c3.25-.6,6.49-1.54,9.74.02,2.66,1.41,4.95,3.21,6.84,5.62.77.98,2.33,1.35,3.53,1.99.15-.21.3-.42.45-.63l-1.14-1.88c2.98-.82,6-1.53,8.92-2.51,2.11-.71,3.71-.39,4.96,1.42.85,1.23,1.61,2.51,2.42,3.76-1.37.44-2.72.97-4.13,1.29-2.56.58-5.14,1.03-7.71,1.53.03.24.06.47.08.71.7,0,1.42.1,2.1-.02,3.05-.52,6.09-1.05,9.12-1.67,1.61-.32,2.54.25,3.06,1.76.5,1.46,1.12,2.88,1.63,4.34.76,2.12.41,2.65-1.8,2.84-3.22.27-6.43.52-9.65.81-.47.04-.93.21-1.39.32l-.07.64c.92.1,1.85.34,2.76.29,2.8-.16,5.6-.4,8.4-.65,2.42-.21,2.99.17,3.34,2.61.27,1.88.47,3.76.63,5.65.17,2-.4,2.5-2.42,2.36-3.83-.28-7.65-.54-11.48-.81-.04.28-.08.55-.12.83,4.42.54,8.85,1.08,13.27,1.62-.03.22-.05.43-.08.65-1.67,0-3.34.06-5.01-.02-2.1-.1-4.22-.16-6.29-.51-2.08-.34-3.05.39-3.25,2.43-.11,1.16-.02,2.53-1.95,2.21-1.69-.28-2.93-.91-2.36-2.86,1.31-4.52-.93-8.67-1.26-13.02-.47-6.03-2.43-11.64-6.54-16.3-3.1-3.51-6.77-5.61-11.65-4.9-.97.14-1.96.06-2.95.08Z"/>
      <path class="cls-16" d="M238.39,694.29c-1.56,2.08-3.65,3.06-6.21,2.78-2.67-.29-4.11-2.05-5.13-4.42-2.18-5.08-1.31-10.37-1.12-15.59.07-1.83,1.78-2.96,3.62-2.69,5.07.73,10.14,1.51,15.18,2.43.67.12,1.75,1.37,1.63,1.84-1.45,5.81-3.16,11.53-7.97,15.65.47-.83.93-1.67,1.63-2.92-3.05-.38-5.8-.79-8.56-1.01-.79-.06-2.21.27-2.32.7-.24.87-.06,2.13.46,2.86.54.77,1.63,1.25,2.58,1.64,2.31.93,4.18-.68,6.22-1.27Z"/>
      <path class="cls-31" d="M308.81,653.4l1.14,1.88c-.15.21-.3.42-.45.63-1.2-.65-2.76-1.01-3.53-1.99-1.9-2.41-4.18-4.21-6.84-5.62.44-.14.87-.27,1.31-.41.54,0,1.1.06,1.63-.04,2.52-.48,5.04-1.01,7.56-1.51.41-.08.86-.16,1.25-.06,2.64.75,5.28,1.54,7.91,2.32-.02.28-.03.56-.05.85-.79.33-1.55.73-2.37.99-1.94.6-3.91,1.07-5.83,1.72-.64.22-1.15.81-1.72,1.24Z"/>
      <path class="cls-5" d="M344.26,693.45c-3.5,2.4-7.14,4.63-10.45,7.29-1.74,1.4-2.81,3.61-4.35,5.29-.6.66-1.66.89-2.52,1.32,3.33-7.05,9.17-11.28,16.1-14.27.41.12.81.25,1.22.37Z"/>
      <path class="cls-21" d="M299.96,731.82c-1.54-1.95-3.08-3.89-4.61-5.84,3.52.95,7.03,1.88,10.54,2.85.73.2,1.43.56,2.14.85-2.69.71-5.38,1.42-8.07,2.13Z"/>
      <path class="cls-1" d="M285.24,692.04c-2.96,7.46-6.44,14.56-14.98,17.3-2.35.76-4.42-.24-6.5-1.24.33,0,.67-.06.99,0,7.66,1.57,12.34-2.72,16.18-8.4,1.64-2.42,2.89-5.11,4.32-7.67Z"/>
      <path class="cls-5" d="M321.55,720.01c.52.77,1.31,1.48,1.51,2.33.96,3.99,1.76,8.01,2.62,12.03-.96-1.63-2.36-3.15-2.8-4.91-.76-3.07-.92-6.29-1.34-9.45Z"/>
      <path class="cls-8" d="M346.74,681.23c.03-.86.06-1.73.09-2.59,3.28.69,3.25.7,3.59,3.9.07.68.39,1.33.6,1.99-.29.03-.59.05-.88.08-.83-.3-1.66-.61-2.49-.92-.29-.41-.58-.82-.87-1.23-.02-.41-.03-.82-.05-1.24Z"/>
      <path class="cls-1" d="M306.74,709.26c3.61,2.33,7.84,3.61,10.86,6.96-3.96-1.74-7.91-3.49-11.43-5.98.19-.33.38-.65.57-.98Z"/>
      <path class="cls-1" d="M350.14,684.62c.29-.03.59-.05.88-.08.69.03,1.37.05,2.06.08.68.58,1.3,1.25,2.06,1.71,1.27.76,1.86,1.8,1.73,3.26-.7.14-1.4.28-2.1.41-1.54-1.79-3.09-3.59-4.63-5.38Z"/>
      <path class="cls-1" d="M312.06,700.89c4.08,1.62,8.15,3.23,12.23,4.85-.12.29-.23.59-.35.88-4.1-1.57-8.21-3.14-12.31-4.7.14-.34.29-.68.43-1.02Z"/>
      <path class="cls-1" d="M300.57,715.53c3.14,2.16,6.28,4.32,9.41,6.49-.18.27-.37.53-.55.8-3.13-2.15-6.26-4.3-9.39-6.45.18-.28.35-.56.53-.84Z"/>
      <path class="cls-21" d="M354.77,690c.7-.14,1.4-.28,2.1-.41.43.17.85.35,1.28.52-4.63,1.11-9.27,2.23-13.9,3.34-.41-.12-.81-.25-1.22-.37,3.91-1.03,7.82-2.05,11.74-3.08Z"/>
      <path class="cls-1" d="M278.37,711.94c2.7,1.14,5.4,2.27,7.85,3.3-2.25.75-6.8-.76-7.85-3.3Z"/>
      <path class="cls-1" d="M327.84,694.23c-2.88-.67-5.76-1.34-8.63-2,.03-.15.07-.3.1-.46,2.87.66,5.73,1.32,8.6,1.98-.02.16-.05.32-.07.48Z"/>
      <path class="cls-4" d="M381.81,691.8c-.42,3.2-.84,6.4-1.26,9.59-1.54,0-3.08.04-4.62,0-1.8-.04-2.33-1.02-1.84-2.67.91-3.04,3.13-6.78,7.72-6.93Z"/>
      <path class="cls-14" d="M350.97,676.54c.13-2.25.27-4.5.4-6.76-.01-.41-.03-.82-.04-1.23,0,0,.18,0,.18,0,2.98.44,3.24.73,3.27,3.72,0,.21,0,.42,0,.63,0,3.85-.08,3.92-3.82,3.65Z"/>
      <path class="cls-1" d="M329.13,719.56c5.66,1.32,11.25,2.86,16.76,4.67-.08.3-.17.59-.25.89-5.5-1.41-11.01-2.83-16.51-4.24,0-.44,0-.88,0-1.31Z"/>
      <path class="cls-14" d="M357.06,711.34c-.6-3.94-1.14-7.45-1.66-10.82,2.44.63,3.95,7.32,1.66,10.82Z"/>
      <path class="cls-21" d="M358.15,690.1c-.43-.17-.85-.35-1.28-.52.13-1.46-.46-2.49-1.73-3.26-.76-.46-1.38-1.13-2.06-1.71,3.4-.23,5.99,2.57,5.07,5.49Z"/>
      <path class="cls-21" d="M331.17,730.94c2.35-.7,4.67-1.51,7.05-2.03.96-.21,2.06.23,3.1.37-2.53.72-5.04,1.54-7.61,2.12-.77.18-1.69-.29-2.55-.46Z"/>
      <path class="cls-5" d="M384.27,683.29c.43.15.87.3,1.3.44-3.29.84-6.56,1.71-9.87,2.47-.58.13-1.28-.24-1.93-.38,3.5-.84,7-1.69,10.5-2.53Z"/>
      <path class="cls-14" d="M360.19,674.78c-.07-1.52-.14-3.04-.2-4.56.21-.01.42-.02.62-.03.07,1.52.13,3.04.2,4.56-.21.01-.41.02-.62.03Z"/>
      <path class="cls-1" d="M362.38,775.68c-.42.15-.83.31-1.25.46-.58-1.71-1.16-3.42-1.75-5.13.25-1.02.35-2.1.78-3.03.47-1.01,1.25-1.94,2.23-.32,1.01,2.68,1.27,5.35-.02,8.02Z"/>
      <path class="cls-1" d="M323.6,777.33c-8.36.17-16.37-1.83-24.33-4.04-1.25-.35-2.35-1.2-3.52-1.83,1.52.47,3.01,1.02,4.55,1.4,6.84,1.72,13.62,3.74,20.78,3.7.84,0,1.68.5,2.53.76Z"/>
      <path class="cls-5" d="M314.29,752.06c-.39.92-.77,1.85-1.17,2.76-.59,1.34-1.19,2.66-1.78,3.99-2.16-3.59-1.5-5.09,2.95-6.76Z"/>
      <path class="cls-16" d="M354.34,657.56c-7.93.07-14.6-3.4-21.02-7.55,4.19.26,8.39.41,12.56.85,1.27.14,2.63.88,3.63,1.73,1.74,1.5,3.24,3.29,4.83,4.96Z"/>
      <path class="cls-15" d="M360.31,658.04c-1.26.71-2.53,1.42-3.79,2.13-1.37-2-2.62-4.1-4.13-5.98-1.44-1.8-3.17-3.37-4.77-5.04,1.53,1.32,2.99,2.74,4.62,3.93,1.49,1.1,3.16,1.94,4.75,2.91,1.11.68,2.21,1.37,3.32,2.05Z"/>
      <path class="cls-1" d="M259.02,653.35c-1.81-4.03-5.29-5.89-9.24-7.15,5.83-.03,8.24,3.49,10.38,8.3.95,2.14,1.24,4.56,1.56,6.94-.9-2.69-1.8-5.39-2.7-8.08Z"/>
      <path class="cls-1" d="M351.34,668.56c.01.41.03.82.04,1.23-4.18-.22-8.36-.49-12.44-1.37.04-.35.08-.71.11-1.06,4.1.4,8.19.8,12.29,1.2Z"/>
      <path class="cls-1" d="M346.74,681.23c.02.41.03.82.05,1.24-2-.4-4-.8-6-1.2l.1-.8c1.95.25,3.9.51,5.85.76Z"/>
      <path class="cls-31" d="M238.39,694.29c-2.04.59-3.91,2.21-6.22,1.27-.94-.38-2.03-.86-2.58-1.64-.52-.74-.7-1.99-.46-2.86.12-.43,1.53-.76,2.32-.7,2.76.22,5.51.63,8.56,1.01-.7,1.25-1.16,2.08-1.63,2.92,0,0,0,0,0,0Z"/>
    </g>
  </g>
  <g>
    <g>
      <circle class="cls-28" cx="78.96" cy="861.13" r="18.91"/>
      <path class="cls-17" d="M78.96,881.04c-10.98,0-19.91-8.93-19.91-19.91s8.93-19.91,19.91-19.91,19.91,8.93,19.91,19.91-8.93,19.91-19.91,19.91ZM78.96,843.22c-9.87,0-17.91,8.03-17.91,17.91s8.03,17.91,17.91,17.91,17.91-8.03,17.91-17.91-8.03-17.91-17.91-17.91Z"/>
    </g>
    <path class="cls-30" d="M74.26,869.53h-2.94l4.06-6.06c.27-.41.47-.78.61-1.11.14-.33.2-.63.2-.92,0-.32-.07-.64-.2-.95-.13-.32-.34-.68-.61-1.07l-3.89-5.87h2.84l3.32,5.01c.62,1.02.93,2.01.93,2.98,0,.46-.08.94-.24,1.43-.16.49-.4.99-.72,1.5l-3.37,5.06ZM80.82,860.39v2.22h-3.22v-2.22h3.22ZM86.88,869.53h-2.91l-3.39-5.06c-.32-.51-.56-1.01-.72-1.5s-.24-.97-.24-1.43c0-1,.31-2,.93-2.98l3.29-5.01h2.86l-3.91,5.87c-.26.4-.45.76-.57,1.07-.13.32-.19.64-.19.95,0,.29.06.59.18.92.12.33.31.7.59,1.11l4.08,6.06Z"/>
  </g>
  <g>
    <g>
      <circle class="cls-28" cx="78.96" cy="913.13" r="18.91"/>
      <path class="cls-17" d="M78.96,933.04c-10.98,0-19.91-8.93-19.91-19.91s8.93-19.91,19.91-19.91,19.91,8.93,19.91,19.91-8.93,19.91-19.91,19.91ZM78.96,895.22c-9.87,0-17.91,8.03-17.91,17.91s8.03,17.91,17.91,17.91,17.91-8.03,17.91-17.91-8.03-17.91-17.91-17.91Z"/>
    </g>
    <path class="cls-30" d="M74.26,921.53h-2.94l4.06-6.06c.27-.41.47-.78.61-1.11.14-.33.2-.63.2-.92,0-.32-.07-.64-.2-.95-.13-.32-.34-.68-.61-1.07l-3.89-5.87h2.84l3.32,5.01c.62,1.02.93,2.01.93,2.98,0,.46-.08.94-.24,1.43-.16.49-.4.99-.72,1.5l-3.37,5.06ZM80.82,912.39v2.22h-3.22v-2.22h3.22ZM86.88,921.53h-2.91l-3.39-5.06c-.32-.51-.56-1.01-.72-1.5s-.24-.97-.24-1.43c0-1,.31-2,.93-2.98l3.29-5.01h2.86l-3.91,5.87c-.26.4-.45.76-.57,1.07-.13.32-.19.64-.19.95,0,.29.06.59.18.92.12.33.31.7.59,1.11l4.08,6.06Z"/>
  </g>
  <g>
    <g>
      <circle class="cls-28" cx="128.94" cy="913.13" r="18.91"/>
      <path class="cls-17" d="M128.94,933.04c-10.98,0-19.91-8.93-19.91-19.91s8.93-19.91,19.91-19.91,19.91,8.93,19.91,19.91-8.93,19.91-19.91,19.91ZM128.94,895.22c-9.88,0-17.91,8.03-17.91,17.91s8.03,17.91,17.91,17.91,17.91-8.03,17.91-17.91-8.03-17.91-17.91-17.91Z"/>
    </g>
    <path class="cls-30" d="M124.91,914.37l-3.84-8.83h2.6l3.44,8.16c.13.27.25.48.37.62.12.14.27.21.47.21s.35-.08.48-.23c.13-.15.25-.35.36-.61l3.44-8.16h2.63l-3.89,8.83c-.33.76-.76,1.34-1.28,1.73-.52.39-1.1.58-1.75.58s-1.21-.2-1.72-.58c-.51-.39-.94-.97-1.29-1.73ZM129.16,921.53h-2.43v-6.4h2.43v6.4Z"/>
  </g>
  <g>
    <g>
      <circle class="cls-28" cx="181.87" cy="913.13" r="18.91"/>
      <path class="cls-17" d="M181.87,933.04c-10.98,0-19.91-8.93-19.91-19.91s8.93-19.91,19.91-19.91,19.91,8.93,19.91,19.91-8.93,19.91-19.91,19.91ZM181.87,895.22c-9.87,0-17.91,8.03-17.91,17.91s8.03,17.91,17.91,17.91,17.91-8.03,17.91-17.91-8.03-17.91-17.91-17.91Z"/>
    </g>
    <path class="cls-30" d="M181.59,921.53h-5.49v-15.99h5.61c1.96,0,3.5.37,4.62,1.11,1.12.74,1.68,1.79,1.68,3.14,0,.88-.2,1.62-.61,2.22-.41.6-.97,1.06-1.68,1.36-.72.3-1.56.45-2.53.45v-.5c1,0,1.89.12,2.65.37.76.25,1.36.65,1.78,1.21.42.56.63,1.3.63,2.22,0,.83-.17,1.52-.51,2.09-.34.56-.82,1.02-1.42,1.36-.6.34-1.31.59-2.11.74-.8.15-1.68.23-2.61.23ZM178.53,907.57v4.99h3.25c1.34,0,2.3-.21,2.9-.63.6-.42.9-1.08.9-1.97,0-.79-.33-1.39-.98-1.79-.65-.4-1.58-.6-2.77-.6h-3.29ZM178.53,914.59v4.92h3.18c.56,0,1.08-.04,1.57-.11.49-.07.93-.19,1.3-.37.37-.17.67-.43.9-.76.22-.33.33-.77.33-1.31,0-.86-.33-1.47-.99-1.83-.66-.36-1.68-.54-3.04-.54h-3.25Z"/>
  </g>
  <g>
    <g>
      <circle class="cls-28" cx="232.06" cy="913.13" r="18.91"/>
      <path class="cls-17" d="M232.06,933.04c-10.98,0-19.91-8.93-19.91-19.91s8.93-19.91,19.91-19.91,19.91,8.93,19.91,19.91-8.93,19.91-19.91,19.91ZM232.06,895.22c-9.88,0-17.91,8.03-17.91,17.91s8.03,17.91,17.91,17.91,17.91-8.03,17.91-17.91-8.03-17.91-17.91-17.91Z"/>
    </g>
    <path class="cls-30" d="M224.73,921.53l4.37-14.06c.24-.75.63-1.3,1.18-1.67s1.15-.55,1.8-.55,1.3.18,1.84.55.93.92,1.17,1.67l4.37,14.06h-2.48l-3.96-13.34c-.16-.49-.46-.74-.91-.74s-.76.25-.91.74l-4.01,13.34h-2.46ZM236.86,917.62l-9.36.02v-2.22h9.36v2.2Z"/>
  </g>
  <g>
    <g>
      <circle class="cls-28" cx="130.79" cy="861.13" r="18.91"/>
      <path class="cls-17" d="M130.79,881.04c-10.98,0-19.91-8.93-19.91-19.91s8.93-19.91,19.91-19.91,19.91,8.93,19.91,19.91-8.93,19.91-19.91,19.91ZM130.79,843.22c-9.88,0-17.91,8.03-17.91,17.91s8.03,17.91,17.91,17.91,17.91-8.03,17.91-17.91-8.03-17.91-17.91-17.91Z"/>
    </g>
    <path class="cls-30" d="M130.79,869.82c-1.16,0-2.24-.21-3.23-.63-.99-.42-1.87-1.01-2.61-1.75s-1.33-1.63-1.75-2.64c-.42-1.01-.63-2.1-.63-3.28s.21-2.24.63-3.24c.42-.99,1.01-1.87,1.75-2.61s1.62-1.33,2.61-1.75,2.07-.63,3.23-.63,2.24.21,3.22.63c.99.42,1.85,1.01,2.6,1.75s1.33,1.62,1.74,2.61c.41,1,.62,2.07.62,3.24s-.21,2.27-.62,3.28-.99,1.89-1.74,2.64-1.62,1.33-2.6,1.75c-.99.42-2.06.63-3.22.63ZM130.79,867.5c.78,0,1.52-.16,2.21-.46.69-.31,1.3-.74,1.83-1.28.52-.54.93-1.17,1.22-1.9.29-.72.43-1.51.43-2.35s-.14-1.6-.43-2.32c-.29-.72-.69-1.34-1.22-1.89-.53-.54-1.13-.96-1.81-1.26-.68-.3-1.42-.45-2.22-.45s-1.54.15-2.24.45c-.7.3-1.31.72-1.83,1.26-.52.54-.92,1.17-1.22,1.89-.29.72-.44,1.49-.44,2.32s.15,1.63.44,2.35c.29.72.7,1.36,1.22,1.9.52.54,1.12.97,1.83,1.28.7.31,1.45.46,2.24.46Z"/>
  </g>
  <g>
    <circle class="cls-28" cx="181.87" cy="861.13" r="18.91"/>
    <path class="cls-17" d="M181.87,881.04c-10.98,0-19.91-8.93-19.91-19.91s8.93-19.91,19.91-19.91,19.91,8.93,19.91,19.91-8.93,19.91-19.91,19.91ZM181.87,843.22c-9.87,0-17.91,8.03-17.91,17.91s8.03,17.91,17.91,17.91,17.91-8.03,17.91-17.91-8.03-17.91-17.91-17.91Z"/>
  </g>
  <path class="cls-30" d="M187.32,870h-10.89c-1.89,0-3.43-1.54-3.43-3.43v-10.89c0-1.89,1.54-3.43,3.43-3.43h10.89c1.89,0,3.43,1.54,3.43,3.43v10.89c0,1.89-1.54,3.43-3.43,3.43ZM176.43,854.07c-.89,0-1.61.72-1.61,1.61v10.89c0,.89.72,1.61,1.61,1.61h10.89c.89,0,1.61-.72,1.61-1.61v-10.89c0-.89-.72-1.61-1.61-1.61h-10.89Z"/>
  <g>
    <circle class="cls-28" cx="232.06" cy="861.13" r="18.91"/>
    <path class="cls-17" d="M232.06,881.04c-10.98,0-19.91-8.93-19.91-19.91s8.93-19.91,19.91-19.91,19.91,8.93,19.91,19.91-8.93,19.91-19.91,19.91ZM232.06,843.22c-9.88,0-17.91,8.03-17.91,17.91s8.03,17.91,17.91,17.91,17.91-8.03,17.91-17.91-8.03-17.91-17.91-17.91Z"/>
  </g>
  <path class="cls-30" d="M239.24,869.86h-14.36c-.69,0-1.31-.35-1.67-.94-.36-.59-.38-1.31-.07-1.92l7-13.55c.33-.65.99-1.05,1.72-1.06,0,0,.01,0,.02,0,.72,0,1.38.39,1.72,1.02l7.37,13.55c.33.61.32,1.34-.04,1.94-.36.6-.99.96-1.68.96ZM239.24,867.86v1-1h0ZM231.83,854.38l-6.92,13.55,14.28-.06-7.36-13.49Z"/>
  <g>
    <g>
      <path class="cls-17" d="M202.71,1217.64l-57.2-37.01-60.08,33.4c-7.67,4.27-16.68-2.86-14.3-11.31l18.49-65.51-49.67-45.98c-6.4-5.92-2.54-16.62,6.16-17.1l68.68-3.81,29.56-62.11c3.75-7.87,15.11-7.38,18.16.78l23.71,63.4,67.63,7.72c8.72,1,11.9,12.03,5.05,17.52l-53.68,42.93,12.56,66.96c1.6,8.52-7.78,14.82-15.07,10.11Z"/>
      <path class="cls-30" d="M208.08,1222.19c-2.4,0-4.8-.7-6.96-2.09h0s-55.72-36.06-55.72-36.06l-58.54,32.55c-4.6,2.56-10.03,2.12-14.16-1.15s-5.81-8.45-4.38-13.52l18-63.78-48.36-44.76c-3.84-3.55-5.12-8.81-3.35-13.73s6.11-8.15,11.33-8.44l66.94-3.71,28.81-60.54c2.25-4.72,6.87-7.52,12.11-7.29,5.22.23,9.61,3.41,11.44,8.3l23.08,61.72,65.84,7.52c5.23.6,9.39,4.11,10.85,9.18,1.46,5.06-.19,10.25-4.31,13.54l-52.31,41.83,12.24,65.23c.96,5.11-1.13,10.09-5.45,12.99-2.19,1.47-4.66,2.21-7.13,2.21ZM204.3,1215.18c2.4,1.56,5.26,1.53,7.64-.06,2.38-1.6,3.48-4.23,2.96-7.04l-12.56-66.96c-.2-1.06.2-2.15,1.05-2.83l53.68-42.93c2.67-2.13,2.95-5.19,2.33-7.34-.62-2.15-2.49-4.59-5.88-4.98l-67.62-7.72c-1.09-.12-2.03-.85-2.41-1.88l-23.71-63.4c-1.19-3.17-3.98-4.41-6.2-4.5-2.23-.09-5.11.89-6.57,3.95l-29.56,62.11c-.46.97-1.41,1.61-2.48,1.67l-68.68,3.81c-3.38.19-5.39,2.49-6.15,4.58s-.67,5.14,1.82,7.45l49.67,45.98c.81.75,1.13,1.89.83,2.95l-18.49,65.51c-.93,3.29.62,5.94,2.38,7.33,1.76,1.39,4.7,2.28,7.68.62l60.08-33.4c.95-.53,2.11-.49,3.02.1l57.2,37.01h0Z"/>
    </g>
    <g>
      <path class="cls-28" d="M120.38,1148.38l-12.36.08v-57h20.07c5.42,0,10.06.82,13.93,2.46,3.87,1.64,6.86,3.98,8.98,7.03s3.18,6.8,3.18,11.26-1.03,8.43-3.09,11.56c-2.06,3.13-4.98,5.52-8.77,7.16-3.78,1.64-8.3,2.46-13.55,2.46h-11.26l1.61-11.43h9.32c2.77,0,5.11-.35,7.03-1.06,1.92-.71,3.4-1.78,4.45-3.22,1.04-1.44,1.57-3.26,1.57-5.46,0-2.09-.52-3.82-1.57-5.21-1.05-1.38-2.54-2.41-4.49-3.09-1.95-.68-4.28-1.02-6.99-1.02h-8.05v45.48Z"/>
      <path class="cls-28" d="M187.35,1148.47h-12.37v-42.51h.08c-.11,0-.18.03-.21.08-.03.06-.07.08-.13.08l-12.87,6.86-5.67-11.77,15.75-8.3c1.41-.73,2.82-1.34,4.23-1.82,1.41-.48,2.74-.72,3.98-.72,2.2,0,3.95.68,5.25,2.03,1.3,1.36,1.95,3.33,1.95,5.93v50.14Z"/>
    </g>
  </g>
  <g>
    <g>
      <path class="cls-17" d="M502.27,1210.93l-57.2-37.01-60.08,33.4c-7.67,4.27-16.68-2.86-14.3-11.31l18.49-65.51-49.67-45.98c-6.4-5.92-2.54-16.62,6.16-17.1l68.68-3.81,29.56-62.11c3.75-7.87,15.11-7.38,18.16.78l23.71,63.4,67.63,7.72c8.72,1,11.9,12.03,5.05,17.52l-53.68,42.93,12.56,66.96c1.6,8.52-7.78,14.82-15.07,10.11Z"/>
      <path class="cls-30" d="M507.64,1215.48c-2.4,0-4.8-.7-6.96-2.09l-55.72-36.06-58.54,32.55c-4.6,2.56-10.03,2.12-14.16-1.15-4.13-3.27-5.81-8.45-4.38-13.52l18-63.78-48.36-44.76c-3.84-3.55-5.12-8.81-3.35-13.73,1.77-4.92,6.12-8.15,11.33-8.44l66.94-3.71,28.82-60.54c2.25-4.72,6.87-7.5,12.11-7.29,5.22.23,9.61,3.41,11.44,8.3l23.08,61.72,65.84,7.52c5.23.6,9.39,4.11,10.85,9.17,1.46,5.06-.19,10.25-4.31,13.54l-52.31,41.83,12.24,65.23c.96,5.11-1.13,10.09-5.45,12.99-2.19,1.47-4.66,2.21-7.13,2.21ZM445.07,1170.99c.55,0,1.11.16,1.59.47l57.2,37.01h0c2.4,1.55,5.26,1.53,7.64-.06,2.38-1.6,3.48-4.23,2.96-7.04l-12.56-66.96c-.2-1.06.2-2.15,1.05-2.83l53.68-42.93c2.67-2.13,2.96-5.19,2.33-7.34-.62-2.15-2.49-4.59-5.88-4.98l-67.63-7.72c-1.09-.12-2.03-.85-2.41-1.88l-23.71-63.4c-1.19-3.17-3.98-4.41-6.2-4.5-2.22-.09-5.11.89-6.57,3.95l-29.56,62.11c-.46.97-1.41,1.61-2.48,1.67l-68.68,3.81c-3.38.19-5.39,2.49-6.15,4.58s-.67,5.15,1.82,7.45l49.67,45.98c.81.75,1.13,1.89.83,2.95l-18.49,65.51c-.93,3.29.62,5.94,2.37,7.33s4.7,2.29,7.68.62l60.08-33.4c.44-.25.93-.37,1.42-.37Z"/>
    </g>
    <g>
      <path class="cls-28" d="M416.28,1141.67l-12.36.08v-57h20.07c5.42,0,10.06.82,13.93,2.46,3.87,1.64,6.86,3.98,8.98,7.03s3.18,6.8,3.18,11.26-1.03,8.43-3.09,11.56c-2.06,3.13-4.98,5.52-8.77,7.16-3.78,1.64-8.3,2.46-13.55,2.46h-11.26l1.61-11.43h9.32c2.77,0,5.11-.35,7.03-1.06,1.92-.71,3.4-1.78,4.45-3.22,1.04-1.44,1.57-3.26,1.57-5.46,0-2.09-.52-3.82-1.57-5.21-1.05-1.38-2.54-2.41-4.49-3.09-1.95-.68-4.28-1.02-6.99-1.02h-8.05v45.48Z"/>
      <path class="cls-28" d="M495.9,1141.76h-31c-2.94,0-5.15-.73-6.65-2.2-1.5-1.47-2.25-3.22-2.25-5.25,0-1.64.34-3.12,1.02-4.45.68-1.33,1.72-2.58,3.13-3.77l15.33-13.38c2.15-1.92,3.77-3.66,4.87-5.21,1.1-1.55,1.65-3.34,1.65-5.38,0-1.24-.33-2.37-.97-3.39-.65-1.02-1.57-1.85-2.75-2.5-1.19-.65-2.57-.97-4.15-.97-2.43,0-4.59.75-6.48,2.24-1.89,1.5-3.35,3.35-4.36,5.55l-9.48-5.33c1.24-2.65,2.88-5.05,4.91-7.2,2.03-2.15,4.45-3.83,7.24-5.04s5.86-1.82,9.19-1.82c3.78,0,7.11.79,9.99,2.37,2.88,1.58,5.14,3.68,6.77,6.31,1.64,2.62,2.46,5.52,2.46,8.68,0,3.56-.71,6.69-2.12,9.4-1.41,2.71-3.42,5.22-6.01,7.54l-14.14,12.45c-.11.11-.18.17-.21.17-.03,0-.04.03-.04.08,0-.05-.04-.13-.13-.21-.08-.08-.18-.13-.3-.13h24.47v11.43Z"/>
    </g>
  </g>
</svg>