<?xml version="1.0" encoding="UTF-8"?>
<svg id="Layer_1" data-name="Layer 1" xmlns="http://www.w3.org/2000/svg" version="1.1" viewBox="0 0 231.72 222.53">
  <defs>
    <style>
      .cls-1 {
        fill: #6dd6a2;
      }

      .cls-1, .cls-2, .cls-3 {
        stroke-width: 0px;
      }

      .cls-2 {
        fill: #16153b;
      }

      .cls-3 {
        fill: #fff;
      }
    </style>
  </defs>
  <g>
    <path class="cls-1" d="M168.88,217.98l-57.2-37.01-60.08,33.4c-7.67,4.27-16.68-2.86-14.3-11.31l18.49-65.51L6.12,91.58c-6.4-5.92-2.54-16.62,6.16-17.1l68.68-3.81,29.56-62.11c3.75-7.87,15.11-7.38,18.16.78l23.71,63.4,67.63,7.72c8.72,1,11.9,12.03,5.05,17.52l-53.68,42.93,12.56,66.96c1.6,8.52-7.78,14.82-15.07,10.11Z"/>
    <path class="cls-3" d="M174.24,222.53c-2.4,0-4.8-.7-6.96-2.09h0s-55.72-36.06-55.72-36.06l-58.54,32.55c-4.6,2.56-10.03,2.12-14.16-1.15s-5.81-8.45-4.38-13.52l18-63.78L4.13,93.73c-3.84-3.55-5.12-8.81-3.35-13.73s6.11-8.15,11.33-8.44l66.94-3.71L107.87,7.3C110.12,2.58,114.74-.22,119.99.01c5.22.23,9.61,3.41,11.44,8.3l23.08,61.72,65.84,7.52c5.23.6,9.39,4.11,10.85,9.18,1.46,5.06-.19,10.25-4.31,13.54l-52.31,41.83,12.24,65.23c.96,5.11-1.13,10.09-5.45,12.99-2.19,1.47-4.66,2.21-7.13,2.21ZM170.47,215.52c2.4,1.56,5.26,1.53,7.64-.06,2.38-1.6,3.48-4.23,2.96-7.04l-12.56-66.96c-.2-1.06.2-2.15,1.05-2.83l53.68-42.93c2.67-2.13,2.95-5.19,2.33-7.34-.62-2.15-2.49-4.59-5.88-4.98l-67.62-7.72c-1.09-.12-2.03-.85-2.41-1.88l-23.71-63.4c-1.19-3.17-3.98-4.41-6.2-4.5-2.23-.09-5.11.89-6.57,3.95l-29.56,62.11c-.46.97-1.41,1.61-2.48,1.67l-68.68,3.81c-3.38.19-5.39,2.49-6.15,4.58s-.67,5.14,1.82,7.45l49.67,45.98c.81.75,1.13,1.89.83,2.95l-18.49,65.51c-.93,3.29.62,5.94,2.38,7.33,1.76,1.39,4.7,2.28,7.68.62l60.08-33.4c.95-.53,2.11-.49,3.02.1l57.2,37.01h0Z"/>
  </g>
  <g>
    <path class="cls-2" d="M86.55,148.72l-12.36.08v-57h20.07c5.42,0,10.06.82,13.93,2.46,3.87,1.64,6.86,3.98,8.98,7.03s3.18,6.8,3.18,11.26-1.03,8.43-3.09,11.56c-2.06,3.13-4.98,5.52-8.77,7.16-3.78,1.64-8.3,2.46-13.55,2.46h-11.26l1.61-11.43h9.32c2.77,0,5.11-.35,7.03-1.06,1.92-.71,3.4-1.78,4.45-3.22,1.04-1.44,1.57-3.26,1.57-5.46,0-2.09-.52-3.82-1.57-5.21-1.05-1.38-2.54-2.41-4.49-3.09-1.95-.68-4.28-1.02-6.99-1.02h-8.05v45.48Z"/>
    <path class="cls-2" d="M153.51,148.81h-12.37v-42.51h.08c-.11,0-.18.03-.21.08-.03.06-.07.08-.13.08l-12.87,6.86-5.67-11.77,15.75-8.3c1.41-.73,2.82-1.34,4.23-1.82,1.41-.48,2.74-.72,3.98-.72,2.2,0,3.95.68,5.25,2.03,1.3,1.36,1.95,3.33,1.95,5.93v50.14Z"/>
  </g>
</svg>