<?xml version="1.0" encoding="UTF-8"?>
<svg id="Layer_1" data-name="Layer 1" xmlns="http://www.w3.org/2000/svg" version="1.1" viewBox="0 0 107.82 140.58">
  <defs>
    <style>
      .cls-1 {
        fill: #a8e7c7;
      }

      .cls-1, .cls-2, .cls-3, .cls-4, .cls-5, .cls-6, .cls-7 {
        stroke-width: 0px;
      }

      .cls-2 {
        fill: #b6ebd0;
      }

      .cls-3 {
        fill: #6dd6a2;
      }

      .cls-4 {
        fill: #88c4a6;
      }

      .cls-5 {
        fill: #77bc9a;
      }

      .cls-6 {
        fill: #c5efda;
      }

      .cls-7 {
        fill: #55ab80;
      }
    </style>
  </defs>
  <path class="cls-2" d="M87.75,70.94c2.02,1.72,3.71,3.72,5.06,6.02.5.86,1.14,1.64,1.71,2.45.28.58.62,1.13.84,1.73.83,2.25,2.07,4.47,2.3,6.79.25,2.53-.44,5.16-.73,7.75-1.79-.96-3.62-.87-5.51-.28-.88.27-1.81.41-2.73.5-6.57.69-13.14,1.48-19.73,1.99-6.19.47-12.4.63-18.59.93.21-.24.45-.47.61-.73,1.03-1.68,2.03-3.38,3.05-5.07,1.4-3.1,2.12-6.31,1.41-9.72-.07-.31-.15-.63-.21-.94-.52-2.45-2.53-3.94-4.84-3.36-1.42.35-2.47,1.36-3.44,2.5-2.4,2.85-3.56,6.16-4.03,9.78-.05.56-.12,1.11-.13,1.67-.04,1.72.07,3.42,1.06,4.92.17.4.35.79.52,1.19-5.07,0-10.13.07-15.2,0-3.34-.05-6.67-.22-10-.48-1.68-.13-3.09.3-4.42,1.23-.78-.63-1.86-1.11-2.27-1.93-1.7-3.35-2.96-6.85-1.55-10.66.91-2.46,1.9-4.88,2.85-7.32.79-1.29,1.53-2.61,2.38-3.86.49-.71,1.15-1.3,1.74-1.94,3.97-1.99,8.25-3.08,12.58-3.8,6.01-1,12.04-1.85,18.09-2.54,8.25-.93,16.53-.57,24.77.18,4.9.45,9.8,1.1,14.41,3.01ZM27.62,88.17c.81-2.05,1.7-4.07,2.39-6.17.31-.95.21-2.03.3-3.05-.24-3.55-3.16-5.36-6.21-3.08-3.37,2.51-4.93,6.12-5.76,10.11-.35,2.23-.67,4.46.52,6.57.97,2.41,3.08,3.16,4.88,1.32,1.58-1.62,2.61-3.78,3.89-5.7Z"/>
  <path class="cls-2" d="M13.78,79.9c-.95,2.44-1.95,4.86-2.85,7.32-1.41,3.82-.15,7.31,1.55,10.66.42.82,1.5,1.29,2.27,1.93,1.81,1.34,3.44,3.11,5.46,3.95,6.34,2.63,12.82,4.91,19.78,5.41,3.3.24,6.57.83,9.87,1.01,2.65.14,5.32-.09,7.99-.19,2.3-.08,4.65.09,6.88-.35,7.43-1.46,15.07-2.17,21.89-5.89,1.59-.87,3.34-1.47,4.8-2.5,1.53-1.09,2.82-2.53,4.17-3.86.51-.5.9-1.12,1.35-1.69.28-2.59.98-5.21.73-7.75-.23-2.32-1.47-4.54-2.3-6.79-.22-.6-.56-1.15-.84-1.73,2.65,1.66,5.45,3.12,7.89,5.04,1.38,1.09,2.19,2.91,3.26,4.4.3.82.83,1.64.84,2.47.03,1.77-.15,3.55-.39,5.3-.1.7-.47,1.45-.92,2.01-1.25,1.52-2.53,3.05-3.97,4.4-1.22,1.14-2.6,2.13-4.03,3-1.34.81-2.84,1.36-4.25,2.06-3.98,1.98-8.02,3.72-12.49,4.42-3.66.57-7.27,1.51-10.91,2.27-.95.2-1.9.44-2.86.48-5.4.21-10.81.31-16.2.54-5.79.25-11.4-1.06-17.07-1.79-4.04-.52-8.08-1.05-11.86-2.76-2.09-.95-4.26-1.74-6.44-2.47-2.57-.86-4.76-2.23-6.84-3.97-3.19-2.67-6.32-5.19-6.62-9.84-.09-1.41-.33-2.68.48-3.92.33-.5.59-1.06.82-1.62.06-.14-.07-.37-.12-.56.56-.82.95-1.86,1.7-2.43,3.02-2.27,6.15-4.39,9.23-6.56Z"/>
  <path class="cls-3" d="M106.37,112.44c-.17,1.88-.31,3.77-.52,5.65-.04.37-.29.75-.52,1.07-1.35,1.86-2.87,3.62-4.05,5.58-1.63,2.69-4.31,3.91-6.83,5.39-2.47,1.45-4.94,2.9-7.43,4.31-.62.35-1.31.63-2.01.81-5.42,1.43-10.84,2.88-16.29,4.19-1.67.4-3.43.5-5.15.58-3.46.15-6.93.18-10.4.28-1.29.04-2.57.14-3.86.24-3.56.26-6.97-.7-10.42-1.27-3.82-.63-7.64-1.29-11.41-2.14-1.7-.38-3.32-1.21-4.93-1.94-3.42-1.55-6.81-3.15-10.2-4.76-.46-.22-.87-.59-1.23-.96-2.11-2.17-4.17-4.39-6.31-6.53-1.46-1.46-1.77-3.28-1.93-5.18.26-1.08.78-1.2,1.61-.5.77.65,1.62,1.21,2.38,1.88,2.85,2.49,5.88,4.63,9.67,5.5,1.29.29,2.49.95,3.76,1.35,2.88.91,5.74,1.89,8.67,2.58,2.23.53,4.55.66,6.83.96,3.52.46,7.03,1.16,10.57,1.32,3.9.17,7.82-.15,11.73-.28,2.7-.09,5.44.01,8.09-.4,4.38-.68,8.71-1.68,13.05-2.61,3.15-.67,6.35-1.12,9.3-2.6,3.28-1.65,6.64-3.14,9.95-4.73.57-.27,1.12-.67,1.56-1.12,2.13-2.2,4.23-4.44,6.33-6.67Z"/>
  <path class="cls-2" d="M106.37,112.44c-2.11,2.23-4.2,4.47-6.33,6.67-.44.45-.99.85-1.56,1.12-3.31,1.6-6.67,3.09-9.95,4.73-2.94,1.48-6.15,1.93-9.3,2.6-4.34.93-8.67,1.92-13.05,2.61-2.65.41-5.39.31-8.09.4-3.91.13-7.83.45-11.73.28-3.54-.16-7.05-.86-10.57-1.32-2.28-.3-4.6-.43-6.83-.96-2.93-.69-5.79-1.68-8.67-2.58-1.27-.4-2.47-1.05-3.76-1.35-3.79-.87-6.82-3.01-9.67-5.5-.76-.66-1.61-1.23-2.38-1.88-.83-.7-1.36-.58-1.61.5-.55-3.32-1.18-6.63-1.59-9.97-.12-1.02.39-2.11.61-3.17,1.76,1.63,3.52,3.27,5.29,4.9,1.92,1.76,3.8,3.58,6.39,4.35,1.04.88,2.08,1.75,3.12,2.63,2.47,1,4.92,2.03,7.4,2.99,2.18.84,4.35,1.75,6.6,2.32,2.34.59,4.76.81,7.16,1.17,3.11.47,6.21,1.21,9.33,1.31,4.83.15,9.68-.02,14.5-.28,2.84-.15,5.66-.71,8.47-1.15,1.19-.18,2.36-.53,3.55-.76,5.48-1.07,10.84-2.46,15.69-5.39,1.38-.83,2.95-1.34,4.3-2.22.97-.63,1.71-1.62,2.55-2.45,2.14-1.09,4.38-1.99,5.93-4.02,1.28-1.69,2.8-3.21,4.21-4.81.85,2.1.1,4.25.21,6.38.05.95-.13,1.9-.2,2.86Z"/>
  <path class="cls-6" d="M87.75,70.94c-4.61-1.91-9.51-2.56-14.41-3.01-8.24-.75-16.52-1.11-24.77-.18-6.05.68-12.09,1.54-18.09,2.54-4.34.72-8.61,1.81-12.58,3.8,2.07-2.72,5-4.4,7.69-6.37,1.43-1.04,2.99-1.89,4.5-2.82,5.07-2.15,10.22-4,15.71-4.74,1.04-.14,2.08-.31,3.12-.33,1.2-.02,1.49-.62,1.48-1.69-.03-4.24.02-8.48-.02-12.72-.06-7.47-.14-14.93-.24-22.39-.03-1.97-.17-3.95-.27-5.92,0-.09,0-.17,0-.26.01-.06.02-.13.01-.19,0,0,.12.01.12.01.05.07.1.14.15.21.08,4.88.17,9.76.24,14.65.03,2.1.02,4.2.05,6.3.1,7.74.23,15.49.3,23.23,0,.93.31,1.53,1.19,1.66,1.03.15,2.09.23,3.13.19,2.27-.09,2.62-.49,2.62-2.78,0-14.42,0-28.83,0-43.25.07,0,.15,0,.22-.02.02.1.03.19.05.29,0,4.43,0,8.86.01,13.3,0,9.28-.01,18.56-.03,27.84,0,.98.31,1.47,1.38,1.52,4.34.21,8.5,1.24,12.65,2.48,5.66,1.7,10.6,4.66,15.26,8.17.19.14.36.32.53.49Z"/>
  <path class="cls-3" d="M106.36,103.21c-1.41,1.6-2.92,3.12-4.21,4.81-1.55,2.04-3.79,2.93-5.93,4.02-3.17,1.59-6.34,3.19-9.53,4.75-.61.3-1.27.54-1.93.69-2.67.62-5.37,1.11-8.02,1.8-6.43,1.69-12.94,2.56-19.6,2.37-2.94-.08-5.88.14-8.82.23-.88.03-1.77.18-2.63.06-4.46-.64-8.92-1.36-13.38-2.03-3.39-.51-6.76-1.01-9.91-2.53-1.85-.89-3.82-1.52-5.73-2.27-1.04-.41-2.08-.83-3.12-1.24-2.59-.77-4.48-2.59-6.39-4.35-1.77-1.63-3.53-3.26-5.29-4.9-.24-1.2-.49-2.41-.73-3.61.77.87,1.47,1.82,2.32,2.6,1.66,1.54,3.37,3.01,5.11,4.45.83.68,1.72,1.34,2.69,1.79,1.65.76,3.37,1.36,5.06,2.01,4.74,1.81,9.4,3.78,14.55,4.37,7.68.89,15.27,2.64,23.09,2.01,3.05-.25,6.13-.12,9.19-.31,2.57-.16,5.14-.44,7.68-.86,2.78-.47,5.55-1.1,8.29-1.78,3.44-.86,6.94-1.58,10.23-2.85,3.68-1.42,7.15-3.37,10.69-5.14.59-.3,1.1-.8,1.56-1.3,2.01-2.21,3.98-4.44,5.97-6.67-.22,1.35-.18,2.78-1.22,3.86Z"/>
  <path class="cls-3" d="M107.58,99.34c-1.99,2.23-3.96,4.46-5.97,6.67-.45.5-.97,1.01-1.56,1.3-3.54,1.77-7.01,3.72-10.69,5.14-3.29,1.27-6.79,1.99-10.23,2.85-2.74.69-5.5,1.31-8.29,1.78-2.54.43-5.11.7-7.68.86-3.06.19-6.14.06-9.19.31-7.82.63-15.41-1.12-23.09-2.01-5.16-.6-9.81-2.56-14.55-4.37-1.7-.65-3.42-1.25-5.06-2.01-.97-.45-1.86-1.11-2.69-1.79-1.74-1.44-3.45-2.92-5.11-4.45-.85-.79-1.55-1.73-2.32-2.6-.39-1.99-.83-3.98-1.15-5.99-.08-.48.28-1.03.43-1.55.27.97.66,1.93.77,2.92.34,3.04,1.82,5.24,4.23,7.13,3.11,2.44,5.94,5.19,9.91,6.29,1.9.53,3.69,1.43,5.56,2.07,2.29.78,4.57,1.61,6.92,2.16,2.35.55,4.78.79,7.18,1.12,3.6.5,7.19,1.15,10.8,1.38,3.49.23,7.01.02,10.51-.03,5.85-.08,11.69-.18,17.41-1.71,6.05-1.62,12.49-1.83,18.1-5.09,1.67-.97,3.44-1.81,5.24-2.52,1.95-.76,3.48-2.01,4.83-3.54.64-.73,1.23-1.51,1.95-2.15,2.41-2.14,3.63-4.73,3.32-8.01-.06-.64.3-1.31.46-1.97.07,1.04.21,2.07.19,3.11-.02,1.56-.16,3.13-.24,4.69Z"/>
  <path class="cls-3" d="M107.63,91.54c-.16.66-.52,1.33-.46,1.97.3,3.28-.91,5.87-3.32,8.01-.72.64-1.31,1.42-1.95,2.15-1.35,1.53-2.88,2.77-4.83,3.54-1.8.7-3.57,1.55-5.24,2.52-5.61,3.26-12.04,3.47-18.1,5.09-5.72,1.53-11.56,1.63-17.41,1.71-3.51.05-7.02.25-10.51.03-3.62-.23-7.21-.88-10.8-1.38-2.4-.33-4.82-.58-7.18-1.12-2.35-.54-4.63-1.37-6.92-2.16-1.87-.64-3.66-1.55-5.56-2.07-3.97-1.1-6.8-3.86-9.91-6.29-2.4-1.88-3.88-4.09-4.23-7.13-.11-.99-.51-1.95-.77-2.92.8-1.53,1.61-3.06,2.41-4.59.04.19.18.42.12.56-.24.56-.49,1.11-.82,1.62-.81,1.25-.57,2.52-.48,3.92.3,4.65,3.44,7.17,6.62,9.84,2.08,1.74,4.27,3.11,6.84,3.97,2.18.73,4.35,1.52,6.44,2.47,3.78,1.71,7.81,2.24,11.86,2.76,5.68.73,11.28,2.04,17.07,1.79,5.4-.23,10.8-.33,16.2-.54.96-.04,1.92-.28,2.86-.48,3.64-.76,7.24-1.7,10.91-2.27,4.47-.7,8.51-2.44,12.49-4.42,1.41-.7,2.91-1.24,4.25-2.06,1.43-.87,2.81-1.86,4.03-3,1.44-1.35,2.72-2.87,3.97-4.4.46-.56.83-1.31.92-2.01.24-1.75.41-3.54.39-5.3-.01-.83-.54-1.65-.84-2.47.65.89,1.3,1.79,1.95,2.68Z"/>
  <path class="cls-3" d="M50.15,16.88c-.05-.07-.1-.14-.15-.21-1.05-1.14-2.26-2.17-3.1-3.45-.63-.96-.77-2.23-1.12-3.36.47-.83.85-1.73,1.42-2.48,1.37-1.78,3.42-2.36,5.5-2.74,4-.73,7.35.73,9.32,3.99.12,2.98-1.05,5.35-3.36,7.2-.32.26-.52.68-.77,1.03-.07,0-.15.01-.22.02-.51.08-1.03.23-1.54.21-1.99-.04-3.99-.14-5.98-.21Z"/>
  <path class="cls-1" d="M62.02,8.63c-1.96-3.26-5.31-4.72-9.32-3.99-2.08.38-4.13.96-5.5,2.74-.58.75-.95,1.65-1.42,2.48-.86-3.43,1.27-7.56,4.73-9.14,3.43-1.57,7.64-.47,9.81,2.61,1.12,1.58,1.82,3.32,1.69,5.31Z"/>
  <path class="cls-3" d="M96.94,95.68c-.45.57-.84,1.19-1.35,1.69-1.35,1.33-2.64,2.78-4.17,3.86-1.46,1.04-3.22,1.64-4.8,2.5-6.82,3.72-14.47,4.43-21.89,5.89-2.23.44-4.59.27-6.88.35-2.66.09-5.33.33-7.99.19-3.3-.17-6.57-.77-9.87-1.01-6.96-.5-13.44-2.78-19.78-5.41-2.02-.84-3.65-2.61-5.46-3.95,1.33-.94,2.74-1.36,4.42-1.23,3.33.26,6.66.43,10,.48,5.06.07,10.13.01,15.2,0,1.32,1.05,2.76,1.33,4.33.64.58-.26,1.12-.58,1.69-.88,6.2-.3,12.41-.46,18.59-.93,6.59-.5,13.15-1.3,19.73-1.99.92-.1,1.85-.23,2.73-.5,1.89-.58,3.72-.68,5.51.28Z"/>
  <path class="cls-5" d="M55.44,83.3c.71,3.41,0,6.61-1.41,9.72-.72.17-1.5.22-2.15.53-1.26.6-2.46,1.35-3.69,2.01-1.44.78-2.9,1.54-4.35,2.31-.99-1.5-1.1-3.2-1.06-4.92.01-.56.09-1.11.13-1.67,1.67-2.57,4.19-4.24,6.61-5.94,1.71-1.2,3.58-2.4,5.91-2.04Z"/>
  <path class="cls-5" d="M18.86,92.55c-1.18-2.11-.87-4.34-.52-6.57,2.6-2.94,5.5-5.46,9.27-6.79-.28,1.37-.43,2.78-.87,4.09-.74,2.15-1.67,4.23-2.52,6.33-1.78.98-3.57,1.96-5.35,2.94Z"/>
  <path class="cls-4" d="M55.44,83.3c-2.32-.36-4.2.84-5.91,2.04-2.42,1.7-4.94,3.37-6.61,5.94.47-3.62,1.63-6.93,4.03-9.78.97-1.14,2.02-2.15,3.44-2.5,2.31-.57,4.32.91,4.84,3.36.07.31.14.63.21.94Z"/>
  <path class="cls-4" d="M27.61,79.2c-3.77,1.33-6.67,3.85-9.27,6.79.83-3.99,2.39-7.6,5.76-10.11,3.05-2.28,5.97-.47,6.21,3.08-.9.08-1.8.16-2.7.24Z"/>
  <path class="cls-7" d="M43.85,97.87c1.45-.77,2.91-1.53,4.35-2.31,1.23-.67,2.42-1.42,3.69-2.01.65-.31,1.43-.36,2.15-.53-1.01,1.69-2.02,3.39-3.05,5.07-.16.27-.41.49-.61.73-.56.29-1.11.62-1.69.88-1.57.7-3.01.41-4.33-.64-.17-.4-.35-.79-.52-1.19Z"/>
  <path class="cls-5" d="M27.61,79.2c.9-.08,1.8-.16,2.7-.24-.09,1.02,0,2.1-.3,3.05-.69,2.09-1.58,4.11-2.39,6.17-1.14.48-2.27.96-3.41,1.44.85-2.11,1.79-4.19,2.52-6.33.45-1.31.59-2.72.87-4.09Z"/>
  <path class="cls-7" d="M24.21,89.62c1.14-.48,2.27-.96,3.41-1.44-1.27,1.92-2.3,4.08-3.88,5.7-1.79,1.84-3.91,1.1-4.88-1.32,1.78-.98,3.57-1.96,5.35-2.94Z"/>
  <path class="cls-5" d="M16.69,115.12c1.91.75,3.88,1.38,5.73,2.27,3.15,1.51,6.52,2.01,9.91,2.53,4.46.67,8.91,1.39,13.38,2.03.86.12,1.75-.04,2.63-.06,2.94-.09,5.88-.31,8.82-.23,6.66.19,13.17-.69,19.6-2.37,2.65-.69,5.35-1.18,8.02-1.8.66-.15,1.32-.39,1.93-.69,3.19-1.57,6.35-3.17,9.53-4.75-.84.83-1.58,1.82-2.54,2.45-1.34.88-2.92,1.39-4.3,2.22-4.85,2.93-10.21,4.32-15.69,5.39-1.19.23-2.35.58-3.55.76-2.82.43-5.64.99-8.47,1.15-4.83.26-9.68.44-14.5.28-3.12-.1-6.22-.84-9.33-1.31-2.39-.36-4.82-.58-7.16-1.17-2.25-.57-4.42-1.48-6.6-2.32-2.48-.95-4.94-1.99-7.4-2.99,0-.46,0-.93,0-1.39Z"/>
  <path class="cls-7" d="M16.69,115.12c0,.46,0,.93,0,1.39-1.04-.88-2.08-1.75-3.12-2.63,1.04.41,2.08.83,3.12,1.24Z"/>
  <path class="cls-1" d="M50.15,16.88c1.99.08,3.99.17,5.98.21.51.01,1.03-.14,1.54-.21,0,14.42,0,28.83,0,43.25,0,2.29-.34,2.69-2.62,2.78-1.04.04-2.1-.04-3.13-.19-.88-.13-1.18-.73-1.19-1.66-.07-7.74-.2-15.49-.3-23.23-.03-2.1-.02-4.2-.05-6.3-.07-4.88-.16-9.76-.24-14.65Z"/>
</svg>