<?xml version="1.0" encoding="UTF-8"?>
<svg id="Layer_1" data-name="Layer 1" xmlns="http://www.w3.org/2000/svg" version="1.1" viewBox="0 0 171.35 158.33">
  <defs>
    <style>
      .cls-1 {
        fill: #99cdb3;
      }

      .cls-1, .cls-2, .cls-3, .cls-4, .cls-5, .cls-6, .cls-7, .cls-8, .cls-9, .cls-10, .cls-11, .cls-12, .cls-13, .cls-14, .cls-15, .cls-16, .cls-17 {
        stroke-width: 0px;
      }

      .cls-2 {
        fill: #a2d1b9;
      }

      .cls-3 {
        fill: #505050;
      }

      .cls-4 {
        fill: #a8e7c7;
      }

      .cls-5 {
        fill: #8adeb4;
      }

      .cls-6 {
        fill: #b6ebd0;
      }

      .cls-7 {
        fill: #6dd6a2;
      }

      .cls-8 {
        fill: #e2f7ec;
      }

      .cls-9 {
        fill: #aad5c0;
      }

      .cls-10 {
        fill: #80c0a0;
      }

      .cls-11 {
        fill: #88c4a6;
      }

      .cls-12 {
        fill: #303030;
      }

      .cls-13 {
        fill: #77bc9a;
      }

      .cls-14 {
        fill: #7cdaab;
      }

      .cls-15 {
        fill: #c4e2d3;
      }

      .cls-16 {
        fill: #c5efda;
      }

      .cls-17 {
        fill: #55ab80;
      }
    </style>
  </defs>
  <polyline class="cls-17" points="127.54 71.72 103.61 126.37 86.72 136.41 76.77 129.23 82.93 112.93 110.27 72.51 127.54 71.72"/>
  <g>
    <path class="cls-14" d="M146.35,5.32c-.08.09-.16.19-.25.28-.19.45-.38.9-.57,1.35-.15.27-.31.54-.46.81-.11.18-.22.36-.33.54-.09.18-.17.36-.26.54-.09.18-.18.36-.27.53.04.01-.05.05,0,.06l-.72,1.4c-.37.32-.67.76-.93,1.31-.98,2.06-2.09,4.05-3.14,6.07-.64-.27-1.27-.54-1.91-.81,1.24-2.25,2.49-4.49,3.84-6.94.04-.04.47-1.04.47-1.08.09-.18.18-.36.28-.54.09-.18.19-.36.28-.54.09-.18.18-.35.27-.53.18-.27.36-.54.55-.81.15-.27.31-.55.46-.82.01-.09.03-.18.04-.27.35-.63.71-1.25,1.06-1.88.53.44,1.07.88,1.6,1.32Z"/>
    <path class="cls-17" d="M135.4,52.81c-.56-6.13-1.34-12.21-3.97-17.84-1.64-3.53-3.65-6.86-7.45-8.59-.64-.29-1.2-.76-1.79-1.15-1.88.08-3.76.16-5.64.24l-.05.02c.8.2,1.59.48,2.4.58,4.01.5,7.17,2.29,9.2,5.88,1.42,1.71,2.28,3.68,3.08,5.75,2.38,6.08,3.02,12.4,3.09,18.83,0,.54-.04,1.07-.08,1.61-.08,1.26-.73,1.81-2.02,1.77-3.35-.12-6.71-.22-10.06-.27-2.47-.04-2.59.12-2.62,2.55,0,.39-.03.78-.27,1.18,0-.84-.05-1.67,0-2.5.09-1.28-.4-2.22-1.59-2.67-1.87-.7-2.31-2.07-2.51-3.97-.75-6.92-.93-13.99-3.6-20.55-1.4-3.45-2.83-7.02-6.52-8.85-.31-.15-.56-.44-.83-.67-1.79,0-3.58,0-5.37-.01-.56.45-1.12.91-1.67,1.36.96,0,1.98.18,2.88-.05,2.65-.69,4.53.56,6.32,2.2.45.48.98.91,1.35,1.44,2.35,3.3,3.86,7.01,4.51,10.96.75,4.62,1.17,9.3,1.62,13.96.15,1.57-.25,1.85-1.89,1.85-8.42.01-16.84.07-25.26-.02-9.35-.1-18.7-.33-28.05-.52-1.92-.04-3.85-.16-5.76-.27-.88-.05-1.34.3-1.41,1.2-.08,1.02-.19,2.04-.41,3.07-.02-.46.06-.96-.09-1.36-.29-.74-.57-1.65-1.15-2.09-1.1-.82-1.49-1.76-1.52-3.08-.12-4.56-.18-9.13-.56-13.67-.21-2.42-1.03-4.79-1.57-7.18-.71-.37-1.43-.74-2.14-1.1-.17.19-.33.38-.5.57,1.89.2,2.7,1.53,3,3.15.5,2.68,1.04,5.37,1.18,8.08.2,3.89.1,7.79.03,11.68-.04,2.25-.23,2.38-2.4,2.33-7.07-.16-14.13-.36-21.2-.54-.27.52-.7,1.01-.79,1.56-.03.22-.06.43-.09.64-.11.81-.21,1.62-.31,2.44-.03.21-.06.41-.09.62-.03.22-.06.44-.1.67-.03.19-.06.38-.1.58.01-.08.02-.16.03-.23,0-.08.01-.15.02-.23.08-1.59-.64-2.93-1.28-4.36-.41-.91-.2-2.11-.25-3.17-.02-.48,0-.95-.14-1.43-.29,3.01-.61,6.02-.86,9.04-.09,1.12-.5,1.55-1.69,1.47-1.74-.12-3.49-.08-5.23,0-.93.04-1.42-.19-1.53-1.19-.22-2.04-.51-4.08-.77-6.12-.34-1.71-1.36-2.9-2.7-4-2.43-2-3.66-4.43-3.33-7.85.51-5.33.49-10.72.63-16.09.02-.81-.33-1.63-.51-2.44-.37,1.05-.95,2.07-1.09,3.14-.78,6.11-1.45,12.24-2.16,18.36-.11,1.25-.23,2.49-.32,3.74-.34,4.45-.7,8.91-.99,13.36-.21,3.3-.45,6.6-.47,9.9-.02,2.08.23,4.18.57,6.24.11.67.74,1.53,1.36,1.81,2.52,1.12,5.11,1.55,7.74.14,1.69-.91,3.45-1.7,5.2-2.49.38-.17.92-.32,1.27-.19,1.11.41,1.98.04,2.88-.56.39-.26.89-.46,1.35-.47,6.25-.21,12.51-.4,18.76-.53.62-.01,1.32.26,1.84.61,1.28.88,2.56.78,3.96.41.92-.24,1.93-.47,2.85-.35,4.56.6,9.11,1.33,13.66,2.01,6.9,1.38,13.79,2.75,20.69,4.13.26.05.52.11.78.16.82.18,1.65.36,2.48.53,2.5.61,5,1.22,7.49,1.84,1.3-1.97,2.62-3.92,3.9-5.91,3-4.65,5.99-9.31,8.98-13.97.36-.27.71-.54,1.07-.81,3.17-.62,6.33-1.25,9.5-1.86,1.13-.22,2.27-.4,3.41-.59,1.27-1.06,2.53-2.11,3.8-3.17,4.08-1.74,7.76-.58,11.29,1.6.45.19.91.38,1.36.57.15-.56.3-1.12.45-1.67.1-.09.2-.19.3-.28h0c-1.34-2.83-1.27-5.93-1.55-8.93ZM.75,75.91c.41-7.93-.53-15.98,1.89-23.7.25.02.49.05.74.07-.45,7.92-1.24,15.8-2.63,23.63Z"/>
    <path class="cls-6" d="M127.28,70.64c-4.25.83-8.52,1.58-12.75,2.51-2.31.51-4.04.1-5.48-1.92-.88-1.24-2.17-2.2-3.28-3.28-2.99,4.66-5.98,9.32-8.98,13.97-1.28,1.98-2.6,3.94-3.9,5.91-.98,1.62-1.95,3.24-2.92,4.87-.19.27-.37.53-.56.8-.36.61-.71,1.23-1.09,1.83-.86,1.34-2.1,1.4-2.96.06-1.56-2.44-3.02-4.94-2.38-8.04,0-.37-.01-.73-.02-1.09l-.05-.79c-.26-.05-.52-.11-.78-.16-6.9-1.38-13.79-2.75-20.69-4.13-.61,1.39-1.24,2.78-1.82,4.18-1.2,2.93-2.76,5.72-2.96,9-.09,1.45.2,2.54,1.55,3.24.42.22.92.53,1.1.94,1.32,3,3.82,4.93,6.21,6.93,2.5,2.08,5.06,4.09,7.71,5.97,1.05.74,2.41,1.03,3.7,1.56-.16.34-.32.65-.45.98-.91,2.32-1.88,4.61-2.68,6.97-.21.64-.07,1.53.2,2.18.84,2.07,1.82,4.08,2.75,6.12.64-.77,1.42-1.48,1.92-2.34,1.5-2.58,2.77-5.31,4.36-7.83,6.48-10.26,13.04-20.47,19.56-30.7,2.65-4.15,5.26-8.33,7.96-12.45.39-.6,1.13-1.2,1.81-1.33,5.04-1.02,10.1-1.92,15.16-2.86-.09-.36-.18-.71-.27-1.07ZM83.66,102.64c-.67.99-1.36,1.97-2.04,2.95-.27.45-.53.91-.79,1.36-.47.78-.95,1.57-1.43,2.38-1.9-1.75-2.26-3.66-1.28-6.18.26-.18.53-.36.79-.55,1.16-1.1,2.6-1.28,4.08-1.2.74.04,1.23.41.67,1.23Z"/>
    <path class="cls-17" d="M125.21,130.65c-.43-3.58-2.25-6.31-5.37-8.2-1.96-1.18-4.11-1.59-6.29-1.59-4.08,0-7.8,1.45-11.23,3.55-.23.14-.46.29-.69.44-.23.15-.46.3-.68.45-.23.15-.45.31-.68.47-.67.47-1.34.95-2,1.44-.44.32-.89.64-1.34.96-1.59,2.29-3.2,4.57-4.75,6.89-1.13,1.69-1.72,1.77-3.18.38-.71-.68-1.52-1.27-2.29-1.9-.28,1.52-.56,3.04-.84,4.57-.02,1.2-.14,2.41-.05,3.6.32,4.1,2.45,7.41,4.78,10.61.81,1.12,1.55,2.42,2.63,3.19,5.04,3.57,10.53,3.54,15.96,1.19,4.79-2.07,8.72-5.38,11.74-9.72,2.22-3.19,4.03-6.54,4.5-10.47-.06-1.95.02-3.92-.21-5.85ZM103.01,134.1c.42-.51.96-.92,1.45-1.38,2.24-1.44,3.71-1.29,5.13.54.14.33.41.66.39.97-.04.95-.19,1.9-.3,2.85-.84-.11-1.69-.16-2.51-.35-1.21-.28-2.38-.7-3.58-1.01-1.16-.3-1.35-.71-.58-1.62ZM117.05,143.64c-1.49,2.17-2.68,4.55-4.96,6.08-2.99,2-6.13,3.26-9.83,2.63-2.82-.48-5.45-3.03-5.9-5.86-.25-1.56-.66-3.13.18-4.73.16,3.39,2.8,5.46,6.48,4.8,1.94-.35,3.96-.99,5.59-2.05,2.52-1.63,4.98-3.48,6.4-6.32.57-1.13,1.07-1.13,1.88-.15,1.82,2.2,1.8,3.23.16,5.61Z"/>
    <path class="cls-17" d="M169.62,109.47c-1.31-2.53-4.68-4.66-7.52-4.53-2.67.12-5.09.98-7.36,2.28-3.53,2.02-6.3,4.81-8.18,8.45-.27.51-.56,1.02-.94,1.46-.65.76-1.42,1.04-2.35.38-.62-.44-1.33-.74-1.95-1.19-.84-.6-1.55-.61-2.17.27-.09.27-.18.55-.27.82-.08.75-.16,1.51-.25,2.26-.37,2.95.07,5.75,1.27,8.48,1.46,3.31,4.23,5.36,6.95,7.46,3.4,2.63,7.32,2.68,10.89.92,7.87-3.86,12.21-10.44,13.36-19.12-.03-2.73-.16-5.41-1.48-7.95ZM156.42,115.09c1.54.63,2.19,2.63,1.37,4.43-1.84-.55-3.69-1.11-5.62-1.68.64-2.27,2.95-3.28,4.25-2.75ZM165.02,123.69c-.84,3.83-5.53,8.34-9.43,8.84-3.68.46-5.9-1.74-6.73-5.1-.21-.84-.16-1.74-.23-2.61.06-.01.12-.02.19-.03.06.15.15.29.19.45.45,2.32,1.19,2.95,3.55,2.55,1.24-.21,2.61-.6,3.57-1.36,1.76-1.38,3.28-3.08,4.86-4.69.57-.58.59-1.88,1.88-1.43,1.3.46,2.41,2.27,2.17,3.38Z"/>
    <path class="cls-7" d="M167.33,102.1c-.36.72-.72,1.43-1.07,2.15-.81-.46-1.66-.86-2.44-1.37-4.75-3.19-9.49-3.06-14.23,0-.62.36-1.25.71-1.87,1.07-.06-.71-.09-1.43-.19-2.13-.88-6.15-1.79-12.3-2.66-18.45-.69-4.87-1.33-9.74-1.99-14.61,3.24-.68,6.49-1.34,9.72-2.03,2.1-.45,2.19-.43,2.98,1.58,3.44,8.75,6.81,17.52,10.32,26.24.99,2.46,1.65,4.9,1.42,7.56Z"/>
    <path class="cls-13" d="M158.19,41.09c2.78,5.45,4.45,11.18,4.29,17.36-.04,1.38-.16,2.76-.24,4.14-.63,2.42-1.27,4.84-1.9,7.26-.14-1.29-.24-2.58-.45-3.86-.25-1.61-1.41-2.73-3.02-2.62-1.02.07-1.37-.42-1.48-1.1-.31-1.79-.59-3.61-.66-5.42-.26-6.16-1.06-12.2-3.78-17.82-.69-1.42-1.62-2.73-2.49-4.06-.56-.85-1.21-1.65-1.81-2.47,2.64,2.29,5.14,4.76,8.48,6.09.55.22.96.77,1.44,1.17.54.45,1.09.89,1.64,1.34Z"/>
    <path class="cls-4" d="M139.15,116.6c-.09.27-.18.55-.27.82-3.76,1.5-7.53,3.01-11.3,4.5-.54.21-1.1.39-1.64.58.12-.52.27-1.03.37-1.56.4-2.09.92-4.16,1.14-6.27.1-1.01.4-1.48,1.3-1.86,1-.42,1.9-1.06,2.85-1.61,1.35-.96,2.69-1.93,4.04-2.89.99-.9,1.98-1.8,2.97-2.7.08-.01.16-.03.24-.04,1.15,1.35,2.3,2.69,3.45,4.04-1.05,2.33-2.1,4.66-3.15,6.99Z"/>
    <path class="cls-10" d="M139.15,116.6c1.05-2.33,2.1-4.66,3.15-6.99.91-1.25,1.83-2.49,2.74-3.74.89-.64,1.78-1.28,2.68-1.93.62-.36,1.25-.71,1.87-1.07,1.16.58,2.33,1.13,3.47,1.76,1.17.64,2.35.76,3.62.38,3.37-.99,6.74-1.34,10.11.03.83.87,1.82,1.64,2.46,2.64,1.9,2.97,2.49,6.25,1.86,9.73-.03-2.73-.16-5.41-1.48-7.95-1.31-2.53-4.68-4.66-7.52-4.53-2.67.12-5.09.98-7.36,2.28-3.53,2.02-6.3,4.81-8.19,8.45-.27.51-.56,1.02-.94,1.46-.65.77-1.42,1.04-2.35.38-.62-.43-1.33-.74-1.95-1.19-.84-.6-1.55-.61-2.17.27Z"/>
    <path class="cls-6" d="M131.59,111.21c-.94.55-1.85,1.19-2.85,1.61-.9.38-1.2.85-1.3,1.86-.22,2.11-.73,4.18-1.14,6.27-.1.52-.25,1.04-.37,1.56-.9.29-1.81.58-2.71.88-.08-.02-.15-.04-.23-.06-.44-.56-.8-1.21-1.32-1.67-2.04-1.8-4.13-3.54-6.2-5.3,2.13-.61,4.28-1.17,6.39-1.85,3.25-1.05,6.48-2.18,9.72-3.28Z"/>
    <path class="cls-17" d="M146.64,32.49c.61.82,1.26,1.62,1.81,2.47.87,1.33,1.8,2.64,2.49,4.06,2.73,5.62,3.52,11.66,3.78,17.82.08,1.82.36,3.63.66,5.42.11.68.46,1.17,1.48,1.1,1.61-.12,2.77,1.01,3.02,2.62.2,1.28.3,2.57.45,3.86-.54,1.34-1.08,2.67-1.62,4.01-.23-.48-.49-.95-.7-1.44-1.01-2.47-2.01-4.95-3.01-7.43-.1-.08-.19-.17-.29-.25-1-.89-2.01-1.79-3.01-2.68,1.38.13,1.8-.52,1.95-1.87.35-3.19.02-6.32-.29-9.49-.44-4.45-2.02-8.52-3.78-12.53-.4-.91-1.22-1.62-1.85-2.43-1.17-1.35-2.34-2.69-3.52-4.04.1-.33.2-.66.3-.99.7.6,1.41,1.19,2.11,1.79Z"/>
    <path class="cls-9" d="M166.79,105.05c-3.36-1.37-6.74-1.02-10.11-.03-1.27.37-2.45.26-3.62-.38-1.13-.63-2.31-1.18-3.47-1.76,4.74-3.06,9.48-3.19,14.23,0,.77.52,1.62.92,2.44,1.37.18.27.36.54.53.8Z"/>
    <path class="cls-4" d="M155.02,64.98c1,2.48,2,4.96,3.01,7.43.2.49.46.96.7,1.44.56,1.24,1.17,2.47,1.67,3.74.27.68.26,1.47.52,2.15,2.16,5.64,4.39,11.24,6.51,16.89.67,1.78.78,3.66-.1,5.47.23-2.65-.43-5.1-1.42-7.56-3.51-8.72-6.89-17.49-10.32-26.24-.79-2-.87-2.02-2.98-1.58-3.24.69-6.48,1.36-9.72,2.03,0-.44-.01-.88-.02-1.33,4.05-.82,8.11-1.64,12.16-2.45Z"/>
    <path class="cls-17" d="M74.6,112.78c-7.12,1.08-12.22-4.03-13.78-10.26,4.77,3.47,8.25,8.25,13.78,10.26Z"/>
    <path class="cls-4" d="M123.01,123.32c.08.02.15.04.23.06,1.36,2.32,2.58,4.7,2.56,7.46-.02,1.89-.24,3.77-.37,5.66-.06-1.95.02-3.92-.21-5.85-.43-3.58-2.25-6.31-5.37-8.2-1.96-1.18-4.11-1.59-6.29-1.59-4.08,0-7.8,1.45-11.23,3.55-1.86,1.14-3.6,2.49-5.39,3.75.25-.36.43-.83.77-1.07,2.2-1.58,4.44-3.12,6.66-4.67.58-.4,1.13-.83,1.7-1.25.51-.15,1.02-.32,1.54-.44,5.14-1.22,10.17-1.67,14.57,2.15.23.2.55.29.83.43Z"/>
    <path class="cls-8" d="M144.25,2.62c.37-1.59,1.35-2.58,2.59-2.62,1.18-.04,2.33.72,2.49,1.97.1.73-.35,1.54-.55,2.31-.69-2.02-2.37-2.63-4.54-1.66Z"/>
    <path class="cls-17" d="M144.25,2.62c2.17-.98,3.85-.37,4.54,1.66-.81.35-1.63.69-2.44,1.04-.53-.44-1.07-.88-1.6-1.32-.17-.46-.33-.92-.5-1.38Z"/>
    <path class="cls-1" d="M10.93,56.41c-.34-1.71-1.36-2.9-2.7-4-2.43-2-3.66-4.43-3.33-7.85.51-5.33.49-10.72.63-16.08.02-.81-.33-1.63-.51-2.44,2.2-1.88,6.17-2.23,8.83-.77,1.21.67,2.43,1.34,3.61,2.07,1.09.67,2.16,1.21,3.52.99.4-.07,1.02.06,1.25.34.98,1.19,2.33,1.2,3.65,1.31,5.87.5,11.75.97,17.62,1.45,1.89.2,2.7,1.53,3,3.15.5,2.68,1.04,5.37,1.18,8.08.2,3.89.1,7.79.03,11.68-.04,2.25-.23,2.38-2.4,2.33-7.07-.16-14.13-.36-21.2-.54.04-.31.11-.62.11-.93.05-3.52.1-7.05.13-10.57.02-2.4.01-4.81.01-7.21,0-.89-.14-1.69-1.49-1.86-.17,1.92-.29,3.77-.52,5.6-.1.79-.43,1.56-.65,2.34,0-2.76,0-5.52,0-8.29-.09,0-.19,0-.28,0v1.84c-1.99-.9-3.99-1.79-5.96-2.72-2.25-1.06-2.38-1.02-2.58,1.51-.49,6.22-.93,12.45-1.43,18.67-.05.64-.34,1.27-.52,1.9Z"/>
    <path class="cls-15" d="M97.14,25.51c.96,0,1.97.18,2.88-.05,2.65-.69,4.53.56,6.32,2.2-3.45.5-6.9,1.04-10.35,1.49-8.73,1.15-17.46,2.34-26.2,3.38-5.99.71-12.01,1.19-18.01,1.81-.56.06-1.09.38-1.63.58-.05.14-.11.28-.16.41-1.28-1.13-2.56-2.25-3.85-3.38-.71-.37-1.43-.74-2.14-1.11,1.7-.47,3.34-.84,5.02.26.59.39,1.56.3,2.35.26,13.43-.78,26.78-2.36,40.04-4.64,1.92-.33,3.82-.81,5.73-1.22Z"/>
    <path class="cls-7" d="M145.02,28.98h0c-.08.37-.17.74-.25,1.11-.08.2-.16.4-.24.61-.1.33-.2.66-.3.99-1.53.73-3.15.78-4.72.33-2.96-.85-5.89-1.81-8.81-2.78-.52-.17-.89-.74-1.39-1-2.27-1.2-4.56-2.37-6.84-3.55.18-.63.36-1.25.55-1.88,3.37.63,6.78,1.08,10.09,1.92,2.3.59,4.62,1.16,6.87,1.94.25.09.5.18.74.27.37.14.74.28,1.11.44,1.1.46,2.17.99,3.21,1.62Z"/>
    <path class="cls-15" d="M116.49,25.49c.8.2,1.59.48,2.4.58,4.01.5,7.17,2.3,9.2,5.88-3.99-.34-7.99-.64-11.98-1.06-.69-.07-1.34-.64-1.96-1.06-.72-.48-1.34-1.13-2.09-1.55-1.2-.66-2.49-1.15-3.71-1.79-1.41-.74-2.78-1.56-4.17-2.34-1.79,0-3.58,0-5.37-.01,2.69-.25,5.37-.58,8.06-.69.71-.03,1.5.51,2.17.93,2.34,1.46,4.87,1.43,7.45,1.11Z"/>
    <path class="cls-14" d="M139.59,24.47c-.03.09-.06.19-.09.28.87.3,1.78.53,2.6.94.44.22.71.76,1.06,1.15-2.69-.82-5.36-1.74-8.08-2.44-3.19-.81-6.44-1.43-9.67-2.14.62-.22,1.25-.63,1.86-.61,1.01.04,2,.36,3.06.28-1.95-.41-3.9-.83-6.04-1.29.87-.53,1.54-.93,2.21-1.34,6.67-.53,12.76.67,17.47,5.92.31.2.62.4.93.59-.05.11-.1.22-.15.33-1.72-.56-3.44-1.13-5.16-1.69Z"/>
    <path class="cls-15" d="M122.46,24.68c2.28,1.18,4.57,2.34,6.84,3.55.5.27.87.83,1.39,1,2.92.98,5.85,1.93,8.81,2.78,1.57.45,3.19.4,4.72-.33,1.17,1.35,2.34,2.69,3.52,4.04-.53-.07-1.07-.11-1.59-.21-4.24-.81-8.49-1.63-12.72-2.47-.41-.08-.84-.3-1.16-.57-.86-.7-1.74-1.41-2.5-2.21-2.14-2.27-4.58-4.07-7.58-5.03-1.88.08-3.76.16-5.64.24,1.97-.26,3.94-.53,5.91-.79Z"/>
    <path class="cls-6" d="M139.4,18.22c-.64-.27-1.27-.54-1.91-.81-2.31-.41-4.6-.84-6.92-1.19-.43-.06-.97.16-1.35.41-.47.31-.83.78-1.23,1.18-.5.5-.99,1-1.49,1.5,6.67-.53,12.76.67,17.47,5.92.04-3.36-1.88-5.44-4.57-7.01ZM131.64,18.23c-.05-.21-.1-.41-.15-.62.85-.17,1.7-.34,2.56-.51.04.16.08.32.12.48l-2.52.65Z"/>
    <path class="cls-6" d="M145.02,28.98h0c-1.03-.63-2.11-1.16-3.21-1.62-.37-.15-.74-.3-1.11-.44-.25-.09-.5-.18-.74-.27-2.25-.78-4.57-1.35-6.87-1.94-3.31-.84-6.72-1.29-10.09-1.92.64-.89,1.51-.77,2.4-.53,3.22.7,6.47,1.32,9.67,2.14,2.72.7,5.39,1.62,8.08,2.44.18.15.39.28.6.41.05.03.1.06.16.09.05.03.1.06.16.1.08.05.15.1.22.15.02.02.05.04.07.05.05.03.09.07.13.11.32.28.54.64.52,1.22Z"/>
    <path class="cls-15" d="M158.19,41.09c-.55-.45-1.09-.89-1.64-1.34-.48-.4-.89-.95-1.44-1.17-3.34-1.33-5.84-3.8-8.48-6.09-.7-.6-1.41-1.2-2.11-1.79.08-.2.16-.41.24-.61,1.61.89,3.21,1.78,4.82,2.68,3.28,1.48,5.72,3.93,7.77,6.81.33.47.57,1,.85,1.51Z"/>
    <path class="cls-1" d="M46.14,31.95c1.28,1.13,2.56,2.25,3.85,3.38.05-.14.11-.28.16-.41.54-.2,1.07-.52,1.63-.58,6-.62,12.02-1.1,18.01-1.81,8.74-1.04,17.47-2.23,26.2-3.38,3.46-.46,6.9-.99,10.35-1.49.45.48.98.91,1.35,1.44,2.35,3.3,3.86,7.01,4.51,10.96.75,4.62,1.18,9.3,1.62,13.96.15,1.57-.25,1.85-1.9,1.85-8.42.01-16.84.07-25.26-.02-9.35-.1-18.7-.33-28.05-.52-1.92-.04-3.84-.16-5.76-.27-.88-.05-1.34.3-1.41,1.2-.08,1.02-.19,2.04-.41,3.07-.02-.46.07-.96-.09-1.36-.29-.74-.57-1.65-1.15-2.08-1.1-.82-1.49-1.76-1.52-3.08-.12-4.56-.18-9.13-.57-13.67-.2-2.42-1.03-4.79-1.57-7.18Z"/>
    <path class="cls-13" d="M104.18,24.16c1.39.78,2.76,1.6,4.17,2.34,1.22.64,2.51,1.13,3.71,1.79.75.42,1.37,1.07,2.09,1.55.62.41,1.28.98,1.96,1.06,3.98.42,7.98.72,11.98,1.06,1.42,1.71,2.27,3.68,3.08,5.75,2.38,6.08,3.02,12.4,3.09,18.83,0,.54-.04,1.07-.08,1.61-.08,1.26-.73,1.81-2.01,1.77-3.35-.12-6.71-.22-10.06-.27-2.47-.04-2.59.11-2.62,2.55,0,.39-.03.78-.27,1.18,0-.84-.04-1.67.01-2.5.08-1.28-.4-2.22-1.59-2.66-1.87-.7-2.31-2.07-2.51-3.97-.75-6.92-.93-13.99-3.59-20.55-1.4-3.45-2.83-7.02-6.53-8.85-.31-.15-.56-.44-.83-.67Z"/>
    <path class="cls-13" d="M122.19,25.23c3,.96,5.43,2.77,7.58,5.03.76.81,1.64,1.51,2.5,2.21.33.27.75.49,1.16.57,4.24.84,8.48,1.66,12.72,2.47.52.1,1.06.14,1.59.21.63.8,1.45,1.52,1.85,2.43,1.76,4.02,3.34,8.08,3.78,12.53.32,3.17.64,6.3.29,9.49-.15,1.35-.57,2-1.95,1.87-1.52-1.03-2.8-2.59-4.97-2.14-1.83.38-3.67.7-5.51,1.05-1.43.26-2.86.52-4.29.79-1.34-2.83-1.27-5.93-1.55-8.93-.56-6.13-1.34-12.21-3.97-17.84-1.64-3.53-3.65-6.86-7.46-8.59-.64-.29-1.2-.76-1.79-1.15Z"/>
    <path class="cls-13" d="M21.7,43.5c.23-.78.55-1.54.65-2.34.23-1.84.35-3.69.52-5.6,1.35.17,1.49.97,1.49,1.86,0,2.4.01,4.81-.01,7.21-.03,3.52-.08,7.05-.13,10.57,0,.31-.07.62-.11.93-.27.52-.7,1.01-.79,1.56-.27,1.71-.4,3.44-.73,5.19.37-1.89-.47-3.43-1.19-5.06-.41-.92-.2-2.11-.25-3.17-.02-.48,0-.95-.14-1.43-.29,3.01-.61,6.03-.86,9.04-.09,1.11-.5,1.55-1.69,1.47-1.74-.12-3.49-.08-5.23,0-.93.04-1.42-.19-1.53-1.18-.22-2.04-.51-4.08-.78-6.12.18-.63.47-1.26.52-1.9.5-6.22.94-12.44,1.43-18.67.2-2.52.32-2.56,2.58-1.51,1.98.93,3.98,1.81,5.96,2.72,0,2.94,0,5.88,0,8.82.09,0,.19,0,.28,0,0-.79,0-1.58,0-2.37Z"/>
    <path class="cls-7" d="M142.86,67.43c0,.44.01.88.02,1.33.66,4.87,1.3,9.74,1.99,14.61.87,6.15,1.78,12.3,2.66,18.45.1.71.13,1.42.19,2.13-.89.64-1.78,1.28-2.68,1.93-.77-1.24-1.59-2.45-2.3-3.72-.48-.87-.81-1.82-1.21-2.74.3-4.03-.59-7.93-1.35-11.84-.51-2.32-.55-4.55,1.23-6.44.11-.11.09-.34.14-.51,2.17-4,1.81-7.94-.29-11.84-.89-.9-1.79-1.8-2.68-2.7-.79-.79-1.58-1.59-2.37-2.38.15-.56.3-1.12.45-1.67,2.07,1.8,4.14,3.61,6.21,5.41Z"/>
    <path class="cls-11" d="M136.21,63.69c.79.79,1.58,1.59,2.37,2.38-2.83-1.53-5.73-2.41-8.85-.73.82.33,1.68.55,2.52.51,2.31-.11,4.55.09,6.59,1.27.84.49,1.61,1.09,2.42,1.64,2.1,3.9,2.46,7.84.29,11.84.08-2.17.43-4.37.16-6.49-.36-2.89-2.81-4.93-5.6-4.73-1.68.12-3.34.83-4.97,1.38-1.22.41-2.37,1-3.56,1.5-.02-.18-.03-.37-.05-.55-.09-.36-.18-.72-.27-1.07-.34-.27-.68-.54-1.01-.81-1.21-1.23-2.34-2.56-3.66-3.67-.8-.67-1.89-.99-2.85-1.47,1.27-1.06,2.53-2.11,3.8-3.17,1.95.92,3.72,2.35,6.1,2.05,1.72-.22,3.46-.31,5.19-.45.45.19.91.38,1.36.57Z"/>
    <path class="cls-5" d="M142.86,67.43c-2.07-1.8-4.14-3.61-6.21-5.41.1-.09.2-.18.3-.28,1.43-.26,2.86-.52,4.29-.79,1.14.19,2.27.42,3.42.57,3.42.45,6.99.39,9.71,3.05.09.09.24.1.37.16.1.08.19.17.29.25-4.05.82-8.11,1.64-12.16,2.45Z"/>
    <path class="cls-5" d="M126.26,69.83c.34.27.68.54,1.01.81-4.25.83-8.52,1.58-12.75,2.51-2.31.51-4.04.1-5.48-1.92-.88-1.24-2.17-2.19-3.28-3.28.36-.27.71-.54,1.07-.81.93.1,1.86.19,2.78.32,5.55.78,11.09,1.58,16.64,2.37Z"/>
    <path class="cls-4" d="M126.26,69.83c-5.55-.79-11.09-1.58-16.64-2.37-.92-.13-1.85-.21-2.78-.32,3.17-.62,6.33-1.25,9.5-1.87,1.13-.22,2.27-.39,3.41-.59.96.48,2.05.8,2.85,1.47,1.32,1.1,2.45,2.43,3.66,3.67Z"/>
    <path class="cls-13" d="M.74,75.91c.42-7.92-.53-15.98,1.89-23.7.25.02.49.05.74.07-.45,7.92-1.24,15.8-2.63,23.62Z"/>
    <path class="cls-16" d="M134.85,63.12c-1.73.15-3.47.23-5.19.45-2.39.3-4.15-1.13-6.1-2.05,4.08-1.74,7.76-.58,11.29,1.6Z"/>
    <path class="cls-9" d="M85.4,85.99l3.46,4.54c-1.56-1.98-3.38-3.61-5.89-4.29-.02-.26-.03-.53-.05-.79.83.18,1.65.36,2.48.53Z"/>
    <path class="cls-17" d="M127.59,72.27c1.18-.51,2.34-1.09,3.56-1.5,1.63-.55,3.29-1.26,4.97-1.38,2.79-.2,5.24,1.84,5.6,4.73.26,2.13-.09,4.33-.16,6.49-.04.17-.03.4-.14.51-1.78,1.89-1.74,4.12-1.23,6.44-1.87.41-3.72.73-5.58-.1-.38-.17-.94.09-1.42.15-1.58.23-3.16.45-4.74.68-.87.13-1.89.02-2.57.45-1.89,1.18-3.99,1.41-6.08,1.76.88-2.15,1.72-4.31,2.63-6.44,1.7-3.94,3.45-7.87,5.17-11.8Z"/>
    <path class="cls-10" d="M106.06,121.18c-.57.42-1.13.84-1.7,1.25-2.22,1.56-4.46,3.09-6.66,4.67-.34.24-.52.71-.77,1.07-1.59,2.29-3.2,4.57-4.75,6.89-1.13,1.69-1.71,1.77-3.18.38-.72-.68-1.52-1.27-2.28-1.9,1.64-5.29,4.5-9.73,8.99-13.05.93-.69,1.89-1.34,2.83-2.01.91.53,1.95.91,2.69,1.61,1.44,1.39,2.98,1.81,4.84,1.09Z"/>
    <path class="cls-9" d="M106.06,121.18c-1.86.72-3.39.3-4.84-1.09-.73-.71-1.78-1.09-2.69-1.61,2.13-.9,4.22-1.96,6.41-2.67,3.54-1.15,7.07-.56,10.53.54,2.07,1.76,4.16,3.5,6.2,5.3.52.46.89,1.11,1.32,1.67-.28-.14-.6-.24-.83-.43-4.4-3.82-9.43-3.37-14.57-2.15-.52.12-1.03.29-1.54.44Z"/>
    <path class="cls-6" d="M119.79,90.51c2.09-.36,4.19-.58,6.08-1.76.68-.43,1.71-.32,2.57-.45,1.58-.23,3.16-.46,4.74-.68-.98,2.14-1.95,4.28-2.93,6.42-1.06-.73-2.16-1.41-3.17-2.2-1.69-1.32-3.38-1.41-5.16-.23-.27.18-.54.35-.81.53-.95,2.73-.54,4.25,1.64,6.07.61.51,1.23,1.01,1.84,1.51-1.98.66-3.96,1.36-5.96,1.98-1.26.39-2.55.68-3.83,1.02-.13-.12-.27-.23-.4-.35,1.79-3.95,3.59-7.89,5.38-11.84Z"/>
    <path class="cls-17" d="M124.6,99.71c-.61-.5-1.23-1-1.84-1.51-2.18-1.81-2.59-3.34-1.64-6.07,1.68,1.33,3.33,2.68,5.03,3.98,4.14,3.18,8.31,6.33,12.46,9.49-.99.9-1.98,1.8-2.97,2.7-3.68-2.87-7.36-5.74-11.04-8.6Z"/>
    <path class="cls-10" d="M89.42,93.5c-.36.61-.71,1.23-1.09,1.83-.86,1.34-2.1,1.4-2.96.06-1.56-2.44-3.02-4.94-2.38-8.04,3.09,1.06,5.05,3.3,6.43,6.15Z"/>
    <path class="cls-4" d="M78.9,102.6c1.15-1.1,2.6-1.28,4.08-1.2.73.04,1.23.41.67,1.23-.67.99-1.36,1.97-2.04,2.95-.91-1-1.81-1.99-2.72-2.99Z"/>
    <path class="cls-17" d="M80.83,106.95c-.47.79-.95,1.57-1.43,2.38-1.9-1.74-2.26-3.66-1.28-6.18.9,1.27,1.81,2.54,2.71,3.8Z"/>
    <path class="cls-4" d="M89.42,93.5c-1.37-2.86-3.33-5.09-6.43-6.15,0-.36-.01-.73-.02-1.09,2.51.67,4.33,2.3,5.89,4.29.37.72.74,1.44,1.11,2.16-.18.27-.37.53-.55.8Z"/>
    <path class="cls-10" d="M80.83,106.95c-.9-1.27-1.81-2.54-2.71-3.8.26-.18.53-.36.79-.54.91.99,1.81,1.99,2.72,2.99-.26.45-.53.91-.79,1.36Z"/>
    <path class="cls-10" d="M116.89,138.03c-.81-.99-1.31-.99-1.88.15-1.42,2.84-3.88,4.69-6.4,6.32-1.63,1.06-3.66,1.71-5.59,2.05-3.68.66-6.32-1.41-6.48-4.8-.84,1.6-.43,3.17-.18,4.73.45,2.83,3.09,5.38,5.9,5.86,3.7.64,6.84-.62,9.83-2.63,2.29-1.53,3.47-3.91,4.96-6.08,1.64-2.38,1.66-3.41-.16-5.61ZM108.76,150.42c-3.79,1.81-9.17,1.45-11.38-3.28-.17-.38-.24-.81-.43-1.48,1.38.52,2.39.98,3.44,1.28,2.27.65,4.41-.09,6.54-.8,2-.67,2.32-.57,3.19,1.31.44.94-.1,2.38-1.36,2.98Z"/>
    <path class="cls-10" d="M109.58,133.26c.14.32.41.66.39.97-.04.95-.19,1.9-.3,2.85-.84-.11-1.69-.16-2.51-.35-1.21-.28-2.38-.7-3.59-1.01-1.16-.3-1.35-.71-.58-1.62.43-.51.96-.92,1.45-1.37,1.71.18,3.42.36,5.13.54Z"/>
    <path class="cls-3" d="M109.58,133.26c-1.71-.18-3.42-.36-5.13-.54,2.24-1.44,3.71-1.29,5.13.54Z"/>
    <path class="cls-10" d="M162.85,120.31c-1.29-.46-1.31.85-1.88,1.43-1.58,1.6-3.1,3.3-4.86,4.69-.96.76-2.32,1.15-3.57,1.36-2.36.4-3.11-.24-3.55-2.55-.03-.16-.12-.3-.19-.45-.06.01-.12.02-.19.03.07.87.02,1.77.23,2.61.83,3.36,3.06,5.57,6.73,5.1,3.9-.49,8.59-5,9.43-8.84.24-1.11-.87-2.92-2.17-3.38ZM157.57,130.97c-1.81,1.41-5.93.49-7.11-1.48-.17-.28-.21-.63-.27-.82,2.1-.47,4.07-1.09,6.07-1.24.69-.05,1.66.94,2.12,1.69.21.34-.32,1.47-.81,1.86Z"/>
    <path class="cls-10" d="M152.17,117.83c.65-2.27,2.95-3.28,4.25-2.75,1.54.63,2.19,2.63,1.37,4.43-1.84-.55-3.69-1.11-5.62-1.69Z"/>
    <path class="cls-17" d="M141.53,99.41c.4.92.72,1.87,1.21,2.74.71,1.27,1.53,2.49,2.3,3.72-.91,1.25-1.83,2.49-2.74,3.74-1.15-1.35-2.3-2.69-3.45-4.04.09-.35.19-.71.28-1.06.53-.99,1.07-1.97,1.6-2.96.27-.71.54-1.43.81-2.14Z"/>
    <path class="cls-10" d="M139.13,104.51c-.09.35-.19.71-.28,1.06-.08.01-.16.03-.24.04-4.16-3.16-8.32-6.32-12.46-9.49-1.7-1.3-3.36-2.65-5.03-3.98.27-.18.54-.35.81-.53.25.25.47.55.75.75,5.48,4.06,10.97,8.1,16.46,12.15Z"/>
    <path class="cls-4" d="M154.74,64.73c-.12-.05-.28-.07-.37-.16-2.72-2.66-6.29-2.61-9.71-3.05-1.14-.15-2.28-.38-3.42-.57,1.84-.35,3.68-.67,5.51-1.05,2.17-.45,3.45,1.11,4.97,2.14,1,.89,2.01,1.79,3.01,2.68Z"/>
    <path class="cls-12" d="M21.7,43.5v2.37c-.09,0-.19,0-.28,0,0-2.94,0-5.88,0-8.82,0-.61,0-1.23,0-1.84.09,0,.19,0,.28,0v8.29Z"/>
    <path class="cls-8" d="M131.5,17.61c.85-.17,1.7-.34,2.55-.51.04.16.08.32.12.48-.84.22-1.68.43-2.52.65-.05-.21-.1-.41-.15-.62Z"/>
    <path class="cls-16" d="M141.26,68.77c-.8-.55-1.58-1.16-2.42-1.64-2.04-1.18-4.28-1.38-6.59-1.27-.84.04-1.7-.18-2.52-.51,3.12-1.68,6.01-.8,8.85.73.89.9,1.79,1.8,2.68,2.7Z"/>
    <path class="cls-9" d="M130.25,94.03c3.49,2.51,6.98,5.01,10.48,7.52-.53.99-1.07,1.97-1.6,2.96-5.49-4.05-10.98-8.1-16.46-12.15-.28-.21-.5-.5-.75-.75,1.78-1.18,3.47-1.09,5.16.23,1.01.79,2.11,1.47,3.17,2.2Z"/>
    <path class="cls-2" d="M96.95,145.65c1.38.52,2.39.98,3.44,1.28,2.27.65,4.42-.09,6.53-.8,2.01-.67,2.32-.57,3.19,1.31.44.94-.1,2.38-1.36,2.98-3.79,1.81-9.17,1.45-11.38-3.28-.18-.38-.24-.81-.43-1.48Z"/>
    <path class="cls-9" d="M150.19,128.66c2.1-.47,4.07-1.09,6.07-1.24.69-.05,1.66.94,2.12,1.69.21.34-.32,1.47-.81,1.86-1.81,1.41-5.93.49-7.11-1.48-.17-.28-.21-.63-.27-.82Z"/>
  </g>
</svg>