<?xml version="1.0" encoding="UTF-8"?>
<svg id="Layer_1" data-name="Layer 1" xmlns="http://www.w3.org/2000/svg" version="1.1" viewBox="0 0 69.19 66.45">
  <defs>
    <style>
      .cls-1 {
        fill: #16153b;
      }

      .cls-1, .cls-2 {
        stroke-width: 0px;
      }

      .cls-2 {
        fill: #fff;
      }
    </style>
  </defs>
  <path class="cls-1" d="M50.34,64.92l-16.99-10.99-17.84,9.92c-2.28,1.27-4.95-.85-4.25-3.36l5.49-19.45L2.01,27.38c-1.9-1.76-.76-4.93,1.83-5.08l20.39-1.13L33.01,2.73c1.11-2.34,4.49-2.19,5.39.23l7.04,18.83,20.08,2.29c2.59.3,3.53,3.57,1.5,5.2l-15.94,12.75,3.73,19.88c.47,2.53-2.31,4.4-4.47,3Z"/>
  <path class="cls-2" d="M51.93,66.45c-.75,0-1.5-.22-2.17-.65h0l-16.45-10.65-17.29,9.61c-1.44.8-3.13.66-4.41-.36-1.29-1.02-1.81-2.63-1.37-4.21l5.32-18.83L1.29,28.15c-1.2-1.11-1.6-2.75-1.04-4.28.55-1.53,1.9-2.54,3.53-2.63l19.77-1.1L32.05,2.27C32.75.8,34.21-.05,35.82,0c1.63.07,2.99,1.06,3.57,2.59l6.81,18.22,19.44,2.22c1.63.19,2.93,1.28,3.38,2.86.45,1.58-.06,3.19-1.34,4.22l-15.45,12.35,3.61,19.26c.3,1.59-.35,3.14-1.7,4.05-.68.46-1.45.69-2.22.69ZM50.91,64.03c.65.42,1.42.41,2.06-.02.64-.43.94-1.14.8-1.9l-3.73-19.88c-.07-.38.07-.78.38-1.02l15.94-12.75c.61-.49.85-1.23.63-1.98s-.81-1.25-1.59-1.34l-20.08-2.29c-.39-.05-.73-.31-.87-.68l-7.04-18.83c-.27-.73-.9-1.18-1.68-1.22-.75-.03-1.44.36-1.77,1.07l-8.78,18.44c-.17.35-.51.58-.9.6l-20.39,1.13c-.78.04-1.4.51-1.66,1.24s-.08,1.48.49,2.01l14.75,13.65c.29.27.41.68.3,1.06l-5.49,19.45c-.21.75.03,1.49.64,1.98.62.49,1.39.55,2.07.17l17.84-9.92c.34-.19.76-.17,1.09.04l16.99,10.99Z"/>
</svg>