<?xml version="1.0" encoding="UTF-8"?>
<svg id="Layer_1" data-name="Layer 1" xmlns="http://www.w3.org/2000/svg" version="1.1" viewBox="0 0 179.02 143.55">
  <defs>
    <style>
      .cls-1 {
        fill: #d1ad34;
      }

      .cls-1, .cls-2, .cls-3, .cls-4, .cls-5, .cls-6, .cls-7, .cls-8, .cls-9, .cls-10, .cls-11, .cls-12, .cls-13 {
        stroke-width: 0px;
      }

      .cls-2 {
        fill: #f9e399;
      }

      .cls-3 {
        fill: #f5d056;
      }

      .cls-4 {
        fill: #ba9a2f;
      }

      .cls-5 {
        fill: #f7d978;
      }

      .cls-6 {
        fill: #d6c282;
      }

      .cls-7 {
        fill: #c1a443;
      }

      .cls-8 {
        fill: #fbecbb;
      }

      .cls-9 {
        fill: #f8de89;
      }

      .cls-10 {
        fill: #c8ae58;
      }

      .cls-11 {
        fill: #fdf6dd;
      }

      .cls-12 {
        fill: #e3d6ac;
      }

      .cls-13 {
        fill: #a68929;
      }
    </style>
  </defs>
  <path class="cls-13" d="M61.14,135.85c5.09,3.67,18.96,8.06,40.17,7.67,21.21-.39,38.77-5.63,44.1-10.22,2.52-2.16-2.71-10.47-2.71-10.47l-13.09-4.84-27.07,8.58-32.89-9.25-8.87-3.92.36,22.44Z"/>
  <path class="cls-13" d="M71.34,76.51c0,8.31,4.31,17.74,6.4,19.16s13.02,10.05,13.02,10.05l-6.89,13.25,23.72,5.95,18.99-7.58,5.89-8.59,4.23-2.86.47-1.24,1.97-1.22,2.43-32.77-5.52-36.88-32.66-2.87-32.04,45.62Z"/>
  <g>
    <path class="cls-3" d="M.42,30.84c1-8.08,3.32-15.69,7.95-22.47.39-.57.92-1.04,1.38-1.56,1.42-1.04,2.79-2.14,4.26-3.09,3.75-2.41,8.29-1.43,10.65,2.32,3.33,5.27,5.2,10.91,4.96,17.29-.25,6.77.54,7.44,7.24,8.62,1.43.25,2.22-.19,2.34-1.6.21-2.59.34-5.18.5-7.77.04-.69.1-1.37.15-2.06.21,0,.42,0,.63,0,.15.86.45,1.73.44,2.59-.04,2.38-.13,4.77-.35,7.15-.15,1.59.25,2.51,1.97,2.82,6.78,1.21,13.54,2.5,20.31,3.79,1.58.3,2.37-.27,2.61-1.87.73-4.87.32-9.68-.92-14.4-.56-2.14-1.65-4.13-2.49-6.19-1.51-2.95-3.92-4.84-6.98-5.96-1.18-.43-2.37-.81-3.56-1.21,3.61-.35,6.63.89,9.05,3.53,3.25,3.56,4.51,8,5.29,12.62.14.82.34,1.63.55,2.44.36,1.37.96,2.71,1.08,4.1.14,1.66-.04,3.36-.22,5.03-.18,1.59.29,2.6,1.93,2.92,4.41.85,8.82,1.7,13.22,2.57,1.35.27,2.02-.34,2.11-1.63.13-1.89.35-3.78.26-5.66-.24-5.15-.89-10.22-4.13-14.53-1.62-3.07-4.45-4.56-7.52-5.74-.59-.23-1.28-.33-1.75-.7-3.14-2.5-6.74-3.98-10.59-4.95,2.09-1.28,4.19-2.55,6.28-3.83.98-.02,1.98.06,2.95-.08,4.88-.71,8.55,1.39,11.65,4.9,4.11,4.66,6.08,10.27,6.54,16.3.34,4.35,2.57,8.51,1.26,13.02-.57,1.96.67,2.58,2.36,2.86,1.93.32,1.84-1.05,1.95-2.21.2-2.04,1.17-2.77,3.25-2.43,2.07.34,4.19.41,6.29.51,1.67.08,3.34.02,5.01.02.03-.22.05-.43.08-.65-4.42-.54-8.85-1.08-13.27-1.62.04-.28.08-.55.12-.83,3.83.27,7.66.53,11.48.81,2.02.15,2.59-.36,2.42-2.36-.16-1.89-.36-3.78-.63-5.65-.35-2.44-.92-2.82-3.34-2.61-2.8.25-5.59.49-8.4.65-.91.05-1.84-.18-2.76-.29l.07-.64c.46-.11.92-.28,1.39-.32,3.22-.28,6.43-.54,9.65-.81,2.22-.19,2.56-.72,1.8-2.84-.52-1.46-1.13-2.88-1.63-4.34-.52-1.52-1.45-2.09-3.06-1.76-3.03.61-6.07,1.15-9.12,1.67-.68.12-1.4.02-2.1.02-.03-.24-.06-.47-.08-.71,2.57-.5,5.16-.95,7.71-1.53,1.4-.32,2.75-.85,4.13-1.29-.8-1.26-1.57-2.54-2.42-3.76-1.25-1.81-2.85-2.13-4.96-1.42-2.92.99-5.94,1.69-8.92,2.51.57-.42,1.08-1.02,1.72-1.24,1.92-.65,3.89-1.12,5.83-1.72.81-.25,1.58-.65,2.37-.99.02-.28.03-.56.05-.85-2.64-.78-5.27-1.57-7.91-2.32-.38-.11-.84-.02-1.25.06-2.52.49-5.04,1.03-7.56,1.51-.53.1-1.09.03-1.63.04.86-.55,1.72-1.1,2.58-1.65,3.35-.45,6.7-.91,10.05-1.36,3.63,1.92,7.75,3.03,10.52,6.38,1.39,2.01,3.12,3.86,4.1,6.06,3.77,8.4,5.72,17.23,5.18,26.5-.07,1.26.35,2.03,1.65,2.22.76.11,1.53.23,2.28.39,1.53.32,2.51-.25,2.7-1.82.19-1.62,1.12-1.89,2.52-1.66,1.87.3,3.76.52,5.63.77.83.31,1.66.61,2.49.92,1.54,1.79,3.09,3.59,4.63,5.38-3.91,1.03-7.82,2.05-11.74,3.08-6.93,2.99-12.77,7.22-16.1,14.27-2.75,3.81-4.47,8.07-5.39,12.66.41,3.16.58,6.38,1.34,9.45.43,1.76,1.83,3.28,2.8,4.91.42.55.84,1.1,1.25,1.65-1.37-.3-2.76-.53-4.1-.91-2.14-.61-4.57-.88-6.29-2.1-2.64-1.88-5.57-2.51-8.52-3.32-.71-.29-1.4-.64-2.14-.85-3.51-.97-7.03-1.91-10.54-2.85-.57-.19-1.13-.37-1.7-.56-2.47-2.17-4.92-4.36-7.41-6.49-.4-.34-1-.58-1.53-.61-4.23-.27-7.14-2.89-10.15-5.45-.99-.84-2.38-1.38-3.67-1.67-3.03-.68-6.17-.61-8.85-2.84-1.11-.93-3.46-1.1-4.97-.65-2.52.74-4.91.9-7.44.51-3.05-.47-6.12-.77-9.15-1.3-.9-.16-1.72-.82-2.58-1.26,1.94.2,3.97.85,5.79.49,3.83-.76,6.69-3.24,9.02-6.42-.24,0-.41-.05-.48,0-.42.36-.85.73-1.23,1.14-3.07,3.34-6.7,5.2-11.38,4.36-.67-.12-1.39.04-2.08.07-1.22-.3-2.43-.73-3.67-.86-4.38-.46-7.03-2.99-8.83-6.82C-.59,45.68-.21,38.28.42,30.84ZM16.09,49.41c4.81-4.12,6.52-9.84,7.97-15.65.12-.47-.97-1.72-1.63-1.84-5.04-.93-10.11-1.7-15.18-2.43-1.84-.26-3.55.87-3.62,2.69-.19,5.22-1.06,10.51,1.12,15.59,1.02,2.37,2.46,4.13,5.13,4.42,2.57.28,4.66-.7,6.21-2.78h0ZM62.94,47.15c-1.43,2.56-2.68,5.25-4.32,7.67-3.84,5.68-8.52,9.97-16.18,8.4-.32-.07-.66,0-.99,0,2.08,1,4.15,1.99,6.5,1.24,8.54-2.74,12.02-9.84,14.98-17.3ZM84.43,64.37c-.19.33-.38.65-.57.98,3.52,2.49,7.47,4.24,11.43,5.98-3.03-3.35-7.25-4.63-10.86-6.96ZM89.76,56c-.14.34-.29.68-.43,1.02,4.1,1.57,8.21,3.14,12.31,4.7.12-.29.23-.59.35-.88-4.08-1.62-8.15-3.23-12.23-4.85ZM78.27,70.64c-.18.28-.35.56-.53.84,3.13,2.15,6.26,4.3,9.39,6.45.18-.27.37-.53.55-.8-3.14-2.16-6.28-4.32-9.41-6.49ZM56.07,67.05c1.05,2.54,5.59,4.05,7.85,3.3-2.45-1.03-5.15-2.17-7.85-3.3ZM105.53,49.35c.02-.16.05-.32.07-.48-2.87-.66-5.73-1.32-8.6-1.98-.03.15-.07.3-.1.46,2.88.67,5.76,1.34,8.63,2Z"/>
    <path class="cls-4" d="M104.63,91.13c-.42-.55-.84-1.1-1.25-1.65-.86-4.01-1.66-8.04-2.62-12.03-.21-.85-.99-1.56-1.51-2.33.92-4.59,2.64-8.85,5.39-12.66.85-.43,1.92-.66,2.52-1.32,1.54-1.69,2.61-3.9,4.35-5.29,3.3-2.65,6.94-4.88,10.45-7.29,4.63-1.11,9.27-2.23,13.9-3.34.92-2.91-1.67-5.72-5.07-5.49-.69-.03-1.37-.05-2.06-.08-.21-.66-.53-1.31-.6-1.99-.34-3.2-.32-3.21-3.59-3.9.81-1.82,2.35-2.21,4.14-2.1,3.74.28,3.82.2,3.82-3.65,0-.21,0-.42,0-.63-.03-2.99-.29-3.28-3.27-3.72.81-1.7,1.61-3.39,2.42-5.09,1.26.05,2.85.61,3.73.05,2.98-1.9,5.71-4.19,8.53-6.33,1.25-.28,2.49-.56,3.74-.84,2.27.44,4.54.88,6.58,1.28.28.65.36,1.35.75,1.69,2.75,2.4,3.56,5.45,3.08,8.92-.23,1.64-.05,2.79,1.75,3.49,1.85.71,1.23,2.59,1.4,4.06-.56.85-.95,2.17-1.72,2.46-3.8,1.41-5.3,5.11-8,7.59.64.14,1.34.51,1.93.38,3.31-.76,6.58-1.63,9.87-2.47,2.18-1.48,4.42-2.89,6.51-4.49.83-.63,1.79-1.65.24-2.68,1.32-2.47,1.6-5.51,4.13-7.34.39-.28.51-1.16.47-1.74-.22-2.78-.52-5.56-.85-8.34-.19-1.65-1.13-2.29-2.78-1.93-1.09.24-2.22.34-3.31.56-1.41.28-2.49-.09-3.14-1.43.59-.69,1.24-1.34,1.75-2.08,1.56-2.23,3.26-4.22,6.29-4.26,3.18,1.67,4.34,4.79,5.36,7.87,1.97,5.93,1,11.75-1.18,17.44-.31.83-.64,1.65-.92,2.49-.08.25.05.64-.1.79-3.26,3.32-5.35,7.72-9.53,10.18-1.97.88-3.95,1.76-5.92,2.64-.27.14-.53.28-.8.42-4.59.15-6.8,3.89-7.72,6.93-.5,1.65.04,2.63,1.84,2.67,1.54.04,3.08,0,4.62,0,1.35-.05,2.06.68,2.78,1.79,1.87,2.88,1.29,6.06,1.43,9.17,1.08.93,2.17,1.86,3.81,3.28-2.3.73-4.14,1.43-6.05,1.8-.34.07-1.09-1.19-1.41-1.94-.6-1.41-.28-3.34-2.32-3.89-2.71-.6-5.65,1.61-5.83,4.44-.17,2.71-.28,5.42-.42,8.13-.16,3.29-.16,6.6-.56,9.86-.12,1-1.16,2.34-2.1,2.71-5.68,2.23-11.41,4.35-17.22,6.19-1.38.44-3.24-.04-4.67-.62-.55-.22-1.02-2.15-.66-2.86.97-1.88,2.41-3.51,3.53-5.05-.39-3.54-.28-7.35-1.37-10.77-.8-2.51-.16-4.04,1.06-5.85.38-.56.67-1.29.71-1.95.34-5.43.6-10.87.92-16.8-1.79.57-3.34,1.06-4.89,1.55-5.4.8-9.61,3.65-13.16,7.62-.29.4-.59.8-.88,1.2-1.37,3.39-2.74,6.78-4.12,10.17,0,.44,0,.88,0,1.31.68,3.35,1.37,6.71,2.05,10.06.85.17,1.77.64,2.55.46,2.56-.58,5.07-1.39,7.61-2.12.99.66,1.21,1.37.39,2.39-.78.96-1.39,2.06-2.08,3.09-.16.15-.31.31-.47.46-4.03,4.7-7.34,5-11.91,1.05-.11-.09-.22-.17-.33-.26ZM134.75,66.46c2.29-3.5.78-10.18-1.66-10.82.52,3.37,1.05,6.88,1.66,10.82ZM137.89,29.89c.21-.01.41-.02.62-.03-.07-1.52-.13-3.04-.2-4.56-.21.01-.42.02-.62.03.07,1.52.14,3.04.2,4.56Z"/>
    <path class="cls-2" d="M137.16,104.63c3.27-1.97,3.07-1.75,5.79.83,3.26,3.1,3.9,6.86,3.85,10.98-.97,1.46-1.98,2.89-2.9,4.38-.89,1.45-2.02,2.31-3.81,1.94-.99-1.62-1.76-.69-2.23.32-.43.93-.53,2.02-.78,3.03-2.89.87-5.79,1.7-8.65,2.64-1.22.4-2.36,1.05-3.54,1.58-1.34.37-2.67.96-4.03,1.06-6.51.48-12.98,2.04-19.57,1.04-.84-.27-1.69-.77-2.53-.76-7.16.04-13.94-1.99-20.78-3.7-1.54-.39-3.03-.93-4.55-1.4-4.08-1.62-8.08-3.33-10.94-6.91-.6-.75-1.42-1.32-2.14-1.97-.69-2.24-1.39-4.49-2.08-6.73,2.89-9.08,10.5-12.49,18.55-15.2,1.27-.43,3.01.55,4.54.87-4.15,1.09-8.08,2.73-11.77,4.92-3.41,2.02-5.9,4.65-5.76,8.61,1.37-1.61,2.71-3.57,4.44-5.11,1.59-1.42,3.48-2.64,5.43-3.5,3.2-1.41,6.56-2.46,9.85-3.66,2.82,1.54,5.65,3.09,8.47,4.63-.01,1.55-.03,3.09-.04,4.64-4.46,1.67-5.11,3.17-2.95,6.76.38,2.12,2.07,2.77,3.79,3.4,4.76,1.97,9.71,2.3,14.77,1.64,1.7-.42,3.39-.84,5.09-1.26.71-.4,1.43-.81,2.14-1.21,1.99-.91,2.9-2.51,2.93-4.65,5.19-1.97,10.35-4,15.58-5.86,1.01-.36,2.25-.08,3.38-.1,1.45,1.68,2.9,3.37,4.35,5.05l.77-.64c-1.55-1.89-3.1-3.77-4.66-5.66Z"/>
    <path class="cls-6" d="M104.63,91.13c.11.09.22.17.33.26,4.57,3.95,7.88,3.66,11.91-1.05.98.54,1.93,1.12,2.93,1.6,2.43,1.17,2.64,1.81,1.2,4.1-.22.35-.49.68-.74,1.01-1.65,1.29-3.19,2.79-4.98,3.82-1.57.91-3.51,1.96-5.16,1.78-2.86-.31-5.79-1.18-8.4-2.43-7.4-3.56-14.65-7.43-21.96-11.18-.7-.7-1.4-1.41-2.1-2.11,2.69-.71,5.38-1.42,8.07-2.13,2.95.8,5.88,1.44,8.52,3.32,1.72,1.23,4.15,1.49,6.29,2.1,1.34.38,2.73.61,4.1.91Z"/>
    <path class="cls-3" d="M106.82,74.68c1.37-3.39,2.74-6.78,4.12-10.17,4.65,1.15,9.3,2.3,13.95,3.45-.14,5.73-.27,11.47-.43,17.2-.06,2.1-1.28,3.3-4.25,4.16-.94.27-1.92.38-2.88.56.69-1.04,1.3-2.13,2.08-3.09.83-1.02.61-1.74-.39-2.39-1.04-.14-2.14-.58-3.1-.37-2.39.52-4.71,1.33-7.05,2.03-.68-3.35-1.37-6.71-2.05-10.06,5.5,1.41,11.01,2.83,16.51,4.24.08-.3.17-.59.25-.89-5.51-1.81-11.1-3.35-16.76-4.67Z"/>
    <path class="cls-3" d="M111.82,63.32c3.56-3.97,7.77-6.83,13.16-7.62-.04,3.65-.08,7.3-.11,10.96-4.35-1.11-8.7-2.22-13.05-3.33Z"/>
    <path class="cls-1" d="M150.24,79.29c.14-2.71.25-5.42.42-8.13.18-2.83,3.12-5.05,5.83-4.44.39,1.77.9,3.53,1.1,5.32.1.89-.05,2.24-.63,2.7-2.12,1.67-4.46,3.06-6.72,4.56Z"/>
    <path class="cls-10" d="M79.76,89.04c7.31,3.75,14.56,7.62,21.96,11.18,2.6,1.25,5.53,2.12,8.4,2.43,1.65.18,3.58-.87,5.16-1.78,1.8-1.04,3.33-2.53,4.98-3.82-2.33,2.2-4.45,4.72-7.09,6.46-1.35.89-3.74.82-5.46.38-3.09-.78-6.14-1.94-9.01-3.35-5.92-2.9-11.71-6.05-17.53-9.13-.8-.42-1.5-1.02-2.25-1.54.28-.28.56-.56.84-.84Z"/>
    <path class="cls-3" d="M140.09,122.77c1.79.38,2.92-.49,3.81-1.94.92-1.49,1.93-2.93,2.9-4.38-.14,5.03-.29,10.05-.4,15.08-.03,1.46-.68,2.05-2.11,1.78.05-2.8-.66-3.22-4.21-2.51,1.29-2.67,1.03-5.35.02-8.02Z"/>
    <path class="cls-1" d="M159.5,46.92c.27-.14.53-.28.8-.42-.27,2.57-.6,5.14-.75,7.72-.03.46.69,1.33,1.11,1.36.48.04,1.25-.53,1.49-1.03.32-.65.23-1.5.34-2.26.24-1.73.49-3.45.74-5.18.3.02.59.04.89.06,0,1.24.17,2.5-.04,3.7-.36,2.14.27,3.38,2.52,3.6-.25,4.69-2.11,8.87-4.15,12.99-.14-3.1.44-6.28-1.43-9.17-.72-1.11-1.43-1.84-2.78-1.79.42-3.2.84-6.39,1.26-9.59Z"/>
    <path class="cls-3" d="M166.61,54.48c-2.25-.22-2.89-1.46-2.52-3.6.21-1.2.04-2.47.04-3.7-.3-.02-.59-.04-.89-.06-.25,1.73-.5,3.45-.74,5.18-.11.76-.02,1.61-.34,2.26-.24.5-1.01,1.07-1.49,1.03-.43-.04-1.14-.9-1.11-1.36.15-2.58.48-5.15.75-7.72,1.97-.88,3.95-1.76,5.92-2.64,1.27,3.5.87,7.06.39,10.62Z"/>
    <path class="cls-3" d="M83.57,97.91c-3.29,1.2-6.65,2.25-9.85,3.66-1.95.86-3.84,2.08-5.43,3.5-1.72,1.54-3.07,3.5-4.44,5.11-.15-3.97,2.35-6.59,5.76-8.61,3.69-2.19,7.62-3.82,11.77-4.92.73.42,1.46.84,2.19,1.26Z"/>
    <path class="cls-4" d="M112.68,117.7c-1.7.42-3.39.84-5.09,1.26,0-1.95.05-3.91.02-5.86-.03-1.63.53-2.3,2.28-1.89,2.83.67,3.32,1.3,2.97,4.19-.09.76-.12,1.53-.17,2.29Z"/>
    <path class="cls-3" d="M60.36,117.7c.14,6.05.28,12.1.42,18.15-.7-2.91-1.77-5.79-2-8.74-.43-5.36-.36-10.76-.5-16.14.69,2.24,1.39,4.49,2.08,6.73Z"/>
    <path class="cls-4" d="M91.99,107.17c.01-1.55.03-3.09.04-4.64.27.97.75,1.94.77,2.92.08,3.95.03,7.91.02,11.87-1.72-.62-3.41-1.28-3.79-3.4.6-1.33,1.2-2.66,1.78-3.99.4-.92.78-1.84,1.17-2.76Z"/>
    <path class="cls-1" d="M111.82,63.32c4.35,1.11,8.7,2.22,13.05,3.33,0,.44.01.87.02,1.31-4.65-1.15-9.3-2.3-13.95-3.45.29-.4.59-.8.88-1.2Z"/>
    <path class="cls-4" d="M79.76,89.04c-.28.28-.56.56-.84.84-3.25-2.53-6.46-5.09-7.58-9.35.57.19,1.13.37,1.7.56,1.54,1.95,3.08,3.89,4.61,5.84.7.7,1.4,1.41,2.1,2.11Z"/>
    <path class="cls-1" d="M15.22,60.42c.69-.03,1.41-.19,2.08-.07,4.69.84,8.31-1.01,11.38-4.36.38-.41.81-.77,1.23-1.14.07-.06.24,0,.48,0-2.33,3.18-5.19,5.66-9.02,6.42-1.83.36-3.85-.29-5.79-.49-.12-.12-.24-.24-.36-.35Z"/>
    <path class="cls-4" d="M117.74,111.83c-.03,2.15-.94,3.74-2.93,4.65q-.06-3.79,2.93-4.65Z"/>
    <path class="cls-3" d="M137.16,104.63c1.55,1.89,3.1,3.77,4.66,5.66l-.77.64c-1.45-1.68-2.9-3.37-4.35-5.05.15-.41.31-.83.47-1.24Z"/>
    <path class="cls-9" d="M140.08,130.79c3.55-.71,4.26-.29,4.21,2.51-.7-.41-1.4-.82-2.1-1.23-1.12-.27-2.24-.55-3.36-.82.42-.15.83-.31,1.25-.46Z"/>
    <path class="cls-9" d="M80.65,18.61c3.24,4.31,3.89,9.38,4.13,14.53.09,1.88-.13,3.78-.26,5.66-.09,1.29-.76,1.89-2.11,1.63-4.41-.87-8.81-1.71-13.22-2.57-1.64-.32-2.11-1.33-1.93-2.92.19-1.67.36-3.37.22-5.03-.12-1.39-.72-2.73-1.08-4.1-.21-.8-.41-1.62-.55-2.44-.78-4.62-2.04-9.05-5.29-12.62-2.41-2.64-5.43-3.88-9.05-3.53-.55-.14-1.1-.27-1.65-.41,2.37-.14,4.75-.28,7.12-.42,1.43.99,3.36,1.68,4.2,3.03,1.94,3.12,4.87,3.97,8.07,4.68,1.41.32,3.25.55,4.04,1.52,2.01,2.45,4.68,2.58,7.36,2.98Z"/>
    <path class="cls-11" d="M49.86,6.81c.55.14,1.1.27,1.65.41,1.19.4,2.38.78,3.56,1.21,3.06,1.12,5.47,3.01,6.98,5.96-3.61-.84-7.23-1.64-10.83-2.53-.78-.19-1.49-.7-2.22-1.09-1.14-.61-2.22-1.42-3.43-1.82-1.85-.61-3.82-.88-5.69-1.43-.9-.27-1.83-.72-2.51-1.35-1.82-1.68-3.52-3.49-5.27-5.25,2.4.55,4.79,1.1,7.19,1.66,2.38,1.13,4.76,2.26,7.14,3.4,1.14.28,2.29.56,3.43.85Z"/>
    <path class="cls-9" d="M101.28,6.38c-2.76-3.35-6.88-4.46-10.52-6.38,3.26.3,6.52.72,9.79.86,3.62.15,7.25.04,10.88.04,1.14.28,2.29.51,3.42.85,2.78.83,5.55,1.71,8.32,2.58-.07.29-.14.57-.21.86-5.46-.3-10.91-.61-16.88-.94.69.53.9.69,1.12.86-.13,1.54-1.06,1.82-2.4,1.62-1.16-.17-2.34-.24-3.51-.35Z"/>
    <path class="cls-11" d="M80.65,18.61c-2.68-.4-5.35-.53-7.36-2.98-.79-.97-2.62-1.2-4.04-1.52-3.2-.72-6.13-1.56-8.07-4.68-.84-1.36-2.77-2.04-4.2-3.03.84.14,1.67.28,2.51.42.44.13.87.27,1.31.4,3.85.97,7.45,2.45,10.59,4.95.47.37,1.16.48,1.75.7,3.07,1.18,5.9,2.66,7.52,5.74Z"/>
    <path class="cls-1" d="M107.19,5.11c-.22-.17-.43-.33-1.12-.86,5.97.33,11.42.63,16.88.94.07-.29.14-.57.21-.86-2.77-.86-5.54-1.74-8.32-2.58-1.12-.34-2.28-.57-3.42-.85.56-.02,1.13-.05,1.69-.07,2.1.43,4.23.75,6.29,1.32,2.01.56,3.95,1.4,5.91,2.11,1.6,1.67,3.32,3.24,4.77,5.04,1.51,1.88,2.76,3.98,4.13,5.98-.15.13-.3.27-.45.4-.89-.56-1.73-1.52-2.67-1.62-4.17-.46-8.36-.64-12.54-.98-2.01-.16-4.01-.45-6.02-.68.01-.19.02-.38.03-.57.37-.07.75-.22,1.11-.2,4.04.31,8.08.69,12.12.95,2.07.13,4.16.07,6.24.09-1.6-1.67-3.09-3.46-4.83-4.96-.99-.85-2.36-1.6-3.63-1.73-4.17-.45-8.37-.59-12.56-.85-1.28,0-2.55-.02-3.83-.02Z"/>
    <path class="cls-3" d="M151.47,40.94c2.7-2.48,4.2-6.19,8-7.59.77-.29,1.16-1.61,1.72-2.46,1,1.69,2,3.37,3,5.05-.74.82-1.49,1.64-2.23,2.46-3.5.84-7,1.69-10.5,2.53Z"/>
    <path class="cls-9" d="M125.32,4.27c-1.97-.72-3.9-1.55-5.91-2.11-2.06-.58-4.19-.89-6.29-1.32,1.72.06,3.55-.24,5.14.25,3.94,1.23,7.82,2.71,11.61,4.33,1.42.61,2.55,1.89,3.84,2.84,1.84,1.36,3.7,2.69,5.54,4.03-.41.29-.83.59-1.24.88-1.11-.68-2.21-1.37-3.32-2.05-1.59-.97-3.26-1.81-4.75-2.91-1.62-1.19-3.08-2.61-4.62-3.93Z"/>
    <path class="cls-10" d="M138.01,13.16c.41-.29.83-.59,1.24-.88.55-.14,1.11-.28,1.66-.42.99.15,1.98.29,2.98.44-2.82,2.14-5.55,4.43-8.53,6.33-.88.56-2.47,0-3.73-.05.71-.96,1.42-1.93,2.13-2.89.15-.13.3-.27.45-.4,1.26-.71,2.53-1.42,3.79-2.13Z"/>
    <path class="cls-12" d="M161.97,38.4c.74-.82,1.49-1.64,2.23-2.46,2.8-.25,4.4-2.13,5.83-4.26,1.55,1.04.58,2.05-.24,2.68-2.09,1.6-4.33,3-6.51,4.49-.43-.15-.87-.3-1.3-.44Z"/>
    <path class="cls-12" d="M172.59,5.11c-3.03.04-4.73,2.03-6.29,4.26-.52.74-1.17,1.39-1.75,2.08-.28-.34-.86-.77-.8-1,1.07-3.57,4.95-5.88,8.84-5.34Z"/>
    <path class="cls-12" d="M143.89,12.3c-.99-.15-1.98-.29-2.98-.44,2.24-.13,4.48-.27,6.71-.4-1.25.28-2.49.56-3.74.84Z"/>
    <path class="cls-9" d="M32.1.92c1.75,1.76,3.45,3.57,5.27,5.25.68.63,1.61,1.08,2.51,1.35,1.87.56,3.84.82,5.69,1.43,1.21.4,2.28,1.21,3.43,1.82.73.39,1.44.9,2.22,1.09,3.6.89,7.22,1.7,10.83,2.53.85,2.06,1.93,4.06,2.49,6.19,1.24,4.71,1.65,9.53.92,14.4-.24,1.6-1.03,2.17-2.61,1.87-6.77-1.29-13.53-2.57-20.31-3.79-1.72-.31-2.12-1.22-1.97-2.82.22-2.37.31-4.76.35-7.15.01-.86-.28-1.72-.44-2.59-.21,0-.42,0-.63,0-.05.69-.11,1.37-.15,2.06-.16,2.59-.29,5.18-.5,7.77-.11,1.41-.91,1.86-2.34,1.6-6.7-1.18-7.48-1.85-7.24-8.62.23-6.38-1.64-12.02-4.96-17.29-2.36-3.74-6.91-4.73-10.65-2.32-1.47.95-2.84,2.06-4.26,3.09C12.26,2.7,15.81.43,20.72.49c5.01,3.3,9.72,7.22,16,7.98.9,2.69,1.8,5.39,2.7,8.08-.31-2.38-.61-4.81-1.56-6.94-2.14-4.8-4.55-8.32-10.38-8.3-.55-.14-1.1-.27-1.66-.41,2.09,0,4.19,0,6.28,0Z"/>
    <path class="cls-11" d="M36.71,8.47c-6.28-.75-10.98-4.68-16-7.98,1.7.14,3.4.28,5.11.42.55.14,1.11.27,1.66.41,3.94,1.27,7.43,3.13,9.24,7.15Z"/>
    <path class="cls-9" d="M133.77,15.68c-.71.96-1.42,1.93-2.13,2.89-.81,1.7-1.61,3.39-2.42,5.09,0,0-.18,0-.18,0-4.1-.4-8.19-.8-12.29-1.2-.04.35-.08.71-.11,1.06,4.08.88,8.26,1.15,12.44,1.37-.13,2.25-.27,4.5-.4,6.76-1.79-.11-3.33.28-4.14,2.1-.03.86-.06,1.73-.09,2.59-1.95-.25-3.9-.51-5.85-.76l-.1.8c2,.4,4,.8,6,1.2.29.41.58.82.87,1.23-1.88-.25-3.76-.47-5.63-.77-1.4-.22-2.32.04-2.52,1.66-.19,1.57-1.17,2.14-2.7,1.82-.76-.16-1.52-.28-2.28-.39-1.3-.19-1.72-.96-1.65-2.22.54-9.27-1.41-18.09-5.18-26.5-.98-2.19-2.71-4.05-4.1-6.06,1.17.11,2.35.18,3.51.35,1.34.2,2.27-.08,2.4-1.62,1.28,0,2.55.02,3.83.02,6.42,4.15,13.08,7.62,21.02,7.55-2.08-.02-4.17.05-6.24-.09-4.04-.26-8.08-.65-12.12-.95-.36-.03-.74.13-1.11.2-.01.19-.02.38-.03.57,2.01.23,4.01.52,6.02.68,4.18.34,8.37.53,12.54.98.94.1,1.78,1.06,2.67,1.62Z"/>
    <path class="cls-9" d="M67.08,3.39c3.25-.6,6.49-1.54,9.74.02,2.66,1.41,4.95,3.21,6.84,5.62.77.98,2.33,1.35,3.53,1.99.15-.21.3-.42.45-.63l-1.14-1.88c2.98-.82,6-1.53,8.92-2.51,2.11-.71,3.71-.39,4.96,1.42.85,1.23,1.61,2.51,2.42,3.76-1.37.44-2.72.97-4.13,1.29-2.56.58-5.14,1.03-7.71,1.53.03.24.06.47.08.71.7,0,1.42.1,2.1-.02,3.05-.52,6.09-1.05,9.12-1.67,1.61-.32,2.54.25,3.06,1.76.5,1.46,1.12,2.88,1.63,4.34.76,2.12.41,2.65-1.8,2.84-3.22.27-6.43.52-9.65.81-.47.04-.93.21-1.39.32l-.07.64c.92.1,1.85.34,2.76.29,2.8-.16,5.6-.4,8.4-.65,2.42-.21,2.99.17,3.34,2.61.27,1.88.47,3.76.63,5.65.17,2-.4,2.5-2.42,2.36-3.83-.28-7.65-.54-11.48-.81-.04.28-.08.55-.12.83,4.42.54,8.85,1.08,13.27,1.62-.03.22-.05.43-.08.65-1.67,0-3.34.06-5.01-.02-2.1-.1-4.22-.16-6.29-.51-2.08-.34-3.05.39-3.25,2.43-.11,1.16-.02,2.53-1.95,2.21-1.69-.28-2.93-.91-2.36-2.86,1.31-4.52-.93-8.67-1.26-13.02-.47-6.03-2.43-11.64-6.54-16.3-3.1-3.51-6.77-5.61-11.65-4.9-.97.14-1.96.06-2.95.08Z"/>
    <path class="cls-9" d="M16.09,49.41c-1.56,2.08-3.65,3.06-6.21,2.78-2.67-.29-4.11-2.05-5.13-4.42-2.18-5.08-1.31-10.37-1.12-15.59.07-1.83,1.78-2.96,3.62-2.69,5.07.73,10.14,1.51,15.18,2.43.67.12,1.75,1.37,1.63,1.84-1.45,5.81-3.16,11.53-7.97,15.65.47-.83.93-1.67,1.63-2.92-3.05-.38-5.8-.79-8.56-1.01-.79-.06-2.21.27-2.32.7-.24.87-.06,2.13.46,2.86.54.77,1.63,1.25,2.58,1.64,2.31.93,4.18-.68,6.22-1.27Z"/>
    <path class="cls-11" d="M86.51,8.52l1.14,1.88c-.15.21-.3.42-.45.63-1.2-.65-2.76-1.01-3.53-1.99-1.9-2.41-4.18-4.21-6.84-5.62.44-.14.87-.27,1.31-.41.54,0,1.1.06,1.63-.04,2.52-.48,5.04-1.01,7.56-1.51.41-.08.86-.16,1.25-.06,2.64.75,5.28,1.54,7.91,2.32-.02.28-.03.56-.05.85-.79.33-1.55.73-2.37.99-1.94.6-3.91,1.07-5.83,1.72-.64.22-1.15.81-1.72,1.24Z"/>
    <path class="cls-4" d="M121.95,48.56c-3.5,2.4-7.14,4.63-10.45,7.29-1.74,1.4-2.81,3.61-4.35,5.29-.6.66-1.66.89-2.52,1.32,3.33-7.05,9.17-11.28,16.1-14.27.41.12.81.25,1.22.37Z"/>
    <path class="cls-10" d="M77.66,86.93c-1.54-1.95-3.08-3.89-4.61-5.84,3.52.95,7.03,1.88,10.54,2.85.73.2,1.43.56,2.14.85-2.69.71-5.38,1.42-8.07,2.13Z"/>
    <path class="cls-1" d="M62.94,47.15c-2.96,7.46-6.44,14.56-14.98,17.3-2.35.76-4.42-.24-6.5-1.24.33,0,.67-.06.99,0,7.66,1.57,12.34-2.72,16.18-8.4,1.64-2.42,2.89-5.11,4.32-7.67Z"/>
    <path class="cls-4" d="M99.24,75.12c.52.77,1.31,1.48,1.51,2.33.96,3.99,1.76,8.01,2.62,12.03-.96-1.63-2.36-3.15-2.8-4.91-.76-3.07-.92-6.29-1.34-9.45Z"/>
    <path class="cls-5" d="M124.44,36.35c.03-.86.06-1.73.09-2.59,3.28.69,3.25.7,3.59,3.9.07.68.39,1.33.6,1.99-.29.03-.59.05-.88.08-.83-.3-1.66-.61-2.49-.92-.29-.41-.58-.82-.87-1.23-.02-.41-.03-.82-.05-1.24Z"/>
    <path class="cls-1" d="M84.43,64.37c3.61,2.33,7.84,3.61,10.86,6.96-3.96-1.74-7.91-3.49-11.43-5.98.19-.33.38-.65.57-.98Z"/>
    <path class="cls-1" d="M127.84,39.73c.29-.03.59-.05.88-.08.69.03,1.37.05,2.06.08.68.58,1.3,1.25,2.06,1.71,1.27.76,1.86,1.8,1.73,3.26-.7.14-1.4.28-2.1.41-1.54-1.79-3.09-3.59-4.63-5.38Z"/>
    <path class="cls-1" d="M89.76,56c4.08,1.62,8.15,3.23,12.23,4.85-.12.29-.23.59-.35.88-4.1-1.57-8.21-3.14-12.31-4.7.14-.34.29-.68.43-1.02Z"/>
    <path class="cls-1" d="M78.27,70.64c3.14,2.16,6.28,4.32,9.41,6.49-.18.27-.37.53-.55.8-3.13-2.15-6.26-4.3-9.39-6.45.18-.28.35-.56.53-.84Z"/>
    <path class="cls-10" d="M132.47,45.11c.7-.14,1.4-.28,2.1-.41.43.17.85.35,1.28.52-4.63,1.11-9.27,2.23-13.9,3.34-.41-.12-.81-.25-1.22-.37,3.91-1.03,7.82-2.05,11.74-3.08Z"/>
    <path class="cls-1" d="M56.07,67.05c2.7,1.14,5.4,2.27,7.85,3.3-2.25.75-6.8-.76-7.85-3.3Z"/>
    <path class="cls-1" d="M105.53,49.35c-2.88-.67-5.76-1.34-8.63-2,.03-.15.07-.3.1-.46,2.87.66,5.73,1.32,8.6,1.98-.02.16-.05.32-.07.48Z"/>
    <path class="cls-3" d="M159.5,46.92c-.42,3.2-.84,6.4-1.26,9.59-1.54,0-3.08.04-4.62,0-1.8-.04-2.33-1.02-1.84-2.67.91-3.04,3.13-6.78,7.72-6.93Z"/>
    <path class="cls-7" d="M128.67,31.66c.13-2.25.27-4.5.4-6.76-.01-.41-.03-.82-.04-1.23,0,0,.18,0,.18,0,2.98.44,3.24.73,3.27,3.72,0,.21,0,.42,0,.63,0,3.85-.08,3.92-3.82,3.65Z"/>
    <path class="cls-1" d="M106.82,74.68c5.66,1.32,11.25,2.86,16.76,4.67-.08.3-.17.59-.25.89-5.5-1.41-11.01-2.83-16.51-4.24,0-.44,0-.88,0-1.31Z"/>
    <path class="cls-7" d="M134.75,66.46c-.6-3.94-1.14-7.45-1.66-10.82,2.44.63,3.95,7.32,1.66,10.82Z"/>
    <path class="cls-10" d="M135.85,45.22c-.43-.17-.85-.35-1.28-.52.13-1.46-.46-2.49-1.73-3.26-.76-.46-1.38-1.13-2.06-1.71,3.4-.23,5.99,2.57,5.07,5.49Z"/>
    <path class="cls-10" d="M108.87,86.05c2.35-.7,4.67-1.51,7.05-2.03.96-.21,2.06.23,3.1.37-2.53.72-5.04,1.54-7.61,2.12-.77.18-1.69-.29-2.55-.46Z"/>
    <path class="cls-4" d="M161.97,38.4c.43.15.87.3,1.3.44-3.29.84-6.56,1.71-9.87,2.47-.58.13-1.28-.24-1.93-.38,3.5-.84,7-1.69,10.5-2.53Z"/>
    <path class="cls-7" d="M137.89,29.89c-.07-1.52-.14-3.04-.2-4.56.21-.01.42-.02.62-.03.07,1.52.13,3.04.2,4.56-.21.01-.41.02-.62.03Z"/>
    <path class="cls-1" d="M140.08,130.79c-.42.15-.83.31-1.25.46-.58-1.71-1.16-3.42-1.75-5.13.25-1.02.35-2.1.78-3.03.47-1.01,1.25-1.94,2.23-.32,1.01,2.68,1.27,5.35-.02,8.02Z"/>
    <path class="cls-1" d="M101.3,132.45c-8.36.17-16.37-1.83-24.33-4.04-1.25-.35-2.35-1.2-3.52-1.83,1.52.47,3.01,1.02,4.55,1.4,6.84,1.72,13.62,3.74,20.78,3.7.84,0,1.68.5,2.53.76Z"/>
    <path class="cls-4" d="M91.99,107.17c-.39.92-.77,1.85-1.17,2.76-.59,1.34-1.19,2.66-1.78,3.99-2.16-3.59-1.5-5.09,2.95-6.76Z"/>
    <path class="cls-9" d="M132.04,12.68c-7.93.07-14.6-3.4-21.02-7.55,4.19.26,8.39.41,12.56.85,1.27.14,2.63.88,3.63,1.73,1.74,1.5,3.24,3.29,4.83,4.96Z"/>
    <path class="cls-8" d="M138.01,13.16c-1.26.71-2.53,1.42-3.79,2.13-1.37-2-2.62-4.1-4.13-5.98-1.44-1.8-3.17-3.37-4.77-5.04,1.53,1.32,2.99,2.74,4.62,3.93,1.49,1.1,3.16,1.94,4.75,2.91,1.11.68,2.21,1.37,3.32,2.05Z"/>
    <path class="cls-1" d="M36.71,8.47c-1.81-4.03-5.29-5.89-9.24-7.15,5.83-.03,8.24,3.49,10.38,8.3.95,2.14,1.24,4.56,1.56,6.94-.9-2.69-1.8-5.39-2.7-8.08Z"/>
    <path class="cls-1" d="M129.03,23.67c.01.41.03.82.04,1.23-4.18-.22-8.36-.49-12.44-1.37.04-.35.08-.71.11-1.06,4.1.4,8.19.8,12.29,1.2Z"/>
    <path class="cls-1" d="M124.44,36.35c.02.41.03.82.05,1.24-2-.4-4-.8-6-1.2l.1-.8c1.95.25,3.9.51,5.85.76Z"/>
    <path class="cls-11" d="M16.09,49.41c-2.04.59-3.91,2.21-6.22,1.27-.94-.38-2.03-.86-2.58-1.64-.52-.74-.7-1.99-.46-2.86.12-.43,1.53-.76,2.32-.7,2.76.22,5.51.63,8.56,1.01-.7,1.25-1.16,2.08-1.63,2.92,0,0,0,0,0,0Z"/>
  </g>
</svg>