<?xml version="1.0" encoding="UTF-8"?>
<svg id="Layer_1" data-name="Layer 1" xmlns="http://www.w3.org/2000/svg" version="1.1" viewBox="0 0 55.9 55.9">
  <defs>
    <style>
      .cls-1 {
        fill: #16153b;
      }

      .cls-1, .cls-2 {
        stroke-width: 0px;
      }

      .cls-2 {
        fill: #fff;
      }
    </style>
  </defs>
  <g>
    <circle class="cls-1" cx="27.95" cy="27.95" r="26.89"/>
    <path class="cls-2" d="M27.95,55.9C12.54,55.9,0,43.36,0,27.95S12.54,0,27.95,0s27.95,12.54,27.95,27.95-12.54,27.95-27.95,27.95ZM27.95,2.11C13.7,2.11,2.11,13.7,2.11,27.95s11.59,25.84,25.84,25.84,25.84-11.59,25.84-25.84S42.2,2.11,27.95,2.11Z"/>
  </g>
  <g>
    <polyline class="cls-1" points="35.76 34.68 27.95 27.95 27.95 7.24"/>
    <path class="cls-2" d="M35.76,35.74c-.25,0-.49-.08-.69-.26l-7.81-6.73c-.23-.2-.37-.49-.37-.8V7.24c0-.58.47-1.06,1.06-1.06s1.06.47,1.06,1.06v20.23l7.44,6.41c.44.38.49,1.05.11,1.49-.21.24-.5.37-.8.37Z"/>
  </g>
</svg>