<?xml version="1.0" encoding="UTF-8"?>
<svg id="Layer_1" data-name="Layer 1" xmlns="http://www.w3.org/2000/svg" version="1.1" viewBox="0 0 108.47 142.66">
  <defs>
    <style>
      .cls-1 {
        fill: #d1ad34;
      }

      .cls-1, .cls-2, .cls-3, .cls-4 {
        stroke-width: 0px;
      }

      .cls-2 {
        fill: #616161;
      }

      .cls-3 {
        fill: #f5d056;
      }

      .cls-4 {
        fill: #ba9a2f;
      }
    </style>
  </defs>
  <path class="cls-2" d="M47.13.68c-.58-.18-1.16-.51-1.74-.51-1.51-.02-3.17-.7-4.39.84.84,3.63,1.7,7.25.91,11.01-2.25,7.29-5.69,14.07-8.99,20.9-1.87,3.86-3.72,7.71-4.49,11.98-.11.44-.32.89-.31,1.33.03,5.3-.26,10.63.25,15.88.47,4.87,1.01,9.64-.57,14.38-.71-.17-1.54-.17-2.12-.55-3.72-2.39-6.8-5.51-9.84-8.67-1.44-2.65-2.85-5.31-4.34-7.93-.68-1.19-1.47-2.33-2.33-3.39-.21-.25-1.25-.27-1.31-.13-.56,1.22-1.2,2.47-1.38,3.77-.2,1.39.19,2.85.12,4.28-.32,7.06,1.44,13.57,4.94,19.66.99,1.73,1.98,3.46,2.97,5.19,1.83,3.3,4.89,4.1,8.06,2.13.69-.43,1.44-.76,2.16-1.14-.21.89-.41,1.78-.63,2.67-1.16,4.79-2.15,9.63-3.52,14.36-1.16,4-2.74,7.88-4.14,11.81-.3.76-.64,1.5-.91,2.27-1.46,4.26-3,8.51-5.73,12.15-1.79,2.39-3.57,5.01-7.2,4.63-.87.26-1.73.52-2.6.77l.05.46c.51.2,1.02.38,1.52.6,3.7,1.63,7.73,1.76,11.6,2.62,4.24.95,8.26.87,12.17-1.06.94-.46,1.89-.99,2.67-1.68,1.26-1.11,2.38-2.38,3.56-3.59,1.91-2.01,3.82-4.03,5.73-6.04,1.7-1.98,3.32-4.03,5.1-5.92,5.69-6.04,8.86-13.12,9.43-21.43.28-4.13.95-8.22,1.44-12.34,1.41,1.81,2.78,3.66,4.25,5.42,1.3,1.56,2.48,3.4,4.13,4.47,3.32,2.15,7.01,3.56,11.12,3.3,1.58-.1,3.17-.13,4.73-.35,2.37-.33,4.94-.33,7.04-1.3,4.48-2.06,8.81-4.51,13.03-7.07,3.26-1.98,5.66-4.92,7.63-8.19,1.44-3.17,3.94-6.03,3.07-10.36-1.01.68-1.82.99-2.29,1.58-2.07,2.61-4.67,4.53-7.58,6.06-6.18,3.39-12.97,3.87-19.78,3.82-3.4-.03-6.81-.69-10.18-1.28-5.29-.92-10.15-2.76-13.64-7.17-.92-1.84-1.84-3.69-2.75-5.53.09-7.16.18-14.32.27-21.48-.13-3.52-.02-7.07-.47-10.55-.51-3.94-1.61-7.8-2.29-11.72-.83-4.79-1.37-9.62-2.24-14.4-.8-4.41-1.5-8.77-.3-13.21.12-.43.07-.92.09-1.37Z"/>
  <path class="cls-4" d="M27.8,76.49c1.58-4.74,1.04-9.51.57-14.38-.51-5.25-.22-10.58-.25-15.88,0-.44.2-.89.31-1.33.27-.34.72-.63.8-1.01,1.11-5.06,3.97-9.36,6.03-14.01,2.27-5.12,4.39-10.3,6.49-15.49.28-.7.12-1.57.16-2.37.8-3.76-.06-7.39-.91-11.01,1.74.09,3.47.18,5.21.27-.14,3.2-.27,6.41-.45,9.61-.02.42-.31.82-.45,1.24-.23.68-.62,1.36-.61,2.04.04,1.32.26,2.64.49,3.95,1.76,10.06,3.53,20.12,5.31,30.18.06.34.12.88.33.97,1.2.52,1.21,1.66,1.5,2.66-.09,7.16-.18,14.32-.27,21.48,0,.61.04,1.23-.03,1.83-.24,2.21.87,4.55-.73,6.64-.18.23-.05.83.11,1.18.53,1.2,1,2.47,1.75,3.53,1.53,2.16,3.21,4.21,4.87,6.27.82,1.03,1.73,1.99,2.6,2.98,1.73,2.54,4.33,3.81,7.07,4.84,2.59.97,5.19,1.77,8.05,1.25,2.61-.47,5.24-.77,7.87-1.13,3.3-.45,5.95-2.29,8.63-4.04,3.57-1.53,6.59-3.84,9.29-6.58,1.25-1.27,2.44-2.6,3.66-3.9-1.97,3.26-4.38,6.21-7.64,8.19-4.22,2.56-8.55,5.01-13.03,7.07-2.1.97-4.67.97-7.04,1.3-1.56.22-3.15.26-4.73.35-4.11.25-7.8-1.16-11.12-3.3-1.65-1.07-2.83-2.9-4.13-4.47-1.47-1.76-2.84-3.61-4.25-5.42.02-2.65-.02-2.65-2.53-1.7-3.73,1.41-7.45,2.86-11.23,4.11-1.01.34-2.28.18-3.37-.03-2.08-.4-3.13-2.11-4.33-3.66-1.33-1.72-2.75-3.4-4.33-4.9-1.02-.96-1.52-.68-1.82.75-.36,1.7-.64,3.42-.95,5.12-.72.38-1.47.71-2.16,1.14-3.17,1.96-6.23,1.16-8.06-2.13,3.82,2.2,5.82,2.25,8.58-2.45,1.29-2.2,2.72-4.33,4.12-6.47.68-1.04,1.09-2.08.6-3.31ZM36.39,58.4c.67-2.41.29-4.74-.64-6.99-.18-.43-.78-.96-1.19-.95-.42,0-1.08.53-1.2.95-.33,1.15-.43,2.37-.62,3.56.26,1.27.41,2.58.85,3.78.19.51,1.05,1.13,1.54,1.08.46-.05.84-.91,1.25-1.42ZM42.22,57.79c.22.92.3,1.92.71,2.75.26.53,1.08,1.19,1.54,1.12.54-.09.96-.91,1.44-1.41,1.11-2.41.76-4.8-.26-7.09-.64-1.43-2.1-1.59-2.7-.35-.75,1.55-1.35,3.21-.72,4.99Z"/>
  <path class="cls-1" d="M24.72,89.71c.31-1.71.59-3.43.95-5.12.3-1.42.81-1.71,1.82-.75,1.58,1.49,2.99,3.18,4.33,4.9,1.2,1.55,2.25,3.26,4.33,3.66,1.1.21,2.36.37,3.37.03,3.78-1.25,7.5-2.7,11.23-4.11,2.5-.95,2.54-.94,2.53,1.7-.49,4.11-1.16,8.21-1.44,12.34-.57,8.32-3.74,15.4-9.43,21.43-1.79,1.89-3.41,3.94-5.1,5.92-.53-.66-1-1.38-1.6-1.96-1.89-1.85-3.79-3.68-5.75-5.45-.85-.77-1.79-1.73-2.83-1.95-3.53-.75-7.12-1.21-10.69-1.77,1.4-3.93,2.98-7.81,4.14-11.81,1.37-4.73,2.37-9.57,3.52-14.36.21-.89.42-1.78.63-2.67Z"/>
  <path class="cls-3" d="M92.27,96.76c-2.69,1.75-5.33,3.6-8.63,4.04-2.63.35-5.26.65-7.87,1.13-2.85.52-5.46-.28-8.05-1.25-2.75-1.03-5.35-2.3-7.07-4.84-2.21-5.54-4.32-11.11-5.82-16.9,3.48,4.41,8.35,6.25,13.64,7.17,3.37.59,6.78,1.25,10.18,1.28,6.81.05,13.6-.43,19.78-3.82-.69,1.63-1.57,3.22-2.05,4.91-.86,3.04-1.95,5.91-4.1,8.28Z"/>
  <path class="cls-3" d="M16.43,118.56c3.57.57,7.16,1.02,10.69,1.77,1.04.22,1.97,1.19,2.83,1.95,1.96,1.77,3.87,3.6,5.75,5.45.6.59,1.07,1.3,1.6,1.96-1.91,2.02-3.82,4.03-5.73,6.04-1.4,1.02-2.74,2.12-4.21,3.03-3.13,1.93-6.49,3.29-10.24,3.03-3-.21-5.98-.82-8.98-1-2.47-.14-4.31-1.06-5.53-3.19,3.63.38,5.4-2.24,7.2-4.63,2.73-3.64,4.27-7.88,5.73-12.15.26-.77.6-1.52.91-2.27Z"/>
  <path class="cls-3" d="M27.8,76.49c.49,1.23.08,2.27-.6,3.31-1.4,2.14-2.83,4.26-4.12,6.47-2.76,4.7-4.77,4.64-8.58,2.45-.99-1.73-1.98-3.46-2.97-5.19.52-2.84,1.09-5.67,1.55-8.52.3-1.86.4-3.79,1.91-5.16.81-.73,1.08-1.55.84-2.58,3.05,3.16,6.13,6.28,9.84,8.67.58.38,1.41.38,2.12.55Z"/>
  <path class="cls-1" d="M15.83,67.27c.24,1.03-.03,1.85-.84,2.58-1.52,1.37-1.61,3.3-1.91,5.16-.46,2.85-1.03,5.68-1.55,8.52-3.5-6.09-5.26-12.6-4.94-19.66.06-1.42-.32-2.89-.12-4.28.18-1.3.82-2.55,1.38-3.77.07-.14,1.11-.13,1.31.13.86,1.06,1.65,2.2,2.33,3.39,1.49,2.62,2.9,5.28,4.34,7.93Z"/>
  <path class="cls-4" d="M92.27,96.76c2.16-2.37,3.24-5.25,4.1-8.28.48-1.69,1.35-3.28,2.05-4.91,2.92-1.53,5.51-3.45,7.58-6.06.47-.59,1.28-.9,2.29-1.58.87,4.33-1.63,7.19-3.07,10.36-1.22,1.3-2.4,2.63-3.65,3.9-2.71,2.74-5.73,5.05-9.29,6.58Z"/>
  <path class="cls-1" d="M52.33,51.93c-.29-1-.3-2.13-1.5-2.66-.21-.09-.27-.63-.33-.97-1.78-10.06-3.55-20.12-5.31-30.18-.23-1.31-.45-2.63-.49-3.95-.02-.67.38-1.36.61-2.04.14-.42.43-.82.45-1.24.18-3.2.3-6.41.45-9.61.31-.2.61-.4.92-.6-.03.46.03.94-.09,1.37-1.2,4.44-.5,8.8.3,13.21.87,4.78,1.41,9.61,2.24,14.4.68,3.92,1.78,7.78,2.29,11.72.45,3.48.33,7.03.47,10.55Z"/>
  <path class="cls-1" d="M54.82,78.94c1.5,5.79,3.61,11.36,5.82,16.9-.87-.99-1.78-1.95-2.6-2.98-1.66-2.07-3.34-4.12-4.87-6.27-.75-1.06-1.22-2.33-1.75-3.53-.16-.35-.29-.94-.11-1.18,1.6-2.08.49-4.43.73-6.64.06-.6.02-1.22.03-1.83.92,1.84,1.84,3.69,2.75,5.53Z"/>
  <path class="cls-4" d="M2.6,137.61c1.23,2.14,3.06,3.05,5.53,3.19,3,.17,5.98.79,8.98,1,3.75.26,7.11-1.1,10.24-3.03,1.47-.9,2.81-2.01,4.21-3.03-1.18,1.2-2.3,2.47-3.56,3.59-.78.69-1.73,1.21-2.67,1.68-3.91,1.93-7.93,2.01-12.17,1.06-3.87-.86-7.9-.99-11.6-2.62-.5-.22-1.01-.4-1.52-.6l-.05-.46c.87-.26,1.73-.52,2.6-.77Z"/>
  <path class="cls-1" d="M41.91,12.02c-.04.79.12,1.67-.16,2.37-2.11,5.19-4.22,10.37-6.49,15.49-2.06,4.65-4.92,8.95-6.03,14.01-.08.38-.52.68-.8,1.01.77-4.27,2.62-8.12,4.49-11.98,3.3-6.83,6.74-13.61,8.99-20.9Z"/>
  <path class="cls-1" d="M45.91,60.24c-.47.5-.89,1.32-1.44,1.41-.46.08-1.28-.59-1.54-1.12-.41-.83-.49-1.82-.71-2.75.02-.2-.02-.44.08-.59.33-.57.71-1.11,1.07-1.66.54.46,1.29.81,1.56,1.39.48,1.03.67,2.2.98,3.32Z"/>
  <path class="cls-3" d="M45.91,60.24c-.31-1.11-.5-2.28-.98-3.32-.27-.58-1.03-.94-1.56-1.39-.36.55-.74,1.1-1.07,1.66-.09.16-.06.39-.08.59-.63-1.79-.03-3.44.72-4.99.6-1.23,2.06-1.08,2.7.35,1.03,2.29,1.37,4.69.26,7.09Z"/>
  <path class="cls-1" d="M36.39,58.4c-.41.5-.79,1.37-1.25,1.42-.49.05-1.35-.57-1.54-1.08-.45-1.2-.59-2.51-.85-3.78,1.14-1.68,1.9-1.69,2.71.11.47,1.04.64,2.22.94,3.33Z"/>
  <path class="cls-3" d="M36.39,58.4c-.3-1.11-.47-2.29-.94-3.33-.81-1.8-1.57-1.79-2.71-.11.19-1.19.29-2.41.62-3.56.12-.42.78-.95,1.2-.95.4,0,1.01.52,1.19.95.93,2.25,1.31,4.58.64,6.99Z"/>
</svg>