<?xml version="1.0" encoding="UTF-8"?>
<svg id="Layer_1" data-name="Layer 1" xmlns="http://www.w3.org/2000/svg" version="1.1" viewBox="0 0 669.89 252">
  <defs>
    <style>
      .cls-1 {
        fill: #6dd6a2;
      }

      .cls-1, .cls-2 {
        stroke-width: 0px;
      }

      .cls-3 {
        stroke: #4c1e4f;
        stroke-miterlimit: 10;
        stroke-width: 1.99px;
      }

      .cls-3, .cls-2 {
        fill: #4c1e4f;
      }
    </style>
  </defs>
  <g>
    <path class="cls-2" d="M93.52,132.13c-4.95,0-9.4-1.14-13.34-3.42-3.94-2.28-7.06-5.31-9.38-9.11-2.32-3.79-3.48-7.97-3.48-12.52,0-5.06,1.05-9.49,3.14-13.28s5.05-6.73,8.86-8.82c3.81-2.09,8.23-3.13,13.24-3.13,3.11,0,6.03.67,8.76,1.99s4.95,3.08,6.67,5.26,2.57,4.51,2.57,6.97h-8v-34.62h17.15v45.63c0,4.81-1.13,9.11-3.38,12.9-2.25,3.79-5.35,6.77-9.29,8.92-3.94,2.15-8.45,3.23-13.53,3.23ZM93.52,116.1c1.84,0,3.43-.41,4.76-1.23,1.33-.82,2.38-1.93,3.14-3.32.76-1.39,1.14-2.91,1.14-4.55s-.38-3.16-1.14-4.55c-.76-1.39-1.81-2.5-3.14-3.32-1.33-.82-2.92-1.23-4.76-1.23s-3.35.41-4.72,1.23c-1.37.82-2.43,1.93-3.19,3.32-.76,1.39-1.14,2.91-1.14,4.55s.38,3.16,1.14,4.55c.76,1.39,1.83,2.5,3.19,3.32,1.37.82,2.94,1.23,4.72,1.23Z"/>
    <path class="cls-2" d="M146.39,130.71h-17.15v-26.28c0-4.24.82-8.06,2.47-11.48,1.65-3.41,4.16-6.13,7.53-8.16,3.37-2.02,7.62-3.04,12.76-3.04,1.65,0,3.29.14,4.9.43,1.62.29,3.03.68,4.24,1.19v16.41c-1.14-.63-2.38-1.11-3.72-1.42-1.33-.32-2.6-.47-3.81-.47-2.22,0-3.99.62-5.29,1.85-1.3,1.23-1.95,2.99-1.95,5.26v25.71Z"/>
    <path class="cls-2" d="M192.11,132.04c-5.08,0-9.64-1.06-13.67-3.18-4.03-2.12-7.21-5.09-9.52-8.92-2.32-3.83-3.48-8.33-3.48-13.52,0-4.55,1.06-8.73,3.19-12.52s5.1-6.83,8.91-9.11,8.22-3.42,13.24-3.42,9.62,1.14,13.24,3.42,6.37,5.26,8.24,8.96c1.87,3.7,2.81,7.67,2.81,11.91v4.27h-35.82l2.38-3.03c0,2.15.43,4.03,1.29,5.64.86,1.61,2.05,2.85,3.57,3.7,1.53.85,3.34,1.28,5.43,1.28,2.29,0,4.3-.57,6.05-1.71s3.03-2.62,3.86-4.46l13.15,6.55c-2.03,4.43-5.02,7.89-8.95,10.39s-8.57,3.75-13.91,3.75ZM182.68,101.11h15.34c-.25-.88-.71-1.72-1.38-2.51-.67-.79-1.51-1.42-2.52-1.9-1.02-.47-2.19-.71-3.53-.71s-2.54.24-3.62.71-1.97,1.09-2.67,1.85c-.7.76-1.24,1.61-1.62,2.56Z"/>
    <path class="cls-2" d="M245.08,132.13c-4.63,0-8.7-1.14-12.19-3.42-3.49-2.28-6.22-5.33-8.19-9.15-1.97-3.83-2.95-8.05-2.95-12.66s1.16-8.82,3.48-12.62c2.32-3.79,5.45-6.83,9.38-9.11,3.94-2.28,8.38-3.41,13.34-3.41s9.59,1.09,13.52,3.27c3.94,2.18,7.04,5.15,9.29,8.92s3.38,8.08,3.38,12.95v23.81h-16.2v-16.6h4.76c0,3.48-.7,6.58-2.1,9.3s-3.39,4.85-6,6.4c-2.6,1.55-5.78,2.32-9.52,2.32ZM247.94,116.1c1.84,0,3.43-.41,4.76-1.23,1.33-.82,2.38-1.93,3.14-3.32.76-1.39,1.14-2.91,1.14-4.55s-.38-3.26-1.14-4.65-1.81-2.5-3.14-3.32-2.92-1.23-4.76-1.23-3.35.41-4.72,1.23-2.43,1.93-3.19,3.32-1.14,2.94-1.14,4.65.38,3.16,1.14,4.55c.76,1.39,1.83,2.5,3.19,3.32,1.37.82,2.94,1.23,4.72,1.23Z"/>
    <path class="cls-2" d="M344.53,81.38c5.46,0,9.99,1.14,13.58,3.42,3.59,2.28,6.27,5.26,8.05,8.96,1.78,3.7,2.67,7.76,2.67,12.19v24.76h-17.15v-21.82c0-2.02-.27-3.86-.81-5.5-.54-1.64-1.43-2.95-2.67-3.94-1.24-.98-2.91-1.47-5-1.47s-3.75.49-4.95,1.47c-1.21.98-2.08,2.29-2.62,3.94-.54,1.65-.81,3.48-.81,5.5v21.82h-17.15v-21.82c0-2.02-.25-3.86-.76-5.5-.51-1.64-1.38-2.95-2.62-3.94-1.24-.98-2.91-1.47-5-1.47s-3.76.49-5,1.47c-1.24.98-2.13,2.29-2.67,3.94-.54,1.65-.81,3.48-.81,5.5v21.82h-17.15v-24.76c0-4.43.89-8.49,2.67-12.19,1.78-3.7,4.46-6.69,8.05-8.96,3.59-2.28,8.11-3.42,13.57-3.42,4.19,0,7.8.71,10.81,2.14,3.02,1.42,5.33,3.43,6.95,6.02,1.62,2.59,2.43,5.63,2.43,9.11h-3.81c0-3.48.89-6.51,2.67-9.11,1.78-2.59,4.19-4.6,7.24-6.02,3.05-1.42,6.48-2.14,10.29-2.14Z"/>
    <path class="cls-2" d="M383.12,63.55h5.91v67.16h-5.91V63.55Z"/>
    <path class="cls-2" d="M426.27,131.66c-4.45,0-8.43-1.09-11.96-3.27s-6.32-5.09-8.38-8.73c-2.06-3.63-3.09-7.67-3.09-12.09s1.06-8.36,3.19-12c2.13-3.64,5.02-6.53,8.67-8.68,3.65-2.15,7.76-3.22,12.34-3.22s8.68,1.06,12.34,3.18c3.65,2.12,6.56,4.98,8.72,8.58,2.16,3.61,3.24,7.65,3.24,12.14v23.15h-5.62v-17.64l2.48-3.61c0,4.11-.95,7.84-2.86,11.19-1.9,3.35-4.49,6.02-7.76,8.02-3.27,1.99-7.03,2.99-11.29,2.99ZM427.03,126.06c3.43,0,6.54-.84,9.34-2.51s5-3.91,6.62-6.69c1.62-2.78,2.43-5.85,2.43-9.2s-.81-6.42-2.43-9.2c-1.62-2.78-3.83-5.01-6.62-6.69-2.79-1.68-5.91-2.51-9.34-2.51s-6.53.84-9.29,2.51c-2.76,1.68-4.95,3.91-6.57,6.69-1.62,2.78-2.43,5.85-2.43,9.2s.81,6.42,2.43,9.2c1.62,2.78,3.81,5.01,6.57,6.69s5.86,2.51,9.29,2.51Z"/>
    <path class="cls-2" d="M488.57,89.26c-3.49,0-6.43.85-8.81,2.56-2.38,1.71-4.19,3.95-5.43,6.74-1.24,2.78-1.86,5.82-1.86,9.11v23.05h-5.91v-23.52c0-4.42.87-8.41,2.62-11.95s4.25-6.36,7.52-8.44c3.27-2.09,7.23-3.13,11.86-3.13s8.81,1.03,12.14,3.08c3.34,2.06,5.89,4.85,7.67,8.39,1.78,3.54,2.67,7.53,2.67,11.95v23.62h-5.91v-22.96c0-3.29-.63-6.34-1.9-9.15-1.27-2.81-3.13-5.07-5.57-6.78-2.45-1.71-5.48-2.56-9.1-2.56Z"/>
    <path class="cls-2" d="M547.16,131.75c-4.57,0-8.69-1.09-12.34-3.27-3.65-2.18-6.54-5.09-8.67-8.73-2.13-3.64-3.19-7.64-3.19-12s1.05-8.65,3.14-12.28,4.95-6.51,8.57-8.63c3.62-2.12,7.68-3.18,12.19-3.18,4.06,0,7.76.96,11.1,2.89,3.34,1.93,6,4.51,8,7.73,2,3.23,3,6.77,3,10.62l-3.53-3.6.1-37.75h5.91v44.2c0,4.49-1.08,8.55-3.24,12.19-2.16,3.64-5.07,6.51-8.72,8.63-3.65,2.12-7.76,3.18-12.34,3.18ZM547.16,126.16c3.43,0,6.54-.84,9.34-2.51s5-3.91,6.62-6.69c1.62-2.78,2.43-5.85,2.43-9.2s-.81-6.43-2.43-9.25c-1.62-2.81-3.83-5.06-6.62-6.73-2.79-1.68-5.91-2.51-9.34-2.51s-6.53.84-9.29,2.51c-2.76,1.68-4.95,3.92-6.57,6.73-1.62,2.81-2.43,5.9-2.43,9.25s.81,6.42,2.43,9.2c1.62,2.78,3.81,5.01,6.57,6.69s5.86,2.51,9.29,2.51Z"/>
  </g>
  <g>
    <path class="cls-3" d="M86.01,182.56c-2.59,0-4.96-.63-7.1-1.89-2.14-1.26-3.84-2.95-5.1-5.07-1.26-2.12-1.89-4.52-1.89-7.18v-26.03h1.97v22.88l-1.41,2.59c0-2.48.6-4.74,1.8-6.79,1.2-2.05,2.83-3.68,4.87-4.9s4.35-1.83,6.9-1.83,5,.63,7.1,1.89c2.1,1.26,3.77,2.96,5.01,5.1,1.24,2.14,1.86,4.51,1.86,7.1s-.61,4.96-1.83,7.1c-1.22,2.14-2.88,3.85-4.99,5.13-2.1,1.28-4.51,1.92-7.21,1.92ZM86.01,180.64c2.22,0,4.25-.55,6.09-1.66,1.84-1.11,3.3-2.59,4.37-4.45s1.61-3.88,1.61-6.06-.54-4.31-1.61-6.17-2.53-3.33-4.37-4.42c-1.84-1.09-3.87-1.63-6.09-1.63s-4.29.55-6.11,1.63-3.28,2.56-4.37,4.42-1.63,3.92-1.63,6.17.54,4.2,1.63,6.06,2.55,3.34,4.37,4.45c1.82,1.11,3.86,1.66,6.11,1.66Z"/>
    <path class="cls-1" d="M128.16,168.08c-.68,0-1.3-.15-1.86-.45-.56-.3-1.01-.73-1.33-1.3-.32-.56-.48-1.22-.48-1.97,0-.64.16-1.23.48-1.78s.76-.97,1.33-1.27c.56-.3,1.18-.45,1.86-.45s1.27.15,1.8.45c.53.3.95.72,1.27,1.27s.48,1.14.48,1.78c0,.75-.16,1.41-.48,1.97-.32.56-.74,1-1.27,1.3-.53.3-1.13.45-1.8.45Z"/>
    <path class="cls-3" d="M169.97,182.45c-2.59,0-4.95-.63-7.07-1.89-2.12-1.26-3.8-2.97-5.02-5.13-1.22-2.16-1.83-4.54-1.83-7.13s.62-4.85,1.86-6.99c1.24-2.14,2.92-3.85,5.04-5.13,2.12-1.28,4.52-1.92,7.19-1.92s5,.62,7.13,1.86c2.12,1.24,3.81,2.94,5.07,5.1,1.26,2.16,1.89,4.52,1.89,7.07v13.69h-1.92v-10.65l1.18-2.54c0,2.48-.59,4.76-1.78,6.85-1.18,2.09-2.79,3.74-4.82,4.96-2.03,1.22-4.34,1.83-6.93,1.83ZM170.14,180.53c2.25,0,4.29-.54,6.11-1.63,1.82-1.09,3.28-2.55,4.36-4.4,1.09-1.84,1.64-3.89,1.64-6.14s-.54-4.23-1.64-6.06c-1.09-1.82-2.54-3.29-4.36-4.4-1.82-1.11-3.86-1.66-6.11-1.66s-4.25.55-6.09,1.66c-1.84,1.11-3.3,2.57-4.36,4.4-1.07,1.82-1.61,3.84-1.61,6.06s.54,4.3,1.61,6.14c1.07,1.84,2.53,3.31,4.36,4.4,1.84,1.09,3.87,1.63,6.09,1.63Z"/>
    <path class="cls-1" d="M214.48,168.08c-.67,0-1.29-.15-1.86-.45-.56-.3-1.01-.73-1.32-1.3-.32-.56-.48-1.22-.48-1.97,0-.64.16-1.23.48-1.78s.76-.97,1.32-1.27c.56-.3,1.18-.45,1.86-.45s1.28.15,1.8.45c.52.3.95.72,1.27,1.27.32.54.48,1.14.48,1.78,0,.75-.16,1.41-.48,1.97-.32.56-.74,1-1.27,1.3-.53.3-1.13.45-1.8.45Z"/>
    <path class="cls-3" d="M253.08,182.45c-2.1,0-4.04-.49-5.8-1.46-1.77-.98-3.14-2.44-4.11-4.4l1.63-.96c.94,1.73,2.11,2.98,3.52,3.75,1.41.77,2.98,1.15,4.71,1.15,1.35,0,2.6-.22,3.75-.68,1.14-.45,2.07-1.11,2.79-1.97.71-.86,1.07-1.92,1.07-3.16,0-1.39-.41-2.44-1.24-3.16-.83-.71-1.86-1.24-3.1-1.58-1.24-.34-2.56-.64-3.97-.9-1.41-.26-2.74-.63-4-1.1-1.26-.47-2.28-1.17-3.07-2.11-.79-.94-1.18-2.25-1.18-3.94,0-1.46.41-2.74,1.21-3.83.81-1.09,1.88-1.94,3.21-2.56,1.33-.62,2.81-.93,4.42-.93,1.28,0,2.49.17,3.63.51,1.14.34,2.19.87,3.13,1.61.94.73,1.71,1.66,2.31,2.79l-1.69.96c-.83-1.47-1.89-2.51-3.19-3.13-1.29-.62-2.69-.93-4.2-.93-1.13,0-2.22.23-3.27.7-1.05.47-1.91,1.11-2.56,1.92-.66.81-.98,1.76-.98,2.85,0,1.35.39,2.39,1.18,3.1.79.71,1.8,1.24,3.04,1.58,1.24.34,2.57.65,4,.93,1.43.28,2.76.66,4,1.13,1.24.47,2.26,1.18,3.07,2.14.81.96,1.21,2.28,1.21,3.97,0,1.58-.44,2.94-1.32,4.09-.88,1.15-2.05,2.04-3.49,2.68-1.45.64-3.02.96-4.71.96Z"/>
    <path class="cls-1" d="M291.46,168.08c-.68,0-1.3-.15-1.86-.45-.56-.3-1.01-.73-1.33-1.3-.32-.56-.48-1.22-.48-1.97,0-.64.16-1.23.48-1.78s.76-.97,1.33-1.27c.56-.3,1.18-.45,1.86-.45s1.27.15,1.8.45c.53.3.95.72,1.27,1.27s.48,1.14.48,1.78c0,.75-.16,1.41-.48,1.97-.32.56-.74,1-1.27,1.3-.53.3-1.13.45-1.8.45Z"/>
    <path class="cls-3" d="M336.82,156.7h-19.61v-1.86h19.61v1.86ZM331.46,182.5c-1.65,0-3.09-.36-4.31-1.07-1.22-.71-2.18-1.73-2.87-3.04-.7-1.31-1.04-2.87-1.04-4.68v-26.15h1.97v26.15c0,2.14.58,3.84,1.75,5.1,1.16,1.26,2.71,1.89,4.62,1.89,1.05,0,2.02-.2,2.9-.59.88-.39,1.66-.89,2.34-1.49v2.09c-.71.56-1.53,1.01-2.45,1.32-.92.32-1.89.48-2.9.48Z"/>
    <path class="cls-1" d="M366.57,168.08c-.67,0-1.29-.15-1.86-.45-.56-.3-1.01-.73-1.32-1.3-.32-.56-.48-1.22-.48-1.97,0-.64.16-1.23.48-1.78s.76-.97,1.32-1.27c.56-.3,1.18-.45,1.86-.45s1.28.15,1.8.45c.52.3.95.72,1.27,1.27.32.54.48,1.14.48,1.78,0,.75-.16,1.41-.48,1.97-.32.56-.74,1-1.27,1.3-.53.3-1.13.45-1.8.45Z"/>
    <path class="cls-3" d="M398.75,147.45c-.3,0-.58-.08-.85-.23-.26-.15-.47-.37-.62-.65-.15-.28-.22-.59-.22-.93s.07-.64.22-.9c.15-.26.36-.47.62-.62.26-.15.54-.23.85-.23.34,0,.63.08.87.23.24.15.44.36.59.62.15.26.23.56.23.9s-.08.65-.23.93c-.15.28-.35.5-.59.65-.25.15-.54.23-.87.23ZM397.79,154.84h1.97v27.16h-1.97v-27.16Z"/>
    <path class="cls-1" d="M431.09,168.08c-.68,0-1.3-.15-1.86-.45-.56-.3-1.01-.73-1.33-1.3-.32-.56-.48-1.22-.48-1.97,0-.64.16-1.23.48-1.78s.76-.97,1.33-1.27c.56-.3,1.18-.45,1.86-.45s1.27.15,1.8.45c.53.3.95.72,1.27,1.27s.48,1.14.48,1.78c0,.75-.16,1.41-.48,1.97-.32.56-.74,1-1.27,1.3-.53.3-1.13.45-1.8.45Z"/>
    <path class="cls-3" d="M473.07,182.45c-2.63,0-5.01-.63-7.13-1.89s-3.81-2.97-5.07-5.13c-1.26-2.16-1.89-4.54-1.89-7.13s.64-4.89,1.92-7.01c1.27-2.12,2.99-3.82,5.13-5.1,2.14-1.28,4.49-1.92,7.05-1.92,2.71,0,5.11.64,7.24,1.92,2.12,1.28,3.79,2.99,5.02,5.13,1.22,2.14,1.83,4.47,1.83,6.99s-.62,4.97-1.86,7.13-2.93,3.87-5.05,5.13-4.52,1.89-7.18,1.89ZM473.07,180.53c2.25,0,4.29-.54,6.11-1.63,1.82-1.09,3.28-2.55,4.37-4.4s1.63-3.89,1.63-6.14-.54-4.23-1.63-6.06c-1.09-1.82-2.54-3.29-4.37-4.4-1.82-1.11-3.86-1.66-6.11-1.66s-4.25.55-6.09,1.66c-1.84,1.11-3.3,2.57-4.37,4.4-1.07,1.82-1.6,3.84-1.6,6.06s.53,4.3,1.6,6.14,2.53,3.31,4.37,4.4c1.84,1.09,3.87,1.63,6.09,1.63Z"/>
    <path class="cls-1" d="M515.22,168.08c-.67,0-1.29-.15-1.86-.45-.56-.3-1.01-.73-1.32-1.3-.32-.56-.48-1.22-.48-1.97,0-.64.16-1.23.48-1.78s.76-.97,1.32-1.27c.56-.3,1.18-.45,1.86-.45s1.28.15,1.8.45c.53.3.95.72,1.27,1.27.32.54.48,1.14.48,1.78,0,.75-.16,1.41-.48,1.97-.32.56-.74,1-1.27,1.3-.53.3-1.13.45-1.8.45Z"/>
    <path class="cls-3" d="M557.82,156.19c-2.25,0-4.17.55-5.75,1.66-1.58,1.11-2.77,2.56-3.58,4.34-.81,1.79-1.21,3.73-1.21,5.83v13.97h-1.97v-14.03c0-2.59.51-4.92,1.52-6.99s2.46-3.69,4.34-4.87,4.1-1.78,6.65-1.78,4.96.59,6.88,1.78c1.91,1.18,3.39,2.8,4.42,4.85,1.03,2.05,1.55,4.37,1.55,6.96v14.09h-1.97v-13.86c0-2.14-.43-4.11-1.3-5.92-.86-1.8-2.09-3.26-3.69-4.37-1.6-1.11-3.56-1.66-5.89-1.66Z"/>
  </g>
</svg>