<?xml version="1.0" encoding="UTF-8"?>
<svg id="Layer_1" data-name="Layer 1" xmlns="http://www.w3.org/2000/svg" version="1.1" viewBox="0 0 452.14 647.68">
  <defs>
    <style>
      .cls-1 {
        fill: #6dd6a2;
      }

      .cls-1, .cls-2 {
        stroke-width: 0px;
      }

      .cls-2 {
        fill: #16153b;
      }
    </style>
  </defs>
  <rect class="cls-2" x="3.5" y="3.5" width="445.14" height="640.68" rx="45.11" ry="45.11"/>
  <path class="cls-1" d="M403.53,647.68H48.61c-26.8,0-48.61-21.81-48.61-48.61V48.61C0,21.81,21.81,0,48.61,0h354.92c26.8,0,48.61,21.81,48.61,48.61v550.46c0,26.8-21.81,48.61-48.61,48.61ZM48.61,7C25.67,7,7,25.67,7,48.61v550.46c0,22.94,18.67,41.61,41.61,41.61h354.92c22.95,0,41.61-18.67,41.61-41.61V48.61c0-22.94-18.67-41.61-41.61-41.61H48.61Z"/>
</svg>